<?xml version="1.0" encoding="utf-8" standalone="no"?>
<!DOCTYPE svg PUBLIC "-//W3C//DTD SVG 1.1//EN"
  "http://www.w3.org/Graphics/SVG/1.1/DTD/svg11.dtd">
<svg xmlns:xlink="http://www.w3.org/1999/xlink" width="864pt" height="360pt" viewBox="0 0 864 360" xmlns="http://www.w3.org/2000/svg" version="1.1">
 <metadata>
  <rdf:RDF xmlns:dc="http://purl.org/dc/elements/1.1/" xmlns:cc="http://creativecommons.org/ns#" xmlns:rdf="http://www.w3.org/1999/02/22-rdf-syntax-ns#">
   <cc:Work>
    <dc:type rdf:resource="http://purl.org/dc/dcmitype/StillImage"/>
    <dc:date>2023-12-28T20:04:38.513056</dc:date>
    <dc:format>image/svg+xml</dc:format>
    <dc:creator>
     <cc:Agent>
      <dc:title>Matplotlib v3.8.2, https://matplotlib.org/</dc:title>
     </cc:Agent>
    </dc:creator>
   </cc:Work>
  </rdf:RDF>
 </metadata>
 <defs>
  <style type="text/css">*{stroke-linejoin: round; stroke-linecap: butt}</style>
 </defs>
 <g id="figure_1">
  <g id="patch_1">
   <path d="M 0 360 
L 864 360 
L 864 0 
L 0 0 
L 0 360 
z
" style="fill: none; opacity: 0"/>
  </g>
  <g id="axes_1">
   <g id="patch_2">
    <path d="M 108 320.4 
L 777.6 320.4 
L 777.6 43.2 
L 108 43.2 
L 108 320.4 
z
" style="fill: none; opacity: 0"/>
   </g>
   <g id="matplotlib.axis_1">
    <g id="xtick_1">
     <g id="line2d_1">
      <path d="M 122.652004 320.4 
L 122.652004 43.2 
" clip-path="url(#p89ae5e8c31)" style="fill: none; stroke-dasharray: 5.12,1.28,0.8,1.28; stroke-dashoffset: 0; stroke: #b0b0b0; stroke-width: 0.8"/>
     </g>
     <g id="line2d_2">
      <defs>
       <path id="m5d705a4103" d="M 0 0 
L 0 3.5 
" style="stroke: #a9a9a9; stroke-width: 0.8"/>
      </defs>
      <g>
       <use xlink:href="#m5d705a4103" x="122.652004" y="320.4" style="fill: #a9a9a9; stroke: #a9a9a9; stroke-width: 0.8"/>
      </g>
     </g>
     <g id="text_1">
      <!-- 2021-07 -->
      <g style="fill: #a9a9a9" transform="translate(101.760597 334.998438) scale(0.1 -0.1)">
       <defs>
        <path id="DejaVuSans-32" d="M 1228 531 
L 3431 531 
L 3431 0 
L 469 0 
L 469 531 
Q 828 903 1448 1529 
Q 2069 2156 2228 2338 
Q 2531 2678 2651 2914 
Q 2772 3150 2772 3378 
Q 2772 3750 2511 3984 
Q 2250 4219 1831 4219 
Q 1534 4219 1204 4116 
Q 875 4013 500 3803 
L 500 4441 
Q 881 4594 1212 4672 
Q 1544 4750 1819 4750 
Q 2544 4750 2975 4387 
Q 3406 4025 3406 3419 
Q 3406 3131 3298 2873 
Q 3191 2616 2906 2266 
Q 2828 2175 2409 1742 
Q 1991 1309 1228 531 
z
" transform="scale(0.015625)"/>
        <path id="DejaVuSans-30" d="M 2034 4250 
Q 1547 4250 1301 3770 
Q 1056 3291 1056 2328 
Q 1056 1369 1301 889 
Q 1547 409 2034 409 
Q 2525 409 2770 889 
Q 3016 1369 3016 2328 
Q 3016 3291 2770 3770 
Q 2525 4250 2034 4250 
z
M 2034 4750 
Q 2819 4750 3233 4129 
Q 3647 3509 3647 2328 
Q 3647 1150 3233 529 
Q 2819 -91 2034 -91 
Q 1250 -91 836 529 
Q 422 1150 422 2328 
Q 422 3509 836 4129 
Q 1250 4750 2034 4750 
z
" transform="scale(0.015625)"/>
        <path id="DejaVuSans-31" d="M 794 531 
L 1825 531 
L 1825 4091 
L 703 3866 
L 703 4441 
L 1819 4666 
L 2450 4666 
L 2450 531 
L 3481 531 
L 3481 0 
L 794 0 
L 794 531 
z
" transform="scale(0.015625)"/>
        <path id="DejaVuSans-2d" d="M 313 2009 
L 1997 2009 
L 1997 1497 
L 313 1497 
L 313 2009 
z
" transform="scale(0.015625)"/>
        <path id="DejaVuSans-37" d="M 525 4666 
L 3525 4666 
L 3525 4397 
L 1831 0 
L 1172 0 
L 2766 4134 
L 525 4134 
L 525 4666 
z
" transform="scale(0.015625)"/>
       </defs>
       <use xlink:href="#DejaVuSans-32"/>
       <use xlink:href="#DejaVuSans-30" x="63.623047"/>
       <use xlink:href="#DejaVuSans-32" x="127.246094"/>
       <use xlink:href="#DejaVuSans-31" x="190.869141"/>
       <use xlink:href="#DejaVuSans-2d" x="254.492188"/>
       <use xlink:href="#DejaVuSans-30" x="290.576172"/>
       <use xlink:href="#DejaVuSans-37" x="354.199219"/>
      </g>
     </g>
    </g>
    <g id="xtick_2">
     <g id="line2d_3">
      <path d="M 185.789443 320.4 
L 185.789443 43.2 
" clip-path="url(#p89ae5e8c31)" style="fill: none; stroke-dasharray: 5.12,1.28,0.8,1.28; stroke-dashoffset: 0; stroke: #b0b0b0; stroke-width: 0.8"/>
     </g>
     <g id="line2d_4">
      <g>
       <use xlink:href="#m5d705a4103" x="185.789443" y="320.4" style="fill: #a9a9a9; stroke: #a9a9a9; stroke-width: 0.8"/>
      </g>
     </g>
     <g id="text_2">
      <!-- 2021-10 -->
      <g style="fill: #a9a9a9" transform="translate(164.898037 334.998438) scale(0.1 -0.1)">
       <use xlink:href="#DejaVuSans-32"/>
       <use xlink:href="#DejaVuSans-30" x="63.623047"/>
       <use xlink:href="#DejaVuSans-32" x="127.246094"/>
       <use xlink:href="#DejaVuSans-31" x="190.869141"/>
       <use xlink:href="#DejaVuSans-2d" x="254.492188"/>
       <use xlink:href="#DejaVuSans-31" x="290.576172"/>
       <use xlink:href="#DejaVuSans-30" x="354.199219"/>
      </g>
     </g>
    </g>
    <g id="xtick_3">
     <g id="line2d_5">
      <path d="M 248.926883 320.4 
L 248.926883 43.2 
" clip-path="url(#p89ae5e8c31)" style="fill: none; stroke-dasharray: 5.12,1.28,0.8,1.28; stroke-dashoffset: 0; stroke: #b0b0b0; stroke-width: 0.8"/>
     </g>
     <g id="line2d_6">
      <g>
       <use xlink:href="#m5d705a4103" x="248.926883" y="320.4" style="fill: #a9a9a9; stroke: #a9a9a9; stroke-width: 0.8"/>
      </g>
     </g>
     <g id="text_3">
      <!-- 2022-01 -->
      <g style="fill: #a9a9a9" transform="translate(228.035477 334.998438) scale(0.1 -0.1)">
       <use xlink:href="#DejaVuSans-32"/>
       <use xlink:href="#DejaVuSans-30" x="63.623047"/>
       <use xlink:href="#DejaVuSans-32" x="127.246094"/>
       <use xlink:href="#DejaVuSans-32" x="190.869141"/>
       <use xlink:href="#DejaVuSans-2d" x="254.492188"/>
       <use xlink:href="#DejaVuSans-30" x="290.576172"/>
       <use xlink:href="#DejaVuSans-31" x="354.199219"/>
      </g>
     </g>
    </g>
    <g id="xtick_4">
     <g id="line2d_7">
      <path d="M 310.69177 320.4 
L 310.69177 43.2 
" clip-path="url(#p89ae5e8c31)" style="fill: none; stroke-dasharray: 5.12,1.28,0.8,1.28; stroke-dashoffset: 0; stroke: #b0b0b0; stroke-width: 0.8"/>
     </g>
     <g id="line2d_8">
      <g>
       <use xlink:href="#m5d705a4103" x="310.69177" y="320.4" style="fill: #a9a9a9; stroke: #a9a9a9; stroke-width: 0.8"/>
      </g>
     </g>
     <g id="text_4">
      <!-- 2022-04 -->
      <g style="fill: #a9a9a9" transform="translate(289.800364 334.998438) scale(0.1 -0.1)">
       <defs>
        <path id="DejaVuSans-34" d="M 2419 4116 
L 825 1625 
L 2419 1625 
L 2419 4116 
z
M 2253 4666 
L 3047 4666 
L 3047 1625 
L 3713 1625 
L 3713 1100 
L 3047 1100 
L 3047 0 
L 2419 0 
L 2419 1100 
L 313 1100 
L 313 1709 
L 2253 4666 
z
" transform="scale(0.015625)"/>
       </defs>
       <use xlink:href="#DejaVuSans-32"/>
       <use xlink:href="#DejaVuSans-30" x="63.623047"/>
       <use xlink:href="#DejaVuSans-32" x="127.246094"/>
       <use xlink:href="#DejaVuSans-32" x="190.869141"/>
       <use xlink:href="#DejaVuSans-2d" x="254.492188"/>
       <use xlink:href="#DejaVuSans-30" x="290.576172"/>
       <use xlink:href="#DejaVuSans-34" x="354.199219"/>
      </g>
     </g>
    </g>
    <g id="xtick_5">
     <g id="line2d_9">
      <path d="M 373.142933 320.4 
L 373.142933 43.2 
" clip-path="url(#p89ae5e8c31)" style="fill: none; stroke-dasharray: 5.12,1.28,0.8,1.28; stroke-dashoffset: 0; stroke: #b0b0b0; stroke-width: 0.8"/>
     </g>
     <g id="line2d_10">
      <g>
       <use xlink:href="#m5d705a4103" x="373.142933" y="320.4" style="fill: #a9a9a9; stroke: #a9a9a9; stroke-width: 0.8"/>
      </g>
     </g>
     <g id="text_5">
      <!-- 2022-07 -->
      <g style="fill: #a9a9a9" transform="translate(352.251527 334.998438) scale(0.1 -0.1)">
       <use xlink:href="#DejaVuSans-32"/>
       <use xlink:href="#DejaVuSans-30" x="63.623047"/>
       <use xlink:href="#DejaVuSans-32" x="127.246094"/>
       <use xlink:href="#DejaVuSans-32" x="190.869141"/>
       <use xlink:href="#DejaVuSans-2d" x="254.492188"/>
       <use xlink:href="#DejaVuSans-30" x="290.576172"/>
       <use xlink:href="#DejaVuSans-37" x="354.199219"/>
      </g>
     </g>
    </g>
    <g id="xtick_6">
     <g id="line2d_11">
      <path d="M 436.280373 320.4 
L 436.280373 43.2 
" clip-path="url(#p89ae5e8c31)" style="fill: none; stroke-dasharray: 5.12,1.28,0.8,1.28; stroke-dashoffset: 0; stroke: #b0b0b0; stroke-width: 0.8"/>
     </g>
     <g id="line2d_12">
      <g>
       <use xlink:href="#m5d705a4103" x="436.280373" y="320.4" style="fill: #a9a9a9; stroke: #a9a9a9; stroke-width: 0.8"/>
      </g>
     </g>
     <g id="text_6">
      <!-- 2022-10 -->
      <g style="fill: #a9a9a9" transform="translate(415.388967 334.998438) scale(0.1 -0.1)">
       <use xlink:href="#DejaVuSans-32"/>
       <use xlink:href="#DejaVuSans-30" x="63.623047"/>
       <use xlink:href="#DejaVuSans-32" x="127.246094"/>
       <use xlink:href="#DejaVuSans-32" x="190.869141"/>
       <use xlink:href="#DejaVuSans-2d" x="254.492188"/>
       <use xlink:href="#DejaVuSans-31" x="290.576172"/>
       <use xlink:href="#DejaVuSans-30" x="354.199219"/>
      </g>
     </g>
    </g>
    <g id="xtick_7">
     <g id="line2d_13">
      <path d="M 499.417813 320.4 
L 499.417813 43.2 
" clip-path="url(#p89ae5e8c31)" style="fill: none; stroke-dasharray: 5.12,1.28,0.8,1.28; stroke-dashoffset: 0; stroke: #b0b0b0; stroke-width: 0.8"/>
     </g>
     <g id="line2d_14">
      <g>
       <use xlink:href="#m5d705a4103" x="499.417813" y="320.4" style="fill: #a9a9a9; stroke: #a9a9a9; stroke-width: 0.8"/>
      </g>
     </g>
     <g id="text_7">
      <!-- 2023-01 -->
      <g style="fill: #a9a9a9" transform="translate(478.526407 334.998438) scale(0.1 -0.1)">
       <defs>
        <path id="DejaVuSans-33" d="M 2597 2516 
Q 3050 2419 3304 2112 
Q 3559 1806 3559 1356 
Q 3559 666 3084 287 
Q 2609 -91 1734 -91 
Q 1441 -91 1130 -33 
Q 819 25 488 141 
L 488 750 
Q 750 597 1062 519 
Q 1375 441 1716 441 
Q 2309 441 2620 675 
Q 2931 909 2931 1356 
Q 2931 1769 2642 2001 
Q 2353 2234 1838 2234 
L 1294 2234 
L 1294 2753 
L 1863 2753 
Q 2328 2753 2575 2939 
Q 2822 3125 2822 3475 
Q 2822 3834 2567 4026 
Q 2313 4219 1838 4219 
Q 1578 4219 1281 4162 
Q 984 4106 628 3988 
L 628 4550 
Q 988 4650 1302 4700 
Q 1616 4750 1894 4750 
Q 2613 4750 3031 4423 
Q 3450 4097 3450 3541 
Q 3450 3153 3228 2886 
Q 3006 2619 2597 2516 
z
" transform="scale(0.015625)"/>
       </defs>
       <use xlink:href="#DejaVuSans-32"/>
       <use xlink:href="#DejaVuSans-30" x="63.623047"/>
       <use xlink:href="#DejaVuSans-32" x="127.246094"/>
       <use xlink:href="#DejaVuSans-33" x="190.869141"/>
       <use xlink:href="#DejaVuSans-2d" x="254.492188"/>
       <use xlink:href="#DejaVuSans-30" x="290.576172"/>
       <use xlink:href="#DejaVuSans-31" x="354.199219"/>
      </g>
     </g>
    </g>
    <g id="xtick_8">
     <g id="line2d_15">
      <path d="M 561.1827 320.4 
L 561.1827 43.2 
" clip-path="url(#p89ae5e8c31)" style="fill: none; stroke-dasharray: 5.12,1.28,0.8,1.28; stroke-dashoffset: 0; stroke: #b0b0b0; stroke-width: 0.8"/>
     </g>
     <g id="line2d_16">
      <g>
       <use xlink:href="#m5d705a4103" x="561.1827" y="320.4" style="fill: #a9a9a9; stroke: #a9a9a9; stroke-width: 0.8"/>
      </g>
     </g>
     <g id="text_8">
      <!-- 2023-04 -->
      <g style="fill: #a9a9a9" transform="translate(540.291293 334.998438) scale(0.1 -0.1)">
       <use xlink:href="#DejaVuSans-32"/>
       <use xlink:href="#DejaVuSans-30" x="63.623047"/>
       <use xlink:href="#DejaVuSans-32" x="127.246094"/>
       <use xlink:href="#DejaVuSans-33" x="190.869141"/>
       <use xlink:href="#DejaVuSans-2d" x="254.492188"/>
       <use xlink:href="#DejaVuSans-30" x="290.576172"/>
       <use xlink:href="#DejaVuSans-34" x="354.199219"/>
      </g>
     </g>
    </g>
    <g id="xtick_9">
     <g id="line2d_17">
      <path d="M 623.633863 320.4 
L 623.633863 43.2 
" clip-path="url(#p89ae5e8c31)" style="fill: none; stroke-dasharray: 5.12,1.28,0.8,1.28; stroke-dashoffset: 0; stroke: #b0b0b0; stroke-width: 0.8"/>
     </g>
     <g id="line2d_18">
      <g>
       <use xlink:href="#m5d705a4103" x="623.633863" y="320.4" style="fill: #a9a9a9; stroke: #a9a9a9; stroke-width: 0.8"/>
      </g>
     </g>
     <g id="text_9">
      <!-- 2023-07 -->
      <g style="fill: #a9a9a9" transform="translate(602.742457 334.998438) scale(0.1 -0.1)">
       <use xlink:href="#DejaVuSans-32"/>
       <use xlink:href="#DejaVuSans-30" x="63.623047"/>
       <use xlink:href="#DejaVuSans-32" x="127.246094"/>
       <use xlink:href="#DejaVuSans-33" x="190.869141"/>
       <use xlink:href="#DejaVuSans-2d" x="254.492188"/>
       <use xlink:href="#DejaVuSans-30" x="290.576172"/>
       <use xlink:href="#DejaVuSans-37" x="354.199219"/>
      </g>
     </g>
    </g>
    <g id="xtick_10">
     <g id="line2d_19">
      <path d="M 686.771303 320.4 
L 686.771303 43.2 
" clip-path="url(#p89ae5e8c31)" style="fill: none; stroke-dasharray: 5.12,1.28,0.8,1.28; stroke-dashoffset: 0; stroke: #b0b0b0; stroke-width: 0.8"/>
     </g>
     <g id="line2d_20">
      <g>
       <use xlink:href="#m5d705a4103" x="686.771303" y="320.4" style="fill: #a9a9a9; stroke: #a9a9a9; stroke-width: 0.8"/>
      </g>
     </g>
     <g id="text_10">
      <!-- 2023-10 -->
      <g style="fill: #a9a9a9" transform="translate(665.879896 334.998438) scale(0.1 -0.1)">
       <use xlink:href="#DejaVuSans-32"/>
       <use xlink:href="#DejaVuSans-30" x="63.623047"/>
       <use xlink:href="#DejaVuSans-32" x="127.246094"/>
       <use xlink:href="#DejaVuSans-33" x="190.869141"/>
       <use xlink:href="#DejaVuSans-2d" x="254.492188"/>
       <use xlink:href="#DejaVuSans-31" x="290.576172"/>
       <use xlink:href="#DejaVuSans-30" x="354.199219"/>
      </g>
     </g>
    </g>
    <g id="xtick_11">
     <g id="line2d_21">
      <path d="M 749.908742 320.4 
L 749.908742 43.2 
" clip-path="url(#p89ae5e8c31)" style="fill: none; stroke-dasharray: 5.12,1.28,0.8,1.28; stroke-dashoffset: 0; stroke: #b0b0b0; stroke-width: 0.8"/>
     </g>
     <g id="line2d_22">
      <g>
       <use xlink:href="#m5d705a4103" x="749.908742" y="320.4" style="fill: #a9a9a9; stroke: #a9a9a9; stroke-width: 0.8"/>
      </g>
     </g>
     <g id="text_11">
      <!-- 2024-01 -->
      <g style="fill: #a9a9a9" transform="translate(729.017336 334.998438) scale(0.1 -0.1)">
       <use xlink:href="#DejaVuSans-32"/>
       <use xlink:href="#DejaVuSans-30" x="63.623047"/>
       <use xlink:href="#DejaVuSans-32" x="127.246094"/>
       <use xlink:href="#DejaVuSans-34" x="190.869141"/>
       <use xlink:href="#DejaVuSans-2d" x="254.492188"/>
       <use xlink:href="#DejaVuSans-30" x="290.576172"/>
       <use xlink:href="#DejaVuSans-31" x="354.199219"/>
      </g>
     </g>
    </g>
   </g>
   <g id="matplotlib.axis_2">
    <g id="ytick_1">
     <g id="line2d_23">
      <path d="M 108 307.846866 
L 777.6 307.846866 
" clip-path="url(#p89ae5e8c31)" style="fill: none; stroke-dasharray: 5.12,1.28,0.8,1.28; stroke-dashoffset: 0; stroke: #b0b0b0; stroke-width: 0.8"/>
     </g>
     <g id="line2d_24">
      <defs>
       <path id="maf9f3ee394" d="M 0 0 
L -3.5 0 
" style="stroke: #a9a9a9; stroke-width: 0.8"/>
      </defs>
      <g>
       <use xlink:href="#maf9f3ee394" x="108" y="307.846866" style="fill: #a9a9a9; stroke: #a9a9a9; stroke-width: 0.8"/>
      </g>
     </g>
     <g id="text_12">
      <!-- 0 -->
      <g style="fill: #a9a9a9" transform="translate(94.6375 311.646085) scale(0.1 -0.1)">
       <use xlink:href="#DejaVuSans-30"/>
      </g>
     </g>
    </g>
    <g id="ytick_2">
     <g id="line2d_25">
      <path d="M 108 279.727097 
L 777.6 279.727097 
" clip-path="url(#p89ae5e8c31)" style="fill: none; stroke-dasharray: 5.12,1.28,0.8,1.28; stroke-dashoffset: 0; stroke: #b0b0b0; stroke-width: 0.8"/>
     </g>
     <g id="line2d_26">
      <g>
       <use xlink:href="#maf9f3ee394" x="108" y="279.727097" style="fill: #a9a9a9; stroke: #a9a9a9; stroke-width: 0.8"/>
      </g>
     </g>
     <g id="text_13">
      <!-- 600 -->
      <g style="fill: #a9a9a9" transform="translate(81.9125 283.526316) scale(0.1 -0.1)">
       <defs>
        <path id="DejaVuSans-36" d="M 2113 2584 
Q 1688 2584 1439 2293 
Q 1191 2003 1191 1497 
Q 1191 994 1439 701 
Q 1688 409 2113 409 
Q 2538 409 2786 701 
Q 3034 994 3034 1497 
Q 3034 2003 2786 2293 
Q 2538 2584 2113 2584 
z
M 3366 4563 
L 3366 3988 
Q 3128 4100 2886 4159 
Q 2644 4219 2406 4219 
Q 1781 4219 1451 3797 
Q 1122 3375 1075 2522 
Q 1259 2794 1537 2939 
Q 1816 3084 2150 3084 
Q 2853 3084 3261 2657 
Q 3669 2231 3669 1497 
Q 3669 778 3244 343 
Q 2819 -91 2113 -91 
Q 1303 -91 875 529 
Q 447 1150 447 2328 
Q 447 3434 972 4092 
Q 1497 4750 2381 4750 
Q 2619 4750 2861 4703 
Q 3103 4656 3366 4563 
z
" transform="scale(0.015625)"/>
       </defs>
       <use xlink:href="#DejaVuSans-36"/>
       <use xlink:href="#DejaVuSans-30" x="63.623047"/>
       <use xlink:href="#DejaVuSans-30" x="127.246094"/>
      </g>
     </g>
    </g>
    <g id="ytick_3">
     <g id="line2d_27">
      <path d="M 108 251.607328 
L 777.6 251.607328 
" clip-path="url(#p89ae5e8c31)" style="fill: none; stroke-dasharray: 5.12,1.28,0.8,1.28; stroke-dashoffset: 0; stroke: #b0b0b0; stroke-width: 0.8"/>
     </g>
     <g id="line2d_28">
      <g>
       <use xlink:href="#maf9f3ee394" x="108" y="251.607328" style="fill: #a9a9a9; stroke: #a9a9a9; stroke-width: 0.8"/>
      </g>
     </g>
     <g id="text_14">
      <!-- 1200 -->
      <g style="fill: #a9a9a9" transform="translate(75.55 255.406546) scale(0.1 -0.1)">
       <use xlink:href="#DejaVuSans-31"/>
       <use xlink:href="#DejaVuSans-32" x="63.623047"/>
       <use xlink:href="#DejaVuSans-30" x="127.246094"/>
       <use xlink:href="#DejaVuSans-30" x="190.869141"/>
      </g>
     </g>
    </g>
    <g id="ytick_4">
     <g id="line2d_29">
      <path d="M 108 223.487558 
L 777.6 223.487558 
" clip-path="url(#p89ae5e8c31)" style="fill: none; stroke-dasharray: 5.12,1.28,0.8,1.28; stroke-dashoffset: 0; stroke: #b0b0b0; stroke-width: 0.8"/>
     </g>
     <g id="line2d_30">
      <g>
       <use xlink:href="#maf9f3ee394" x="108" y="223.487558" style="fill: #a9a9a9; stroke: #a9a9a9; stroke-width: 0.8"/>
      </g>
     </g>
     <g id="text_15">
      <!-- 1800 -->
      <g style="fill: #a9a9a9" transform="translate(75.55 227.286777) scale(0.1 -0.1)">
       <defs>
        <path id="DejaVuSans-38" d="M 2034 2216 
Q 1584 2216 1326 1975 
Q 1069 1734 1069 1313 
Q 1069 891 1326 650 
Q 1584 409 2034 409 
Q 2484 409 2743 651 
Q 3003 894 3003 1313 
Q 3003 1734 2745 1975 
Q 2488 2216 2034 2216 
z
M 1403 2484 
Q 997 2584 770 2862 
Q 544 3141 544 3541 
Q 544 4100 942 4425 
Q 1341 4750 2034 4750 
Q 2731 4750 3128 4425 
Q 3525 4100 3525 3541 
Q 3525 3141 3298 2862 
Q 3072 2584 2669 2484 
Q 3125 2378 3379 2068 
Q 3634 1759 3634 1313 
Q 3634 634 3220 271 
Q 2806 -91 2034 -91 
Q 1263 -91 848 271 
Q 434 634 434 1313 
Q 434 1759 690 2068 
Q 947 2378 1403 2484 
z
M 1172 3481 
Q 1172 3119 1398 2916 
Q 1625 2713 2034 2713 
Q 2441 2713 2670 2916 
Q 2900 3119 2900 3481 
Q 2900 3844 2670 4047 
Q 2441 4250 2034 4250 
Q 1625 4250 1398 4047 
Q 1172 3844 1172 3481 
z
" transform="scale(0.015625)"/>
       </defs>
       <use xlink:href="#DejaVuSans-31"/>
       <use xlink:href="#DejaVuSans-38" x="63.623047"/>
       <use xlink:href="#DejaVuSans-30" x="127.246094"/>
       <use xlink:href="#DejaVuSans-30" x="190.869141"/>
      </g>
     </g>
    </g>
    <g id="ytick_5">
     <g id="line2d_31">
      <path d="M 108 195.367789 
L 777.6 195.367789 
" clip-path="url(#p89ae5e8c31)" style="fill: none; stroke-dasharray: 5.12,1.28,0.8,1.28; stroke-dashoffset: 0; stroke: #b0b0b0; stroke-width: 0.8"/>
     </g>
     <g id="line2d_32">
      <g>
       <use xlink:href="#maf9f3ee394" x="108" y="195.367789" style="fill: #a9a9a9; stroke: #a9a9a9; stroke-width: 0.8"/>
      </g>
     </g>
     <g id="text_16">
      <!-- 2400 -->
      <g style="fill: #a9a9a9" transform="translate(75.55 199.167007) scale(0.1 -0.1)">
       <use xlink:href="#DejaVuSans-32"/>
       <use xlink:href="#DejaVuSans-34" x="63.623047"/>
       <use xlink:href="#DejaVuSans-30" x="127.246094"/>
       <use xlink:href="#DejaVuSans-30" x="190.869141"/>
      </g>
     </g>
    </g>
    <g id="ytick_6">
     <g id="line2d_33">
      <path d="M 108 167.248019 
L 777.6 167.248019 
" clip-path="url(#p89ae5e8c31)" style="fill: none; stroke-dasharray: 5.12,1.28,0.8,1.28; stroke-dashoffset: 0; stroke: #b0b0b0; stroke-width: 0.8"/>
     </g>
     <g id="line2d_34">
      <g>
       <use xlink:href="#maf9f3ee394" x="108" y="167.248019" style="fill: #a9a9a9; stroke: #a9a9a9; stroke-width: 0.8"/>
      </g>
     </g>
     <g id="text_17">
      <!-- 3000 -->
      <g style="fill: #a9a9a9" transform="translate(75.55 171.047238) scale(0.1 -0.1)">
       <use xlink:href="#DejaVuSans-33"/>
       <use xlink:href="#DejaVuSans-30" x="63.623047"/>
       <use xlink:href="#DejaVuSans-30" x="127.246094"/>
       <use xlink:href="#DejaVuSans-30" x="190.869141"/>
      </g>
     </g>
    </g>
    <g id="ytick_7">
     <g id="line2d_35">
      <path d="M 108 139.12825 
L 777.6 139.12825 
" clip-path="url(#p89ae5e8c31)" style="fill: none; stroke-dasharray: 5.12,1.28,0.8,1.28; stroke-dashoffset: 0; stroke: #b0b0b0; stroke-width: 0.8"/>
     </g>
     <g id="line2d_36">
      <g>
       <use xlink:href="#maf9f3ee394" x="108" y="139.12825" style="fill: #a9a9a9; stroke: #a9a9a9; stroke-width: 0.8"/>
      </g>
     </g>
     <g id="text_18">
      <!-- 3600 -->
      <g style="fill: #a9a9a9" transform="translate(75.55 142.927469) scale(0.1 -0.1)">
       <use xlink:href="#DejaVuSans-33"/>
       <use xlink:href="#DejaVuSans-36" x="63.623047"/>
       <use xlink:href="#DejaVuSans-30" x="127.246094"/>
       <use xlink:href="#DejaVuSans-30" x="190.869141"/>
      </g>
     </g>
    </g>
    <g id="ytick_8">
     <g id="line2d_37">
      <path d="M 108 111.008481 
L 777.6 111.008481 
" clip-path="url(#p89ae5e8c31)" style="fill: none; stroke-dasharray: 5.12,1.28,0.8,1.28; stroke-dashoffset: 0; stroke: #b0b0b0; stroke-width: 0.8"/>
     </g>
     <g id="line2d_38">
      <g>
       <use xlink:href="#maf9f3ee394" x="108" y="111.008481" style="fill: #a9a9a9; stroke: #a9a9a9; stroke-width: 0.8"/>
      </g>
     </g>
     <g id="text_19">
      <!-- 4200 -->
      <g style="fill: #a9a9a9" transform="translate(75.55 114.807699) scale(0.1 -0.1)">
       <use xlink:href="#DejaVuSans-34"/>
       <use xlink:href="#DejaVuSans-32" x="63.623047"/>
       <use xlink:href="#DejaVuSans-30" x="127.246094"/>
       <use xlink:href="#DejaVuSans-30" x="190.869141"/>
      </g>
     </g>
    </g>
    <g id="ytick_9">
     <g id="line2d_39">
      <path d="M 108 82.888711 
L 777.6 82.888711 
" clip-path="url(#p89ae5e8c31)" style="fill: none; stroke-dasharray: 5.12,1.28,0.8,1.28; stroke-dashoffset: 0; stroke: #b0b0b0; stroke-width: 0.8"/>
     </g>
     <g id="line2d_40">
      <g>
       <use xlink:href="#maf9f3ee394" x="108" y="82.888711" style="fill: #a9a9a9; stroke: #a9a9a9; stroke-width: 0.8"/>
      </g>
     </g>
     <g id="text_20">
      <!-- 4800 -->
      <g style="fill: #a9a9a9" transform="translate(75.55 86.68793) scale(0.1 -0.1)">
       <use xlink:href="#DejaVuSans-34"/>
       <use xlink:href="#DejaVuSans-38" x="63.623047"/>
       <use xlink:href="#DejaVuSans-30" x="127.246094"/>
       <use xlink:href="#DejaVuSans-30" x="190.869141"/>
      </g>
     </g>
    </g>
    <g id="ytick_10">
     <g id="line2d_41">
      <path d="M 108 54.768942 
L 777.6 54.768942 
" clip-path="url(#p89ae5e8c31)" style="fill: none; stroke-dasharray: 5.12,1.28,0.8,1.28; stroke-dashoffset: 0; stroke: #b0b0b0; stroke-width: 0.8"/>
     </g>
     <g id="line2d_42">
      <g>
       <use xlink:href="#maf9f3ee394" x="108" y="54.768942" style="fill: #a9a9a9; stroke: #a9a9a9; stroke-width: 0.8"/>
      </g>
     </g>
     <g id="text_21">
      <!-- 5400 -->
      <g style="fill: #a9a9a9" transform="translate(75.55 58.568161) scale(0.1 -0.1)">
       <defs>
        <path id="DejaVuSans-35" d="M 691 4666 
L 3169 4666 
L 3169 4134 
L 1269 4134 
L 1269 2991 
Q 1406 3038 1543 3061 
Q 1681 3084 1819 3084 
Q 2600 3084 3056 2656 
Q 3513 2228 3513 1497 
Q 3513 744 3044 326 
Q 2575 -91 1722 -91 
Q 1428 -91 1123 -41 
Q 819 9 494 109 
L 494 744 
Q 775 591 1075 516 
Q 1375 441 1709 441 
Q 2250 441 2565 725 
Q 2881 1009 2881 1497 
Q 2881 1984 2565 2268 
Q 2250 2553 1709 2553 
Q 1456 2553 1204 2497 
Q 953 2441 691 2322 
L 691 4666 
z
" transform="scale(0.015625)"/>
       </defs>
       <use xlink:href="#DejaVuSans-35"/>
       <use xlink:href="#DejaVuSans-34" x="63.623047"/>
       <use xlink:href="#DejaVuSans-30" x="127.246094"/>
       <use xlink:href="#DejaVuSans-30" x="190.869141"/>
      </g>
     </g>
    </g>
   </g>
   <g id="line2d_43">
    <path d="M 138.436364 307.706267 
L 142.554023 307.378203 
L 143.240299 307.097006 
L 145.299129 306.862674 
L 150.103064 305.972215 
L 153.534447 305.644151 
L 154.220724 305.316087 
L 154.907 305.128622 
L 155.593277 304.285029 
L 156.279553 303.816366 
L 156.96583 302.363511 
L 157.652106 302.269779 
L 158.338383 301.75425 
L 159.710936 301.098122 
L 161.083489 300.067063 
L 161.769765 299.410935 
L 163.142318 298.754808 
L 163.828595 298.47361 
L 164.514871 297.958081 
L 167.259977 296.786424 
L 167.946254 295.708499 
L 169.318807 294.724307 
L 170.005084 294.44311 
L 176.867849 293.505784 
L 177.554125 293.17772 
L 182.358061 292.80279 
L 183.730614 292.427859 
L 185.103167 292.146662 
L 190.593379 291.443667 
L 191.279656 291.068737 
L 191.965932 290.975005 
L 192.652209 290.693807 
L 194.024762 290.459476 
L 194.711038 290.412609 
L 195.397315 290.178278 
L 198.142421 289.756481 
L 199.514974 289.381551 
L 201.573803 289.194086 
L 202.946356 289.053487 
L 203.632633 288.866022 
L 204.31891 288.819156 
L 206.377739 288.209894 
L 210.495398 287.600632 
L 211.181675 287.413167 
L 211.867951 286.475842 
L 213.926781 285.725981 
L 215.98561 285.163586 
L 216.671887 284.835522 
L 217.358163 284.788655 
L 220.789546 283.85133 
L 222.162099 283.757597 
L 222.848376 283.663865 
L 224.907205 283.054603 
L 227.652311 282.398475 
L 228.338588 282.117277 
L 229.024864 282.023545 
L 229.711141 281.695481 
L 236.573906 280.664423 
L 240.005289 279.680231 
L 240.691565 279.258434 
L 243.436671 278.508574 
L 244.809224 277.711847 
L 245.495501 277.243184 
L 246.181777 277.149451 
L 246.868054 276.91512 
L 248.926883 276.54019 
L 249.61316 276.212126 
L 250.985713 275.977794 
L 251.671989 275.602864 
L 253.044542 275.181068 
L 253.730819 275.087335 
L 255.103372 274.712405 
L 256.475925 274.384341 
L 257.162201 274.290608 
L 258.534755 273.728213 
L 259.221031 273.587614 
L 259.907308 273.306416 
L 260.593584 273.212684 
L 261.279861 272.88462 
L 261.966137 272.697155 
L 263.33869 272.603422 
L 264.711243 272.134759 
L 266.083796 272.041027 
L 266.770073 271.712963 
L 269.515179 271.2443 
L 272.260285 271.009968 
L 272.946561 270.86937 
L 274.319114 270.213242 
L 281.868156 267.073201 
L 282.554433 266.69827 
L 283.240709 265.94841 
L 283.926986 264.823619 
L 284.613262 263.93316 
L 285.299539 263.745695 
L 285.985815 263.745695 
L 287.358368 262.761503 
L 288.044645 262.574038 
L 288.730921 262.199107 
L 289.417198 262.058508 
L 290.103474 261.449247 
L 290.789751 261.261782 
L 292.848581 260.27759 
L 293.534857 259.433997 
L 294.221134 258.402938 
L 294.90741 257.981142 
L 295.593687 256.856351 
L 296.279963 256.153357 
L 296.96624 255.825293 
L 297.652516 255.637828 
L 299.025069 254.841101 
L 299.711346 254.513037 
L 302.456452 252.497787 
L 303.142728 251.513595 
L 303.829005 249.967008 
L 304.515281 248.982816 
L 305.201558 248.467287 
L 305.887834 248.186089 
L 308.63294 245.842775 
L 309.319217 245.374112 
L 310.69177 244.202455 
L 311.378047 243.265129 
L 312.7506 242.093472 
L 315.495706 240.35942 
L 316.181982 239.750158 
L 316.868259 239.609559 
L 318.927088 238.531635 
L 320.985918 237.500577 
L 322.358471 236.235187 
L 323.044747 235.43846 
L 324.4173 234.501134 
L 325.103577 234.313669 
L 325.789853 233.985605 
L 326.47613 233.470076 
L 327.848683 232.720216 
L 328.53496 232.626483 
L 329.907513 231.876623 
L 330.593789 231.501692 
L 331.280066 230.798698 
L 331.966342 230.376902 
L 332.652619 230.14257 
L 333.338895 229.673907 
L 336.084001 228.267919 
L 336.770278 227.658657 
L 339.515384 226.721332 
L 340.20166 226.252669 
L 340.887937 226.11207 
L 342.26049 225.643407 
L 344.319319 224.84668 
L 346.378149 224.09682 
L 347.750702 223.862488 
L 349.123255 222.690831 
L 350.495808 222.034703 
L 352.554638 220.863046 
L 353.927191 220.488116 
L 354.613467 220.06632 
L 355.299744 219.878854 
L 356.672297 218.988395 
L 357.358573 218.613465 
L 360.789956 217.816738 
L 362.848785 216.645081 
L 363.535062 216.551348 
L 364.221339 216.317017 
L 365.593892 216.035819 
L 367.652721 214.536098 
L 369.711551 214.067435 
L 370.397827 213.833104 
L 371.084104 213.317575 
L 375.201763 212.005319 
L 375.888039 211.958453 
L 380.691975 210.271267 
L 381.378252 209.943203 
L 383.437081 209.47454 
L 384.809634 209.146476 
L 385.495911 208.818412 
L 386.182187 208.677813 
L 388.241017 207.740487 
L 390.299846 206.756295 
L 390.986123 206.287633 
L 391.672399 206.100167 
L 393.731229 205.022243 
L 395.103782 204.694179 
L 396.476335 203.991185 
L 397.848888 203.616254 
L 398.535164 203.522522 
L 399.221441 203.053859 
L 399.907718 202.725795 
L 400.593994 202.585196 
L 401.966547 202.022801 
L 402.652824 201.882202 
L 403.3391 201.507272 
L 406.084206 201.085475 
L 407.456759 200.429347 
L 408.143036 199.866952 
L 408.829312 198.695295 
L 410.201865 198.414097 
L 410.888142 198.273498 
L 413.633248 196.86751 
L 414.319524 196.726911 
L 419.809737 194.102399 
L 421.868566 193.680603 
L 423.241119 193.024475 
L 423.927396 192.743277 
L 424.613672 192.649544 
L 427.358778 191.431021 
L 428.731331 190.493695 
L 429.417608 190.165631 
L 430.103884 190.071899 
L 430.790161 189.837567 
L 431.476437 189.790701 
L 434.90782 188.900242 
L 435.594097 188.384713 
L 436.96665 187.91605 
L 439.025479 187.259922 
L 439.711756 186.838125 
L 440.398032 186.65066 
L 441.084309 186.181997 
L 441.770585 185.9008 
L 442.456862 185.479003 
L 443.829415 185.01034 
L 445.888244 184.354212 
L 446.574521 184.026148 
L 447.260797 183.510619 
L 447.947074 182.807625 
L 448.63335 182.385829 
L 449.319627 182.24523 
L 450.69218 181.214171 
L 451.378456 181.073573 
L 452.064733 180.042514 
L 452.75101 179.761317 
L 453.437286 179.245788 
L 454.123563 179.152055 
L 454.809839 178.683392 
L 455.496116 178.355328 
L 456.182392 178.214729 
L 456.868669 177.933532 
L 457.554945 177.418003 
L 458.241222 177.183671 
L 460.300051 175.824549 
L 463.045157 174.465427 
L 463.731434 174.371694 
L 465.103987 173.762433 
L 465.790263 173.387502 
L 466.47654 172.262712 
L 467.162816 171.65345 
L 467.849093 171.27852 
L 468.535369 171.137921 
L 469.907923 170.294328 
L 470.594199 170.153729 
L 471.966752 169.497601 
L 474.025582 168.654008 
L 475.398135 167.716682 
L 476.770688 166.310694 
L 478.143241 165.467101 
L 478.829517 165.045304 
L 479.515794 164.34231 
L 480.20207 163.873647 
L 481.574623 162.748856 
L 482.2609 162.467659 
L 482.947176 161.717798 
L 483.633453 161.202269 
L 485.006006 160.733606 
L 485.692282 160.171211 
L 487.064836 159.468216 
L 487.751112 159.280751 
L 488.437389 158.812089 
L 489.123665 158.67149 
L 491.182495 157.593565 
L 491.868771 157.124902 
L 493.241324 156.562507 
L 493.927601 156.421908 
L 494.613877 156.000112 
L 498.04526 154.922187 
L 498.731536 154.734722 
L 499.417813 154.406658 
L 500.104089 153.797396 
L 502.162919 153.047536 
L 503.535472 152.625739 
L 504.221748 152.11021 
L 506.280578 151.172885 
L 506.966855 150.657355 
L 507.653131 150.282425 
L 509.025684 147.611047 
L 510.398237 146.017593 
L 511.084514 145.548931 
L 513.143343 144.658471 
L 513.82962 144.42414 
L 514.515896 144.330407 
L 515.202173 143.955477 
L 517.261002 143.346215 
L 519.319832 142.549489 
L 520.692385 141.659029 
L 522.064938 141.190366 
L 526.182597 138.847052 
L 526.868874 138.144058 
L 528.241427 137.394198 
L 528.927703 137.019267 
L 529.61398 136.784936 
L 530.300256 136.316273 
L 531.672809 135.660145 
L 533.731639 134.582221 
L 534.417915 134.394755 
L 535.104192 133.879226 
L 535.790468 133.598029 
L 536.476745 133.45743 
L 538.535574 132.707569 
L 539.221851 132.520104 
L 539.908127 132.19204 
L 540.594404 131.676511 
L 541.966957 131.301581 
L 543.33951 130.786052 
L 544.025787 130.223656 
L 545.39834 129.80186 
L 546.084616 129.473796 
L 546.770893 129.286331 
L 548.143446 128.349005 
L 549.515999 127.739743 
L 550.888552 126.708685 
L 552.261105 126.240022 
L 552.947381 125.677627 
L 553.633658 125.583894 
L 555.006211 124.599702 
L 556.378764 123.943574 
L 557.06504 123.662377 
L 557.751317 122.959383 
L 561.868976 121.459662 
L 563.927806 120.569202 
L 565.986635 119.95994 
L 567.359188 119.772475 
L 568.045465 119.491278 
L 568.731741 119.350679 
L 570.104294 118.788283 
L 570.790571 118.741417 
L 573.535677 117.757225 
L 575.594507 116.351237 
L 579.712166 114.335987 
L 581.770995 113.023731 
L 583.143548 112.695667 
L 584.516101 111.758341 
L 587.261207 110.914748 
L 587.947484 110.63355 
L 589.320037 110.305486 
L 592.751419 109.180696 
L 594.810249 108.805765 
L 595.496526 108.6183 
L 596.182802 108.290236 
L 596.869079 108.196504 
L 598.241632 107.634108 
L 598.927908 107.540376 
L 599.614185 107.212312 
L 600.986738 106.931114 
L 601.673014 106.60305 
L 603.731844 106.134387 
L 605.104397 105.85319 
L 609.222056 105.103329 
L 610.594609 104.822131 
L 611.280886 104.681532 
L 611.967162 104.400335 
L 612.653439 104.353468 
L 614.712268 103.791073 
L 615.398545 103.416143 
L 618.829927 102.57255 
L 619.516204 102.431951 
L 620.888757 101.963288 
L 624.320139 100.885364 
L 625.006416 100.744765 
L 625.692692 100.416701 
L 626.378969 100.416701 
L 627.751522 99.948038 
L 628.437799 99.29191 
L 629.124075 98.963846 
L 630.496628 98.542049 
L 633.241734 97.510991 
L 633.928011 97.370392 
L 634.614287 96.948596 
L 635.300564 96.807997 
L 635.98684 96.3862 
L 639.418223 95.355142 
L 640.104499 94.933346 
L 640.790776 94.745881 
L 641.477052 94.183485 
L 643.535882 93.808555 
L 644.908435 93.058694 
L 645.594711 92.308834 
L 646.967265 92.027636 
L 651.084924 91.090311 
L 652.457477 90.71538 
L 653.83003 90.668514 
L 654.516306 90.34045 
L 657.261412 89.871787 
L 657.947689 89.543723 
L 660.006518 89.262526 
L 662.751624 88.418932 
L 664.810454 87.95027 
L 666.869284 87.434741 
L 669.61439 86.591147 
L 670.300666 86.450549 
L 670.986943 86.122485 
L 671.673219 86.028752 
L 672.359496 85.794421 
L 673.045772 85.372624 
L 675.104602 84.622764 
L 675.790878 84.107235 
L 677.163431 83.732304 
L 677.849708 83.451107 
L 679.222261 83.076176 
L 681.967367 81.810787 
L 684.026197 81.670188 
L 686.771303 80.826595 
L 687.457579 80.404798 
L 688.830132 79.983002 
L 690.888962 78.951943 
L 691.575238 78.811345 
L 692.261515 78.483281 
L 692.947791 78.389548 
L 700.496833 75.905635 
L 703.241939 75.249507 
L 703.928216 75.062042 
L 705.300769 74.405914 
L 707.359598 73.890385 
L 708.045875 73.374856 
L 708.732151 73.046792 
L 709.418428 72.250065 
L 710.104704 71.734536 
L 711.477257 71.312739 
L 712.163534 70.750344 
L 719.712576 67.704036 
L 721.085129 67.375972 
L 722.457682 66.76671 
L 724.516511 65.548187 
L 725.202788 65.407588 
L 725.889064 64.892059 
L 727.261617 64.235931 
L 728.63417 63.392338 
L 730.693 62.455012 
L 731.379276 61.986349 
L 732.751829 61.47082 
L 733.438106 61.002157 
L 734.810659 60.346029 
L 735.496936 59.877367 
L 736.869489 59.408704 
L 737.555765 59.268105 
L 740.300871 58.049582 
L 743.732254 56.877924 
L 744.41853 56.831058 
L 745.104807 56.643593 
L 745.791083 56.17493 
L 746.47736 56.081198 
L 747.163636 55.8 
L 747.163636 55.8 
" clip-path="url(#p89ae5e8c31)" style="fill: none; stroke: #1f77b4; stroke-width: 1.5; stroke-linecap: square"/>
   </g>
   <g id="line2d_44">
    <path d="M 139.12264 307.8 
L 141.18147 307.706267 
L 143.240299 307.659401 
L 147.357958 307.565669 
L 150.789341 307.42507 
L 153.534447 307.42507 
L 154.220724 307.237605 
L 156.96583 307.143872 
L 159.024659 306.909541 
L 161.083489 306.722076 
L 170.69136 306.15968 
L 176.181572 306.065948 
L 179.612955 305.925349 
L 187.848273 305.831616 
L 191.279656 305.691017 
L 195.397315 305.597285 
L 198.142421 305.503552 
L 204.31891 305.40982 
L 206.377739 305.362953 
L 208.436569 305.316087 
L 210.495398 305.081756 
L 214.613057 305.034889 
L 215.98561 304.941157 
L 220.789546 304.847424 
L 228.338588 304.425628 
L 233.142523 304.331895 
L 234.515076 304.238163 
L 236.573906 304.14443 
L 240.691565 303.956965 
L 243.436671 303.910099 
L 245.495501 303.722633 
L 256.475925 303.066505 
L 259.221031 302.972773 
L 264.024967 302.738442 
L 266.083796 302.644709 
L 272.946561 302.269779 
L 280.495603 302.176046 
L 283.240709 301.894848 
L 284.613262 301.801116 
L 293.534857 301.098122 
L 297.652516 300.582593 
L 300.397622 300.48886 
L 305.887834 299.785866 
L 309.319217 299.692133 
L 318.240812 298.989139 
L 322.358471 298.520476 
L 324.4173 298.47361 
L 325.789853 298.379877 
L 328.53496 298.286145 
L 329.907513 298.192412 
L 333.338895 297.864348 
L 334.025172 297.676883 
L 338.142831 297.489418 
L 341.574213 297.395685 
L 350.495808 296.880156 
L 352.554638 296.786424 
L 361.476232 296.270895 
L 366.280168 296.177162 
L 366.966445 296.036563 
L 372.456657 295.942831 
L 377.260592 295.708499 
L 384.809634 295.614767 
L 389.61357 295.380435 
L 395.103782 295.286703 
L 401.280271 294.958639 
L 405.39793 294.864906 
L 418.437184 294.068179 
L 423.927396 293.974447 
L 427.358778 293.646383 
L 428.731331 293.505784 
L 432.162714 293.458918 
L 434.90782 293.17772 
L 441.770585 292.80279 
L 445.888244 292.709057 
L 447.947074 292.662191 
L 450.005903 292.615325 
L 452.064733 292.427859 
L 457.554945 292.334127 
L 458.927498 292.099795 
L 460.300051 292.006063 
L 463.045157 291.91233 
L 465.103987 291.818598 
L 466.47654 291.724865 
L 472.653029 291.631133 
L 474.025582 291.490534 
L 476.770688 291.396801 
L 477.456964 291.256202 
L 478.829517 291.209336 
L 479.515794 291.068737 
L 481.574623 290.975005 
L 493.241324 290.27201 
L 495.300154 290.178278 
L 498.731536 290.037679 
L 508.339408 289.943946 
L 513.143343 289.709615 
L 518.633555 289.615882 
L 521.378661 289.52215 
L 524.123768 289.475284 
L 525.496321 289.334685 
L 528.241427 289.240952 
L 535.104192 288.866022 
L 539.221851 288.819156 
L 541.280681 288.631691 
L 543.33951 288.584824 
L 548.143446 288.491092 
L 550.888552 288.397359 
L 559.12387 288.303627 
L 562.555253 288.163028 
L 566.672912 288.069295 
L 568.731741 287.834964 
L 572.8494 287.788097 
L 573.535677 287.647499 
L 574.90823 287.553766 
L 577.653336 287.460033 
L 585.888654 287.366301 
L 589.320037 287.225702 
L 600.986738 287.178836 
L 602.359291 287.085103 
L 604.41812 287.038237 
L 613.339715 286.944504 
L 614.712268 286.850772 
L 622.26131 286.757039 
L 625.006416 286.663307 
L 633.241734 286.61644 
L 634.614287 286.522708 
L 644.908435 286.475842 
L 646.967265 286.288376 
L 658.633965 286.194644 
L 660.692795 286.147778 
L 678.535984 286.054045 
L 681.28109 285.960312 
L 693.634068 285.86658 
L 695.006621 285.725981 
L 701.18311 285.632248 
L 708.732151 285.210452 
L 712.84981 285.116719 
L 715.594916 285.022987 
L 719.026299 284.976121 
L 720.398852 284.882388 
L 725.889064 284.788655 
L 731.379276 284.507458 
L 733.438106 284.460591 
L 734.810659 284.319993 
L 736.869489 284.273126 
L 738.928318 284.085661 
L 743.045977 283.991929 
L 745.791083 283.898196 
L 747.163636 283.898196 
L 747.163636 283.898196 
" clip-path="url(#p89ae5e8c31)" style="fill: none; stroke: #ff7f0e; stroke-width: 1.5; stroke-linecap: square"/>
   </g>
   <g id="patch_3">
    <path d="M 108 320.4 
L 108 43.2 
" style="fill: none; stroke: #a9a9a9; stroke-width: 0.8; stroke-linejoin: miter; stroke-linecap: square"/>
   </g>
   <g id="patch_4">
    <path d="M 777.6 320.4 
L 777.6 43.2 
" style="fill: none"/>
   </g>
   <g id="patch_5">
    <path d="M 108 320.4 
L 777.6 320.4 
" style="fill: none; stroke: #a9a9a9; stroke-width: 0.8; stroke-linejoin: miter; stroke-linecap: square"/>
   </g>
   <g id="patch_6">
    <path d="M 108 43.2 
L 777.6 43.2 
" style="fill: none"/>
   </g>
   <g id="text_22">
    <!-- get_subscribe history -->
    <g style="fill: #a9a9a9" transform="translate(378.6075 37.2) scale(0.12 -0.12)">
     <defs>
      <path id="DejaVuSans-67" d="M 2906 1791 
Q 2906 2416 2648 2759 
Q 2391 3103 1925 3103 
Q 1463 3103 1205 2759 
Q 947 2416 947 1791 
Q 947 1169 1205 825 
Q 1463 481 1925 481 
Q 2391 481 2648 825 
Q 2906 1169 2906 1791 
z
M 3481 434 
Q 3481 -459 3084 -895 
Q 2688 -1331 1869 -1331 
Q 1566 -1331 1297 -1286 
Q 1028 -1241 775 -1147 
L 775 -588 
Q 1028 -725 1275 -790 
Q 1522 -856 1778 -856 
Q 2344 -856 2625 -561 
Q 2906 -266 2906 331 
L 2906 616 
Q 2728 306 2450 153 
Q 2172 0 1784 0 
Q 1141 0 747 490 
Q 353 981 353 1791 
Q 353 2603 747 3093 
Q 1141 3584 1784 3584 
Q 2172 3584 2450 3431 
Q 2728 3278 2906 2969 
L 2906 3500 
L 3481 3500 
L 3481 434 
z
" transform="scale(0.015625)"/>
      <path id="DejaVuSans-65" d="M 3597 1894 
L 3597 1613 
L 953 1613 
Q 991 1019 1311 708 
Q 1631 397 2203 397 
Q 2534 397 2845 478 
Q 3156 559 3463 722 
L 3463 178 
Q 3153 47 2828 -22 
Q 2503 -91 2169 -91 
Q 1331 -91 842 396 
Q 353 884 353 1716 
Q 353 2575 817 3079 
Q 1281 3584 2069 3584 
Q 2775 3584 3186 3129 
Q 3597 2675 3597 1894 
z
M 3022 2063 
Q 3016 2534 2758 2815 
Q 2500 3097 2075 3097 
Q 1594 3097 1305 2825 
Q 1016 2553 972 2059 
L 3022 2063 
z
" transform="scale(0.015625)"/>
      <path id="DejaVuSans-74" d="M 1172 4494 
L 1172 3500 
L 2356 3500 
L 2356 3053 
L 1172 3053 
L 1172 1153 
Q 1172 725 1289 603 
Q 1406 481 1766 481 
L 2356 481 
L 2356 0 
L 1766 0 
Q 1100 0 847 248 
Q 594 497 594 1153 
L 594 3053 
L 172 3053 
L 172 3500 
L 594 3500 
L 594 4494 
L 1172 4494 
z
" transform="scale(0.015625)"/>
      <path id="DejaVuSans-5f" d="M 3263 -1063 
L 3263 -1509 
L -63 -1509 
L -63 -1063 
L 3263 -1063 
z
" transform="scale(0.015625)"/>
      <path id="DejaVuSans-73" d="M 2834 3397 
L 2834 2853 
Q 2591 2978 2328 3040 
Q 2066 3103 1784 3103 
Q 1356 3103 1142 2972 
Q 928 2841 928 2578 
Q 928 2378 1081 2264 
Q 1234 2150 1697 2047 
L 1894 2003 
Q 2506 1872 2764 1633 
Q 3022 1394 3022 966 
Q 3022 478 2636 193 
Q 2250 -91 1575 -91 
Q 1294 -91 989 -36 
Q 684 19 347 128 
L 347 722 
Q 666 556 975 473 
Q 1284 391 1588 391 
Q 1994 391 2212 530 
Q 2431 669 2431 922 
Q 2431 1156 2273 1281 
Q 2116 1406 1581 1522 
L 1381 1569 
Q 847 1681 609 1914 
Q 372 2147 372 2553 
Q 372 3047 722 3315 
Q 1072 3584 1716 3584 
Q 2034 3584 2315 3537 
Q 2597 3491 2834 3397 
z
" transform="scale(0.015625)"/>
      <path id="DejaVuSans-75" d="M 544 1381 
L 544 3500 
L 1119 3500 
L 1119 1403 
Q 1119 906 1312 657 
Q 1506 409 1894 409 
Q 2359 409 2629 706 
Q 2900 1003 2900 1516 
L 2900 3500 
L 3475 3500 
L 3475 0 
L 2900 0 
L 2900 538 
Q 2691 219 2414 64 
Q 2138 -91 1772 -91 
Q 1169 -91 856 284 
Q 544 659 544 1381 
z
M 1991 3584 
L 1991 3584 
z
" transform="scale(0.015625)"/>
      <path id="DejaVuSans-62" d="M 3116 1747 
Q 3116 2381 2855 2742 
Q 2594 3103 2138 3103 
Q 1681 3103 1420 2742 
Q 1159 2381 1159 1747 
Q 1159 1113 1420 752 
Q 1681 391 2138 391 
Q 2594 391 2855 752 
Q 3116 1113 3116 1747 
z
M 1159 2969 
Q 1341 3281 1617 3432 
Q 1894 3584 2278 3584 
Q 2916 3584 3314 3078 
Q 3713 2572 3713 1747 
Q 3713 922 3314 415 
Q 2916 -91 2278 -91 
Q 1894 -91 1617 61 
Q 1341 213 1159 525 
L 1159 0 
L 581 0 
L 581 4863 
L 1159 4863 
L 1159 2969 
z
" transform="scale(0.015625)"/>
      <path id="DejaVuSans-63" d="M 3122 3366 
L 3122 2828 
Q 2878 2963 2633 3030 
Q 2388 3097 2138 3097 
Q 1578 3097 1268 2742 
Q 959 2388 959 1747 
Q 959 1106 1268 751 
Q 1578 397 2138 397 
Q 2388 397 2633 464 
Q 2878 531 3122 666 
L 3122 134 
Q 2881 22 2623 -34 
Q 2366 -91 2075 -91 
Q 1284 -91 818 406 
Q 353 903 353 1747 
Q 353 2603 823 3093 
Q 1294 3584 2113 3584 
Q 2378 3584 2631 3529 
Q 2884 3475 3122 3366 
z
" transform="scale(0.015625)"/>
      <path id="DejaVuSans-72" d="M 2631 2963 
Q 2534 3019 2420 3045 
Q 2306 3072 2169 3072 
Q 1681 3072 1420 2755 
Q 1159 2438 1159 1844 
L 1159 0 
L 581 0 
L 581 3500 
L 1159 3500 
L 1159 2956 
Q 1341 3275 1631 3429 
Q 1922 3584 2338 3584 
Q 2397 3584 2469 3576 
Q 2541 3569 2628 3553 
L 2631 2963 
z
" transform="scale(0.015625)"/>
      <path id="DejaVuSans-69" d="M 603 3500 
L 1178 3500 
L 1178 0 
L 603 0 
L 603 3500 
z
M 603 4863 
L 1178 4863 
L 1178 4134 
L 603 4134 
L 603 4863 
z
" transform="scale(0.015625)"/>
      <path id="DejaVuSans-20" transform="scale(0.015625)"/>
      <path id="DejaVuSans-68" d="M 3513 2113 
L 3513 0 
L 2938 0 
L 2938 2094 
Q 2938 2591 2744 2837 
Q 2550 3084 2163 3084 
Q 1697 3084 1428 2787 
Q 1159 2491 1159 1978 
L 1159 0 
L 581 0 
L 581 4863 
L 1159 4863 
L 1159 2956 
Q 1366 3272 1645 3428 
Q 1925 3584 2291 3584 
Q 2894 3584 3203 3211 
Q 3513 2838 3513 2113 
z
" transform="scale(0.015625)"/>
      <path id="DejaVuSans-6f" d="M 1959 3097 
Q 1497 3097 1228 2736 
Q 959 2375 959 1747 
Q 959 1119 1226 758 
Q 1494 397 1959 397 
Q 2419 397 2687 759 
Q 2956 1122 2956 1747 
Q 2956 2369 2687 2733 
Q 2419 3097 1959 3097 
z
M 1959 3584 
Q 2709 3584 3137 3096 
Q 3566 2609 3566 1747 
Q 3566 888 3137 398 
Q 2709 -91 1959 -91 
Q 1206 -91 779 398 
Q 353 888 353 1747 
Q 353 2609 779 3096 
Q 1206 3584 1959 3584 
z
" transform="scale(0.015625)"/>
      <path id="DejaVuSans-79" d="M 2059 -325 
Q 1816 -950 1584 -1140 
Q 1353 -1331 966 -1331 
L 506 -1331 
L 506 -850 
L 844 -850 
Q 1081 -850 1212 -737 
Q 1344 -625 1503 -206 
L 1606 56 
L 191 3500 
L 800 3500 
L 1894 763 
L 2988 3500 
L 3597 3500 
L 2059 -325 
z
" transform="scale(0.015625)"/>
     </defs>
     <use xlink:href="#DejaVuSans-67"/>
     <use xlink:href="#DejaVuSans-65" x="63.476562"/>
     <use xlink:href="#DejaVuSans-74" x="125"/>
     <use xlink:href="#DejaVuSans-5f" x="164.208984"/>
     <use xlink:href="#DejaVuSans-73" x="214.208984"/>
     <use xlink:href="#DejaVuSans-75" x="266.308594"/>
     <use xlink:href="#DejaVuSans-62" x="329.6875"/>
     <use xlink:href="#DejaVuSans-73" x="393.164062"/>
     <use xlink:href="#DejaVuSans-63" x="445.263672"/>
     <use xlink:href="#DejaVuSans-72" x="500.244141"/>
     <use xlink:href="#DejaVuSans-69" x="541.357422"/>
     <use xlink:href="#DejaVuSans-62" x="569.140625"/>
     <use xlink:href="#DejaVuSans-65" x="632.617188"/>
     <use xlink:href="#DejaVuSans-20" x="694.140625"/>
     <use xlink:href="#DejaVuSans-68" x="725.927734"/>
     <use xlink:href="#DejaVuSans-69" x="789.306641"/>
     <use xlink:href="#DejaVuSans-73" x="817.089844"/>
     <use xlink:href="#DejaVuSans-74" x="869.189453"/>
     <use xlink:href="#DejaVuSans-6f" x="908.398438"/>
     <use xlink:href="#DejaVuSans-72" x="969.580078"/>
     <use xlink:href="#DejaVuSans-79" x="1010.693359"/>
    </g>
   </g>
   <g id="legend_1">
    <g id="line2d_45">
     <path d="M 815.08 328.498438 
L 825.08 328.498438 
L 835.08 328.498438 
" style="fill: none; stroke: #1f77b4; stroke-width: 1.5; stroke-linecap: square"/>
    </g>
    <g id="text_23">
     <!-- star -->
     <g style="fill: #a9a9a9" transform="translate(843.08 331.998438) scale(0.1 -0.1)">
      <defs>
       <path id="DejaVuSans-61" d="M 2194 1759 
Q 1497 1759 1228 1600 
Q 959 1441 959 1056 
Q 959 750 1161 570 
Q 1363 391 1709 391 
Q 2188 391 2477 730 
Q 2766 1069 2766 1631 
L 2766 1759 
L 2194 1759 
z
M 3341 1997 
L 3341 0 
L 2766 0 
L 2766 531 
Q 2569 213 2275 61 
Q 1981 -91 1556 -91 
Q 1019 -91 701 211 
Q 384 513 384 1019 
Q 384 1609 779 1909 
Q 1175 2209 1959 2209 
L 2766 2209 
L 2766 2266 
Q 2766 2663 2505 2880 
Q 2244 3097 1772 3097 
Q 1472 3097 1187 3025 
Q 903 2953 641 2809 
L 641 3341 
Q 956 3463 1253 3523 
Q 1550 3584 1831 3584 
Q 2591 3584 2966 3190 
Q 3341 2797 3341 1997 
z
" transform="scale(0.015625)"/>
      </defs>
      <use xlink:href="#DejaVuSans-73"/>
      <use xlink:href="#DejaVuSans-74" x="52.099609"/>
      <use xlink:href="#DejaVuSans-61" x="91.308594"/>
      <use xlink:href="#DejaVuSans-72" x="152.587891"/>
     </g>
    </g>
    <g id="line2d_46">
     <path d="M 815.08 343.176562 
L 825.08 343.176562 
L 835.08 343.176562 
" style="fill: none; stroke: #ff7f0e; stroke-width: 1.5; stroke-linecap: square"/>
    </g>
    <g id="text_24">
     <!-- fork -->
     <g style="fill: #a9a9a9" transform="translate(843.08 346.676562) scale(0.1 -0.1)">
      <defs>
       <path id="DejaVuSans-66" d="M 2375 4863 
L 2375 4384 
L 1825 4384 
Q 1516 4384 1395 4259 
Q 1275 4134 1275 3809 
L 1275 3500 
L 2222 3500 
L 2222 3053 
L 1275 3053 
L 1275 0 
L 697 0 
L 697 3053 
L 147 3053 
L 147 3500 
L 697 3500 
L 697 3744 
Q 697 4328 969 4595 
Q 1241 4863 1831 4863 
L 2375 4863 
z
" transform="scale(0.015625)"/>
       <path id="DejaVuSans-6b" d="M 581 4863 
L 1159 4863 
L 1159 1991 
L 2875 3500 
L 3609 3500 
L 1753 1863 
L 3688 0 
L 2938 0 
L 1159 1709 
L 1159 0 
L 581 0 
L 581 4863 
z
" transform="scale(0.015625)"/>
      </defs>
      <use xlink:href="#DejaVuSans-66"/>
      <use xlink:href="#DejaVuSans-6f" x="35.205078"/>
      <use xlink:href="#DejaVuSans-72" x="96.386719"/>
      <use xlink:href="#DejaVuSans-6b" x="137.5"/>
     </g>
    </g>
   </g>
  </g>
 </g>
 <defs>
  <clipPath id="p89ae5e8c31">
   <rect x="108" y="43.2" width="669.6" height="277.2"/>
  </clipPath>
 </defs>
</svg>
