<?xml version="1.0" encoding="utf-8" standalone="no"?>
<!DOCTYPE svg PUBLIC "-//W3C//DTD SVG 1.1//EN"
  "http://www.w3.org/Graphics/SVG/1.1/DTD/svg11.dtd">
<svg xmlns:xlink="http://www.w3.org/1999/xlink" width="864pt" height="360pt" viewBox="0 0 864 360" xmlns="http://www.w3.org/2000/svg" version="1.1">
 <metadata>
  <rdf:RDF xmlns:dc="http://purl.org/dc/elements/1.1/" xmlns:cc="http://creativecommons.org/ns#" xmlns:rdf="http://www.w3.org/1999/02/22-rdf-syntax-ns#">
   <cc:Work>
    <dc:type rdf:resource="http://purl.org/dc/dcmitype/StillImage"/>
    <dc:date>2023-12-26T08:10:50.944712</dc:date>
    <dc:format>image/svg+xml</dc:format>
    <dc:creator>
     <cc:Agent>
      <dc:title>Matplotlib v3.8.2, https://matplotlib.org/</dc:title>
     </cc:Agent>
    </dc:creator>
   </cc:Work>
  </rdf:RDF>
 </metadata>
 <defs>
  <style type="text/css">*{stroke-linejoin: round; stroke-linecap: butt}</style>
 </defs>
 <g id="figure_1">
  <g id="patch_1">
   <path d="M 0 360 
L 864 360 
L 864 0 
L 0 0 
L 0 360 
z
" style="fill: none; opacity: 0"/>
  </g>
  <g id="axes_1">
   <g id="patch_2">
    <path d="M 108 320.4 
L 777.6 320.4 
L 777.6 43.2 
L 108 43.2 
L 108 320.4 
z
" style="fill: none; opacity: 0"/>
   </g>
   <g id="matplotlib.axis_1">
    <g id="xtick_1">
     <g id="line2d_1">
      <path d="M 122.616333 320.4 
L 122.616333 43.2 
" clip-path="url(#p5835968aef)" style="fill: none; stroke-dasharray: 5.12,1.28,0.8,1.28; stroke-dashoffset: 0; stroke: #b0b0b0; stroke-width: 0.8"/>
     </g>
     <g id="line2d_2">
      <defs>
       <path id="m04dae4f80d" d="M 0 0 
L 0 3.5 
" style="stroke: #a9a9a9; stroke-width: 0.8"/>
      </defs>
      <g>
       <use xlink:href="#m04dae4f80d" x="122.616333" y="320.4" style="fill: #a9a9a9; stroke: #a9a9a9; stroke-width: 0.8"/>
      </g>
     </g>
     <g id="text_1">
      <!-- 2021-07 -->
      <g style="fill: #a9a9a9" transform="translate(101.724927 334.998438) scale(0.1 -0.1)">
       <defs>
        <path id="DejaVuSans-32" d="M 1228 531 
L 3431 531 
L 3431 0 
L 469 0 
L 469 531 
Q 828 903 1448 1529 
Q 2069 2156 2228 2338 
Q 2531 2678 2651 2914 
Q 2772 3150 2772 3378 
Q 2772 3750 2511 3984 
Q 2250 4219 1831 4219 
Q 1534 4219 1204 4116 
Q 875 4013 500 3803 
L 500 4441 
Q 881 4594 1212 4672 
Q 1544 4750 1819 4750 
Q 2544 4750 2975 4387 
Q 3406 4025 3406 3419 
Q 3406 3131 3298 2873 
Q 3191 2616 2906 2266 
Q 2828 2175 2409 1742 
Q 1991 1309 1228 531 
z
" transform="scale(0.015625)"/>
        <path id="DejaVuSans-30" d="M 2034 4250 
Q 1547 4250 1301 3770 
Q 1056 3291 1056 2328 
Q 1056 1369 1301 889 
Q 1547 409 2034 409 
Q 2525 409 2770 889 
Q 3016 1369 3016 2328 
Q 3016 3291 2770 3770 
Q 2525 4250 2034 4250 
z
M 2034 4750 
Q 2819 4750 3233 4129 
Q 3647 3509 3647 2328 
Q 3647 1150 3233 529 
Q 2819 -91 2034 -91 
Q 1250 -91 836 529 
Q 422 1150 422 2328 
Q 422 3509 836 4129 
Q 1250 4750 2034 4750 
z
" transform="scale(0.015625)"/>
        <path id="DejaVuSans-31" d="M 794 531 
L 1825 531 
L 1825 4091 
L 703 3866 
L 703 4441 
L 1819 4666 
L 2450 4666 
L 2450 531 
L 3481 531 
L 3481 0 
L 794 0 
L 794 531 
z
" transform="scale(0.015625)"/>
        <path id="DejaVuSans-2d" d="M 313 2009 
L 1997 2009 
L 1997 1497 
L 313 1497 
L 313 2009 
z
" transform="scale(0.015625)"/>
        <path id="DejaVuSans-37" d="M 525 4666 
L 3525 4666 
L 3525 4397 
L 1831 0 
L 1172 0 
L 2766 4134 
L 525 4134 
L 525 4666 
z
" transform="scale(0.015625)"/>
       </defs>
       <use xlink:href="#DejaVuSans-32"/>
       <use xlink:href="#DejaVuSans-30" x="63.623047"/>
       <use xlink:href="#DejaVuSans-32" x="127.246094"/>
       <use xlink:href="#DejaVuSans-31" x="190.869141"/>
       <use xlink:href="#DejaVuSans-2d" x="254.492188"/>
       <use xlink:href="#DejaVuSans-30" x="290.576172"/>
       <use xlink:href="#DejaVuSans-37" x="354.199219"/>
      </g>
     </g>
    </g>
    <g id="xtick_2">
     <g id="line2d_3">
      <path d="M 185.896456 320.4 
L 185.896456 43.2 
" clip-path="url(#p5835968aef)" style="fill: none; stroke-dasharray: 5.12,1.28,0.8,1.28; stroke-dashoffset: 0; stroke: #b0b0b0; stroke-width: 0.8"/>
     </g>
     <g id="line2d_4">
      <g>
       <use xlink:href="#m04dae4f80d" x="185.896456" y="320.4" style="fill: #a9a9a9; stroke: #a9a9a9; stroke-width: 0.8"/>
      </g>
     </g>
     <g id="text_2">
      <!-- 2021-10 -->
      <g style="fill: #a9a9a9" transform="translate(165.00505 334.998438) scale(0.1 -0.1)">
       <use xlink:href="#DejaVuSans-32"/>
       <use xlink:href="#DejaVuSans-30" x="63.623047"/>
       <use xlink:href="#DejaVuSans-32" x="127.246094"/>
       <use xlink:href="#DejaVuSans-31" x="190.869141"/>
       <use xlink:href="#DejaVuSans-2d" x="254.492188"/>
       <use xlink:href="#DejaVuSans-31" x="290.576172"/>
       <use xlink:href="#DejaVuSans-30" x="354.199219"/>
      </g>
     </g>
    </g>
    <g id="xtick_3">
     <g id="line2d_5">
      <path d="M 249.176579 320.4 
L 249.176579 43.2 
" clip-path="url(#p5835968aef)" style="fill: none; stroke-dasharray: 5.12,1.28,0.8,1.28; stroke-dashoffset: 0; stroke: #b0b0b0; stroke-width: 0.8"/>
     </g>
     <g id="line2d_6">
      <g>
       <use xlink:href="#m04dae4f80d" x="249.176579" y="320.4" style="fill: #a9a9a9; stroke: #a9a9a9; stroke-width: 0.8"/>
      </g>
     </g>
     <g id="text_3">
      <!-- 2022-01 -->
      <g style="fill: #a9a9a9" transform="translate(228.285173 334.998438) scale(0.1 -0.1)">
       <use xlink:href="#DejaVuSans-32"/>
       <use xlink:href="#DejaVuSans-30" x="63.623047"/>
       <use xlink:href="#DejaVuSans-32" x="127.246094"/>
       <use xlink:href="#DejaVuSans-32" x="190.869141"/>
       <use xlink:href="#DejaVuSans-2d" x="254.492188"/>
       <use xlink:href="#DejaVuSans-30" x="290.576172"/>
       <use xlink:href="#DejaVuSans-31" x="354.199219"/>
      </g>
     </g>
    </g>
    <g id="xtick_4">
     <g id="line2d_7">
      <path d="M 311.081048 320.4 
L 311.081048 43.2 
" clip-path="url(#p5835968aef)" style="fill: none; stroke-dasharray: 5.12,1.28,0.8,1.28; stroke-dashoffset: 0; stroke: #b0b0b0; stroke-width: 0.8"/>
     </g>
     <g id="line2d_8">
      <g>
       <use xlink:href="#m04dae4f80d" x="311.081048" y="320.4" style="fill: #a9a9a9; stroke: #a9a9a9; stroke-width: 0.8"/>
      </g>
     </g>
     <g id="text_4">
      <!-- 2022-04 -->
      <g style="fill: #a9a9a9" transform="translate(290.189642 334.998438) scale(0.1 -0.1)">
       <defs>
        <path id="DejaVuSans-34" d="M 2419 4116 
L 825 1625 
L 2419 1625 
L 2419 4116 
z
M 2253 4666 
L 3047 4666 
L 3047 1625 
L 3713 1625 
L 3713 1100 
L 3047 1100 
L 3047 0 
L 2419 0 
L 2419 1100 
L 313 1100 
L 313 1709 
L 2253 4666 
z
" transform="scale(0.015625)"/>
       </defs>
       <use xlink:href="#DejaVuSans-32"/>
       <use xlink:href="#DejaVuSans-30" x="63.623047"/>
       <use xlink:href="#DejaVuSans-32" x="127.246094"/>
       <use xlink:href="#DejaVuSans-32" x="190.869141"/>
       <use xlink:href="#DejaVuSans-2d" x="254.492188"/>
       <use xlink:href="#DejaVuSans-30" x="290.576172"/>
       <use xlink:href="#DejaVuSans-34" x="354.199219"/>
      </g>
     </g>
    </g>
    <g id="xtick_5">
     <g id="line2d_9">
      <path d="M 373.673344 320.4 
L 373.673344 43.2 
" clip-path="url(#p5835968aef)" style="fill: none; stroke-dasharray: 5.12,1.28,0.8,1.28; stroke-dashoffset: 0; stroke: #b0b0b0; stroke-width: 0.8"/>
     </g>
     <g id="line2d_10">
      <g>
       <use xlink:href="#m04dae4f80d" x="373.673344" y="320.4" style="fill: #a9a9a9; stroke: #a9a9a9; stroke-width: 0.8"/>
      </g>
     </g>
     <g id="text_5">
      <!-- 2022-07 -->
      <g style="fill: #a9a9a9" transform="translate(352.781937 334.998438) scale(0.1 -0.1)">
       <use xlink:href="#DejaVuSans-32"/>
       <use xlink:href="#DejaVuSans-30" x="63.623047"/>
       <use xlink:href="#DejaVuSans-32" x="127.246094"/>
       <use xlink:href="#DejaVuSans-32" x="190.869141"/>
       <use xlink:href="#DejaVuSans-2d" x="254.492188"/>
       <use xlink:href="#DejaVuSans-30" x="290.576172"/>
       <use xlink:href="#DejaVuSans-37" x="354.199219"/>
      </g>
     </g>
    </g>
    <g id="xtick_6">
     <g id="line2d_11">
      <path d="M 436.953467 320.4 
L 436.953467 43.2 
" clip-path="url(#p5835968aef)" style="fill: none; stroke-dasharray: 5.12,1.28,0.8,1.28; stroke-dashoffset: 0; stroke: #b0b0b0; stroke-width: 0.8"/>
     </g>
     <g id="line2d_12">
      <g>
       <use xlink:href="#m04dae4f80d" x="436.953467" y="320.4" style="fill: #a9a9a9; stroke: #a9a9a9; stroke-width: 0.8"/>
      </g>
     </g>
     <g id="text_6">
      <!-- 2022-10 -->
      <g style="fill: #a9a9a9" transform="translate(416.062061 334.998438) scale(0.1 -0.1)">
       <use xlink:href="#DejaVuSans-32"/>
       <use xlink:href="#DejaVuSans-30" x="63.623047"/>
       <use xlink:href="#DejaVuSans-32" x="127.246094"/>
       <use xlink:href="#DejaVuSans-32" x="190.869141"/>
       <use xlink:href="#DejaVuSans-2d" x="254.492188"/>
       <use xlink:href="#DejaVuSans-31" x="290.576172"/>
       <use xlink:href="#DejaVuSans-30" x="354.199219"/>
      </g>
     </g>
    </g>
    <g id="xtick_7">
     <g id="line2d_13">
      <path d="M 500.23359 320.4 
L 500.23359 43.2 
" clip-path="url(#p5835968aef)" style="fill: none; stroke-dasharray: 5.12,1.28,0.8,1.28; stroke-dashoffset: 0; stroke: #b0b0b0; stroke-width: 0.8"/>
     </g>
     <g id="line2d_14">
      <g>
       <use xlink:href="#m04dae4f80d" x="500.23359" y="320.4" style="fill: #a9a9a9; stroke: #a9a9a9; stroke-width: 0.8"/>
      </g>
     </g>
     <g id="text_7">
      <!-- 2023-01 -->
      <g style="fill: #a9a9a9" transform="translate(479.342184 334.998438) scale(0.1 -0.1)">
       <defs>
        <path id="DejaVuSans-33" d="M 2597 2516 
Q 3050 2419 3304 2112 
Q 3559 1806 3559 1356 
Q 3559 666 3084 287 
Q 2609 -91 1734 -91 
Q 1441 -91 1130 -33 
Q 819 25 488 141 
L 488 750 
Q 750 597 1062 519 
Q 1375 441 1716 441 
Q 2309 441 2620 675 
Q 2931 909 2931 1356 
Q 2931 1769 2642 2001 
Q 2353 2234 1838 2234 
L 1294 2234 
L 1294 2753 
L 1863 2753 
Q 2328 2753 2575 2939 
Q 2822 3125 2822 3475 
Q 2822 3834 2567 4026 
Q 2313 4219 1838 4219 
Q 1578 4219 1281 4162 
Q 984 4106 628 3988 
L 628 4550 
Q 988 4650 1302 4700 
Q 1616 4750 1894 4750 
Q 2613 4750 3031 4423 
Q 3450 4097 3450 3541 
Q 3450 3153 3228 2886 
Q 3006 2619 2597 2516 
z
" transform="scale(0.015625)"/>
       </defs>
       <use xlink:href="#DejaVuSans-32"/>
       <use xlink:href="#DejaVuSans-30" x="63.623047"/>
       <use xlink:href="#DejaVuSans-32" x="127.246094"/>
       <use xlink:href="#DejaVuSans-33" x="190.869141"/>
       <use xlink:href="#DejaVuSans-2d" x="254.492188"/>
       <use xlink:href="#DejaVuSans-30" x="290.576172"/>
       <use xlink:href="#DejaVuSans-31" x="354.199219"/>
      </g>
     </g>
    </g>
    <g id="xtick_8">
     <g id="line2d_15">
      <path d="M 562.138059 320.4 
L 562.138059 43.2 
" clip-path="url(#p5835968aef)" style="fill: none; stroke-dasharray: 5.12,1.28,0.8,1.28; stroke-dashoffset: 0; stroke: #b0b0b0; stroke-width: 0.8"/>
     </g>
     <g id="line2d_16">
      <g>
       <use xlink:href="#m04dae4f80d" x="562.138059" y="320.4" style="fill: #a9a9a9; stroke: #a9a9a9; stroke-width: 0.8"/>
      </g>
     </g>
     <g id="text_8">
      <!-- 2023-04 -->
      <g style="fill: #a9a9a9" transform="translate(541.246652 334.998438) scale(0.1 -0.1)">
       <use xlink:href="#DejaVuSans-32"/>
       <use xlink:href="#DejaVuSans-30" x="63.623047"/>
       <use xlink:href="#DejaVuSans-32" x="127.246094"/>
       <use xlink:href="#DejaVuSans-33" x="190.869141"/>
       <use xlink:href="#DejaVuSans-2d" x="254.492188"/>
       <use xlink:href="#DejaVuSans-30" x="290.576172"/>
       <use xlink:href="#DejaVuSans-34" x="354.199219"/>
      </g>
     </g>
    </g>
    <g id="xtick_9">
     <g id="line2d_17">
      <path d="M 624.730354 320.4 
L 624.730354 43.2 
" clip-path="url(#p5835968aef)" style="fill: none; stroke-dasharray: 5.12,1.28,0.8,1.28; stroke-dashoffset: 0; stroke: #b0b0b0; stroke-width: 0.8"/>
     </g>
     <g id="line2d_18">
      <g>
       <use xlink:href="#m04dae4f80d" x="624.730354" y="320.4" style="fill: #a9a9a9; stroke: #a9a9a9; stroke-width: 0.8"/>
      </g>
     </g>
     <g id="text_9">
      <!-- 2023-07 -->
      <g style="fill: #a9a9a9" transform="translate(603.838948 334.998438) scale(0.1 -0.1)">
       <use xlink:href="#DejaVuSans-32"/>
       <use xlink:href="#DejaVuSans-30" x="63.623047"/>
       <use xlink:href="#DejaVuSans-32" x="127.246094"/>
       <use xlink:href="#DejaVuSans-33" x="190.869141"/>
       <use xlink:href="#DejaVuSans-2d" x="254.492188"/>
       <use xlink:href="#DejaVuSans-30" x="290.576172"/>
       <use xlink:href="#DejaVuSans-37" x="354.199219"/>
      </g>
     </g>
    </g>
    <g id="xtick_10">
     <g id="line2d_19">
      <path d="M 688.010478 320.4 
L 688.010478 43.2 
" clip-path="url(#p5835968aef)" style="fill: none; stroke-dasharray: 5.12,1.28,0.8,1.28; stroke-dashoffset: 0; stroke: #b0b0b0; stroke-width: 0.8"/>
     </g>
     <g id="line2d_20">
      <g>
       <use xlink:href="#m04dae4f80d" x="688.010478" y="320.4" style="fill: #a9a9a9; stroke: #a9a9a9; stroke-width: 0.8"/>
      </g>
     </g>
     <g id="text_10">
      <!-- 2023-10 -->
      <g style="fill: #a9a9a9" transform="translate(667.119071 334.998438) scale(0.1 -0.1)">
       <use xlink:href="#DejaVuSans-32"/>
       <use xlink:href="#DejaVuSans-30" x="63.623047"/>
       <use xlink:href="#DejaVuSans-32" x="127.246094"/>
       <use xlink:href="#DejaVuSans-33" x="190.869141"/>
       <use xlink:href="#DejaVuSans-2d" x="254.492188"/>
       <use xlink:href="#DejaVuSans-31" x="290.576172"/>
       <use xlink:href="#DejaVuSans-30" x="354.199219"/>
      </g>
     </g>
    </g>
    <g id="xtick_11">
     <g id="line2d_21">
      <path d="M 751.290601 320.4 
L 751.290601 43.2 
" clip-path="url(#p5835968aef)" style="fill: none; stroke-dasharray: 5.12,1.28,0.8,1.28; stroke-dashoffset: 0; stroke: #b0b0b0; stroke-width: 0.8"/>
     </g>
     <g id="line2d_22">
      <g>
       <use xlink:href="#m04dae4f80d" x="751.290601" y="320.4" style="fill: #a9a9a9; stroke: #a9a9a9; stroke-width: 0.8"/>
      </g>
     </g>
     <g id="text_11">
      <!-- 2024-01 -->
      <g style="fill: #a9a9a9" transform="translate(730.399195 334.998438) scale(0.1 -0.1)">
       <use xlink:href="#DejaVuSans-32"/>
       <use xlink:href="#DejaVuSans-30" x="63.623047"/>
       <use xlink:href="#DejaVuSans-32" x="127.246094"/>
       <use xlink:href="#DejaVuSans-34" x="190.869141"/>
       <use xlink:href="#DejaVuSans-2d" x="254.492188"/>
       <use xlink:href="#DejaVuSans-30" x="290.576172"/>
       <use xlink:href="#DejaVuSans-31" x="354.199219"/>
      </g>
     </g>
    </g>
   </g>
   <g id="matplotlib.axis_2">
    <g id="ytick_1">
     <g id="line2d_23">
      <path d="M 108 307.846989 
L 777.6 307.846989 
" clip-path="url(#p5835968aef)" style="fill: none; stroke-dasharray: 5.12,1.28,0.8,1.28; stroke-dashoffset: 0; stroke: #b0b0b0; stroke-width: 0.8"/>
     </g>
     <g id="line2d_24">
      <defs>
       <path id="m58e5b1219b" d="M 0 0 
L -3.5 0 
" style="stroke: #a9a9a9; stroke-width: 0.8"/>
      </defs>
      <g>
       <use xlink:href="#m58e5b1219b" x="108" y="307.846989" style="fill: #a9a9a9; stroke: #a9a9a9; stroke-width: 0.8"/>
      </g>
     </g>
     <g id="text_12">
      <!-- 0 -->
      <g style="fill: #a9a9a9" transform="translate(94.6375 311.646207) scale(0.1 -0.1)">
       <use xlink:href="#DejaVuSans-30"/>
      </g>
     </g>
    </g>
    <g id="ytick_2">
     <g id="line2d_25">
      <path d="M 108 279.653813 
L 777.6 279.653813 
" clip-path="url(#p5835968aef)" style="fill: none; stroke-dasharray: 5.12,1.28,0.8,1.28; stroke-dashoffset: 0; stroke: #b0b0b0; stroke-width: 0.8"/>
     </g>
     <g id="line2d_26">
      <g>
       <use xlink:href="#m58e5b1219b" x="108" y="279.653813" style="fill: #a9a9a9; stroke: #a9a9a9; stroke-width: 0.8"/>
      </g>
     </g>
     <g id="text_13">
      <!-- 600 -->
      <g style="fill: #a9a9a9" transform="translate(81.9125 283.453032) scale(0.1 -0.1)">
       <defs>
        <path id="DejaVuSans-36" d="M 2113 2584 
Q 1688 2584 1439 2293 
Q 1191 2003 1191 1497 
Q 1191 994 1439 701 
Q 1688 409 2113 409 
Q 2538 409 2786 701 
Q 3034 994 3034 1497 
Q 3034 2003 2786 2293 
Q 2538 2584 2113 2584 
z
M 3366 4563 
L 3366 3988 
Q 3128 4100 2886 4159 
Q 2644 4219 2406 4219 
Q 1781 4219 1451 3797 
Q 1122 3375 1075 2522 
Q 1259 2794 1537 2939 
Q 1816 3084 2150 3084 
Q 2853 3084 3261 2657 
Q 3669 2231 3669 1497 
Q 3669 778 3244 343 
Q 2819 -91 2113 -91 
Q 1303 -91 875 529 
Q 447 1150 447 2328 
Q 447 3434 972 4092 
Q 1497 4750 2381 4750 
Q 2619 4750 2861 4703 
Q 3103 4656 3366 4563 
z
" transform="scale(0.015625)"/>
       </defs>
       <use xlink:href="#DejaVuSans-36"/>
       <use xlink:href="#DejaVuSans-30" x="63.623047"/>
       <use xlink:href="#DejaVuSans-30" x="127.246094"/>
      </g>
     </g>
    </g>
    <g id="ytick_3">
     <g id="line2d_27">
      <path d="M 108 251.460638 
L 777.6 251.460638 
" clip-path="url(#p5835968aef)" style="fill: none; stroke-dasharray: 5.12,1.28,0.8,1.28; stroke-dashoffset: 0; stroke: #b0b0b0; stroke-width: 0.8"/>
     </g>
     <g id="line2d_28">
      <g>
       <use xlink:href="#m58e5b1219b" x="108" y="251.460638" style="fill: #a9a9a9; stroke: #a9a9a9; stroke-width: 0.8"/>
      </g>
     </g>
     <g id="text_14">
      <!-- 1200 -->
      <g style="fill: #a9a9a9" transform="translate(75.55 255.259856) scale(0.1 -0.1)">
       <use xlink:href="#DejaVuSans-31"/>
       <use xlink:href="#DejaVuSans-32" x="63.623047"/>
       <use xlink:href="#DejaVuSans-30" x="127.246094"/>
       <use xlink:href="#DejaVuSans-30" x="190.869141"/>
      </g>
     </g>
    </g>
    <g id="ytick_4">
     <g id="line2d_29">
      <path d="M 108 223.267462 
L 777.6 223.267462 
" clip-path="url(#p5835968aef)" style="fill: none; stroke-dasharray: 5.12,1.28,0.8,1.28; stroke-dashoffset: 0; stroke: #b0b0b0; stroke-width: 0.8"/>
     </g>
     <g id="line2d_30">
      <g>
       <use xlink:href="#m58e5b1219b" x="108" y="223.267462" style="fill: #a9a9a9; stroke: #a9a9a9; stroke-width: 0.8"/>
      </g>
     </g>
     <g id="text_15">
      <!-- 1800 -->
      <g style="fill: #a9a9a9" transform="translate(75.55 227.066681) scale(0.1 -0.1)">
       <defs>
        <path id="DejaVuSans-38" d="M 2034 2216 
Q 1584 2216 1326 1975 
Q 1069 1734 1069 1313 
Q 1069 891 1326 650 
Q 1584 409 2034 409 
Q 2484 409 2743 651 
Q 3003 894 3003 1313 
Q 3003 1734 2745 1975 
Q 2488 2216 2034 2216 
z
M 1403 2484 
Q 997 2584 770 2862 
Q 544 3141 544 3541 
Q 544 4100 942 4425 
Q 1341 4750 2034 4750 
Q 2731 4750 3128 4425 
Q 3525 4100 3525 3541 
Q 3525 3141 3298 2862 
Q 3072 2584 2669 2484 
Q 3125 2378 3379 2068 
Q 3634 1759 3634 1313 
Q 3634 634 3220 271 
Q 2806 -91 2034 -91 
Q 1263 -91 848 271 
Q 434 634 434 1313 
Q 434 1759 690 2068 
Q 947 2378 1403 2484 
z
M 1172 3481 
Q 1172 3119 1398 2916 
Q 1625 2713 2034 2713 
Q 2441 2713 2670 2916 
Q 2900 3119 2900 3481 
Q 2900 3844 2670 4047 
Q 2441 4250 2034 4250 
Q 1625 4250 1398 4047 
Q 1172 3844 1172 3481 
z
" transform="scale(0.015625)"/>
       </defs>
       <use xlink:href="#DejaVuSans-31"/>
       <use xlink:href="#DejaVuSans-38" x="63.623047"/>
       <use xlink:href="#DejaVuSans-30" x="127.246094"/>
       <use xlink:href="#DejaVuSans-30" x="190.869141"/>
      </g>
     </g>
    </g>
    <g id="ytick_5">
     <g id="line2d_31">
      <path d="M 108 195.074287 
L 777.6 195.074287 
" clip-path="url(#p5835968aef)" style="fill: none; stroke-dasharray: 5.12,1.28,0.8,1.28; stroke-dashoffset: 0; stroke: #b0b0b0; stroke-width: 0.8"/>
     </g>
     <g id="line2d_32">
      <g>
       <use xlink:href="#m58e5b1219b" x="108" y="195.074287" style="fill: #a9a9a9; stroke: #a9a9a9; stroke-width: 0.8"/>
      </g>
     </g>
     <g id="text_16">
      <!-- 2400 -->
      <g style="fill: #a9a9a9" transform="translate(75.55 198.873506) scale(0.1 -0.1)">
       <use xlink:href="#DejaVuSans-32"/>
       <use xlink:href="#DejaVuSans-34" x="63.623047"/>
       <use xlink:href="#DejaVuSans-30" x="127.246094"/>
       <use xlink:href="#DejaVuSans-30" x="190.869141"/>
      </g>
     </g>
    </g>
    <g id="ytick_6">
     <g id="line2d_33">
      <path d="M 108 166.881111 
L 777.6 166.881111 
" clip-path="url(#p5835968aef)" style="fill: none; stroke-dasharray: 5.12,1.28,0.8,1.28; stroke-dashoffset: 0; stroke: #b0b0b0; stroke-width: 0.8"/>
     </g>
     <g id="line2d_34">
      <g>
       <use xlink:href="#m58e5b1219b" x="108" y="166.881111" style="fill: #a9a9a9; stroke: #a9a9a9; stroke-width: 0.8"/>
      </g>
     </g>
     <g id="text_17">
      <!-- 3000 -->
      <g style="fill: #a9a9a9" transform="translate(75.55 170.68033) scale(0.1 -0.1)">
       <use xlink:href="#DejaVuSans-33"/>
       <use xlink:href="#DejaVuSans-30" x="63.623047"/>
       <use xlink:href="#DejaVuSans-30" x="127.246094"/>
       <use xlink:href="#DejaVuSans-30" x="190.869141"/>
      </g>
     </g>
    </g>
    <g id="ytick_7">
     <g id="line2d_35">
      <path d="M 108 138.687936 
L 777.6 138.687936 
" clip-path="url(#p5835968aef)" style="fill: none; stroke-dasharray: 5.12,1.28,0.8,1.28; stroke-dashoffset: 0; stroke: #b0b0b0; stroke-width: 0.8"/>
     </g>
     <g id="line2d_36">
      <g>
       <use xlink:href="#m58e5b1219b" x="108" y="138.687936" style="fill: #a9a9a9; stroke: #a9a9a9; stroke-width: 0.8"/>
      </g>
     </g>
     <g id="text_18">
      <!-- 3600 -->
      <g style="fill: #a9a9a9" transform="translate(75.55 142.487155) scale(0.1 -0.1)">
       <use xlink:href="#DejaVuSans-33"/>
       <use xlink:href="#DejaVuSans-36" x="63.623047"/>
       <use xlink:href="#DejaVuSans-30" x="127.246094"/>
       <use xlink:href="#DejaVuSans-30" x="190.869141"/>
      </g>
     </g>
    </g>
    <g id="ytick_8">
     <g id="line2d_37">
      <path d="M 108 110.49476 
L 777.6 110.49476 
" clip-path="url(#p5835968aef)" style="fill: none; stroke-dasharray: 5.12,1.28,0.8,1.28; stroke-dashoffset: 0; stroke: #b0b0b0; stroke-width: 0.8"/>
     </g>
     <g id="line2d_38">
      <g>
       <use xlink:href="#m58e5b1219b" x="108" y="110.49476" style="fill: #a9a9a9; stroke: #a9a9a9; stroke-width: 0.8"/>
      </g>
     </g>
     <g id="text_19">
      <!-- 4200 -->
      <g style="fill: #a9a9a9" transform="translate(75.55 114.293979) scale(0.1 -0.1)">
       <use xlink:href="#DejaVuSans-34"/>
       <use xlink:href="#DejaVuSans-32" x="63.623047"/>
       <use xlink:href="#DejaVuSans-30" x="127.246094"/>
       <use xlink:href="#DejaVuSans-30" x="190.869141"/>
      </g>
     </g>
    </g>
    <g id="ytick_9">
     <g id="line2d_39">
      <path d="M 108 82.301585 
L 777.6 82.301585 
" clip-path="url(#p5835968aef)" style="fill: none; stroke-dasharray: 5.12,1.28,0.8,1.28; stroke-dashoffset: 0; stroke: #b0b0b0; stroke-width: 0.8"/>
     </g>
     <g id="line2d_40">
      <g>
       <use xlink:href="#m58e5b1219b" x="108" y="82.301585" style="fill: #a9a9a9; stroke: #a9a9a9; stroke-width: 0.8"/>
      </g>
     </g>
     <g id="text_20">
      <!-- 4800 -->
      <g style="fill: #a9a9a9" transform="translate(75.55 86.100804) scale(0.1 -0.1)">
       <use xlink:href="#DejaVuSans-34"/>
       <use xlink:href="#DejaVuSans-38" x="63.623047"/>
       <use xlink:href="#DejaVuSans-30" x="127.246094"/>
       <use xlink:href="#DejaVuSans-30" x="190.869141"/>
      </g>
     </g>
    </g>
    <g id="ytick_10">
     <g id="line2d_41">
      <path d="M 108 54.108409 
L 777.6 54.108409 
" clip-path="url(#p5835968aef)" style="fill: none; stroke-dasharray: 5.12,1.28,0.8,1.28; stroke-dashoffset: 0; stroke: #b0b0b0; stroke-width: 0.8"/>
     </g>
     <g id="line2d_42">
      <g>
       <use xlink:href="#m58e5b1219b" x="108" y="54.108409" style="fill: #a9a9a9; stroke: #a9a9a9; stroke-width: 0.8"/>
      </g>
     </g>
     <g id="text_21">
      <!-- 5400 -->
      <g style="fill: #a9a9a9" transform="translate(75.55 57.907628) scale(0.1 -0.1)">
       <defs>
        <path id="DejaVuSans-35" d="M 691 4666 
L 3169 4666 
L 3169 4134 
L 1269 4134 
L 1269 2991 
Q 1406 3038 1543 3061 
Q 1681 3084 1819 3084 
Q 2600 3084 3056 2656 
Q 3513 2228 3513 1497 
Q 3513 744 3044 326 
Q 2575 -91 1722 -91 
Q 1428 -91 1123 -41 
Q 819 9 494 109 
L 494 744 
Q 775 591 1075 516 
Q 1375 441 1709 441 
Q 2250 441 2565 725 
Q 2881 1009 2881 1497 
Q 2881 1984 2565 2268 
Q 2250 2553 1709 2553 
Q 1456 2553 1204 2497 
Q 953 2441 691 2322 
L 691 4666 
z
" transform="scale(0.015625)"/>
       </defs>
       <use xlink:href="#DejaVuSans-35"/>
       <use xlink:href="#DejaVuSans-34" x="63.623047"/>
       <use xlink:href="#DejaVuSans-30" x="127.246094"/>
       <use xlink:href="#DejaVuSans-30" x="190.869141"/>
      </g>
     </g>
    </g>
   </g>
   <g id="line2d_43">
    <path d="M 138.436364 307.706023 
L 142.563328 307.377102 
L 143.251156 307.095171 
L 145.314638 306.860227 
L 150.12943 305.967444 
L 153.568567 305.638523 
L 154.256394 305.309603 
L 154.944222 305.121648 
L 155.632049 304.275853 
L 156.319877 303.805967 
L 157.007704 302.349319 
L 157.695532 302.255342 
L 158.383359 301.738467 
L 159.759014 301.080627 
L 161.134669 300.046877 
L 161.822496 299.389036 
L 163.198151 298.731195 
L 163.885978 298.449263 
L 164.573806 297.932389 
L 167.325116 296.757673 
L 168.012943 295.676935 
L 169.388598 294.690173 
L 170.076425 294.361253 
L 176.9547 293.421481 
L 177.642527 293.09256 
L 182.457319 292.716651 
L 183.832974 292.340742 
L 185.208629 292.05881 
L 190.711248 291.353981 
L 191.399076 290.978072 
L 192.086903 290.884095 
L 192.77473 290.602163 
L 194.150385 290.36722 
L 194.838213 290.320231 
L 195.52604 290.085288 
L 198.27735 289.66239 
L 199.653005 289.286481 
L 201.716487 289.098527 
L 203.092142 288.957561 
L 203.779969 288.769607 
L 204.467797 288.722618 
L 206.531279 288.111766 
L 210.658243 287.500914 
L 211.346071 287.312959 
L 212.033898 286.373187 
L 214.097381 285.621369 
L 216.160863 285.057505 
L 216.84869 284.728585 
L 217.536518 284.681596 
L 220.975655 283.741824 
L 222.35131 283.647846 
L 223.039137 283.553869 
L 225.102619 282.943017 
L 227.853929 282.285176 
L 228.541757 282.003244 
L 229.229584 281.909267 
L 229.917411 281.580347 
L 236.795686 280.546597 
L 240.234823 279.559836 
L 240.92265 279.136938 
L 243.67396 278.38512 
L 245.049615 277.586314 
L 245.737442 277.116427 
L 246.42527 277.02245 
L 247.113097 276.787507 
L 249.176579 276.411598 
L 249.864407 276.082678 
L 251.240062 275.847734 
L 251.927889 275.471825 
L 253.303544 275.048928 
L 253.991371 274.954951 
L 255.367026 274.579042 
L 256.742681 274.250121 
L 257.430508 274.156144 
L 258.806163 273.59228 
L 259.493991 273.451315 
L 260.181818 273.169383 
L 260.869646 273.075406 
L 261.557473 272.746485 
L 262.2453 272.558531 
L 263.620955 272.464553 
L 264.99661 271.994667 
L 266.372265 271.90069 
L 267.060092 271.57177 
L 269.811402 271.101883 
L 272.562712 270.86694 
L 273.250539 270.725974 
L 274.626194 270.068134 
L 282.192296 266.919896 
L 282.880123 266.543987 
L 283.567951 265.792169 
L 284.255778 264.664442 
L 284.943606 263.771658 
L 285.631433 263.583703 
L 286.31926 263.583703 
L 287.694915 262.596942 
L 288.382743 262.408988 
L 289.07057 262.033079 
L 289.758398 261.892113 
L 290.446225 261.28126 
L 291.134052 261.093306 
L 293.197535 260.106545 
L 293.885362 259.26075 
L 294.57319 258.227 
L 295.261017 257.804102 
L 295.948844 256.676375 
L 296.636672 255.971546 
L 297.324499 255.642625 
L 298.012327 255.454671 
L 299.387982 254.655864 
L 300.075809 254.326944 
L 302.827119 252.306433 
L 303.514946 251.319672 
L 304.202773 249.769047 
L 304.890601 248.782286 
L 305.578428 248.265411 
L 306.266256 247.983479 
L 309.017565 245.634048 
L 309.705393 245.164162 
L 311.081048 243.989446 
L 311.768875 243.049674 
L 313.14453 241.874958 
L 315.89584 240.136379 
L 316.583667 239.525527 
L 317.271495 239.384561 
L 319.334977 238.303822 
L 321.398459 237.270073 
L 322.774114 236.00138 
L 323.461941 235.202573 
L 324.837596 234.262801 
L 325.525424 234.074846 
L 326.213251 233.745926 
L 326.901079 233.229051 
L 328.276733 232.477233 
L 328.964561 232.383256 
L 330.340216 231.631438 
L 331.028043 231.255529 
L 331.715871 230.550699 
L 332.403698 230.127802 
L 333.091525 229.892858 
L 333.779353 229.422972 
L 336.530663 228.013313 
L 337.21849 227.402461 
L 339.9698 226.462689 
L 340.657627 225.992803 
L 341.345455 225.851837 
L 342.721109 225.38195 
L 344.784592 224.583144 
L 346.848074 223.831326 
L 348.223729 223.596383 
L 349.599384 222.421667 
L 350.975039 221.763826 
L 353.038521 220.589111 
L 354.414176 220.213202 
L 355.102003 219.790304 
L 355.789831 219.602349 
L 357.165485 218.709566 
L 357.853313 218.333657 
L 361.29245 217.53485 
L 363.355932 216.360134 
L 364.04376 216.266157 
L 364.731587 216.031214 
L 366.107242 215.749282 
L 368.170724 214.245646 
L 370.234206 213.77576 
L 370.922034 213.540817 
L 371.609861 213.023942 
L 375.736826 211.70826 
L 376.424653 211.661272 
L 381.239445 209.969681 
L 381.927273 209.640761 
L 383.990755 209.170875 
L 385.36641 208.841954 
L 386.054237 208.513034 
L 386.742065 208.372068 
L 388.805547 207.432295 
L 390.869029 206.445534 
L 391.556857 205.975648 
L 392.244684 205.787693 
L 394.308166 204.706955 
L 395.683821 204.378035 
L 397.059476 203.673205 
L 398.435131 203.297296 
L 399.122958 203.203319 
L 399.810786 202.733433 
L 400.498613 202.404512 
L 401.186441 202.263547 
L 402.562096 201.699683 
L 403.249923 201.558717 
L 403.93775 201.182808 
L 406.68906 200.75991 
L 408.064715 200.10207 
L 408.752542 199.538206 
L 409.44037 198.363491 
L 410.816025 198.081559 
L 411.503852 197.940593 
L 414.255162 196.530934 
L 414.942989 196.389968 
L 420.445609 193.758605 
L 422.509091 193.335708 
L 423.884746 192.677867 
L 424.572573 192.395935 
L 425.260401 192.301958 
L 428.01171 191.080254 
L 429.387365 190.140481 
L 430.075193 189.811561 
L 430.76302 189.717583 
L 431.450847 189.48264 
L 432.138675 189.435652 
L 435.577812 188.542868 
L 436.265639 188.025993 
L 437.641294 187.556107 
L 439.704777 186.898266 
L 440.392604 186.475368 
L 441.080431 186.287414 
L 441.768259 185.817528 
L 442.456086 185.535596 
L 443.143914 185.112698 
L 444.519569 184.642812 
L 446.583051 183.984971 
L 447.270878 183.656051 
L 447.958706 183.139176 
L 448.646533 182.434346 
L 449.334361 182.011449 
L 450.022188 181.870483 
L 451.397843 180.836733 
L 452.08567 180.695767 
L 452.773498 179.662018 
L 453.461325 179.380086 
L 454.149153 178.863211 
L 454.83698 178.769234 
L 455.524807 178.299347 
L 456.212635 177.970427 
L 456.900462 177.829461 
L 457.58829 177.547529 
L 458.276117 177.030654 
L 458.963945 176.795711 
L 461.027427 175.433041 
L 463.778737 174.070371 
L 464.466564 173.976394 
L 465.842219 173.365542 
L 466.530046 172.989633 
L 467.217874 171.861906 
L 467.905701 171.251054 
L 468.593529 170.875145 
L 469.281356 170.734179 
L 470.657011 169.888383 
L 471.344838 169.747417 
L 472.720493 169.089577 
L 474.783975 168.243781 
L 476.15963 167.304009 
L 477.535285 165.89435 
L 478.91094 165.048555 
L 479.598767 164.625657 
L 480.286595 163.920828 
L 480.974422 163.450942 
L 482.350077 162.323215 
L 483.037904 162.041283 
L 483.725732 161.289465 
L 484.413559 160.77259 
L 485.789214 160.302704 
L 486.477042 159.73884 
L 487.852696 159.034011 
L 488.540524 158.846056 
L 489.228351 158.37617 
L 489.916179 158.188216 
L 491.979661 157.107477 
L 492.667488 156.590602 
L 494.043143 156.026739 
L 494.730971 155.885773 
L 495.418798 155.462875 
L 498.857935 154.382137 
L 499.545763 154.194182 
L 500.23359 153.865262 
L 500.921418 153.25441 
L 502.9849 152.502592 
L 504.360555 152.079694 
L 505.048382 151.562819 
L 507.111864 150.623047 
L 507.799692 150.106172 
L 508.487519 149.730263 
L 509.863174 147.051911 
L 511.238829 145.454298 
L 511.926656 144.984412 
L 513.990139 144.091628 
L 514.677966 143.856685 
L 515.365794 143.762707 
L 516.053621 143.386798 
L 518.117103 142.775946 
L 520.180586 141.97714 
L 521.55624 141.084356 
L 522.931895 140.61447 
L 527.05886 138.265038 
L 527.746687 137.560209 
L 529.122342 136.808391 
L 529.810169 136.432482 
L 530.497997 136.197539 
L 531.185824 135.727652 
L 532.561479 135.069812 
L 534.624961 133.989073 
L 535.312789 133.801119 
L 536.000616 133.284244 
L 536.688444 133.002312 
L 537.376271 132.861346 
L 539.439753 132.109528 
L 540.127581 131.921574 
L 540.815408 131.592653 
L 541.503236 131.075778 
L 542.878891 130.699869 
L 544.254545 130.182995 
L 544.942373 129.619131 
L 546.318028 129.196233 
L 547.005855 128.867313 
L 547.693683 128.679359 
L 549.069337 127.739586 
L 550.444992 127.128734 
L 551.820647 126.094984 
L 553.196302 125.625098 
L 553.884129 125.061234 
L 554.571957 124.967257 
L 555.947612 123.980496 
L 557.323267 123.322655 
L 558.011094 123.040723 
L 558.698921 122.335894 
L 562.825886 120.832258 
L 564.889368 119.939474 
L 566.952851 119.328622 
L 568.328505 119.140668 
L 569.016333 118.858736 
L 569.70416 118.71777 
L 571.079815 118.153906 
L 571.767643 118.106918 
L 574.518952 117.120157 
L 576.582435 115.710498 
L 580.709399 113.689987 
L 582.772881 112.374305 
L 584.148536 112.045385 
L 585.524191 111.105613 
L 588.275501 110.259817 
L 588.963328 109.977886 
L 590.338983 109.648965 
L 593.77812 108.521238 
L 595.841602 108.145329 
L 596.52943 107.957375 
L 597.217257 107.628454 
L 597.905085 107.534477 
L 599.28074 106.970613 
L 599.968567 106.876636 
L 600.656394 106.547716 
L 602.032049 106.265784 
L 602.719877 105.936864 
L 604.783359 105.466977 
L 606.159014 105.185046 
L 610.285978 104.433228 
L 611.661633 104.151296 
L 612.349461 104.01033 
L 613.037288 103.728398 
L 613.725116 103.68141 
L 615.788598 103.117546 
L 616.476425 102.741637 
L 619.915562 101.895842 
L 620.60339 101.754876 
L 621.979045 101.28499 
L 625.418182 100.204251 
L 626.106009 100.063285 
L 626.793837 99.734365 
L 627.481664 99.734365 
L 628.857319 99.264479 
L 629.545146 98.606638 
L 630.232974 98.277718 
L 631.608629 97.85482 
L 634.359938 96.82107 
L 635.047766 96.680104 
L 635.735593 96.257207 
L 636.423421 96.116241 
L 637.111248 95.693343 
L 640.550385 94.659594 
L 641.238213 94.236696 
L 641.92604 94.048741 
L 642.613867 93.484878 
L 644.67735 93.108969 
L 646.053005 92.357151 
L 646.740832 91.605333 
L 648.116487 91.323401 
L 652.243451 90.383629 
L 653.619106 90.00772 
L 654.994761 89.960731 
L 655.682589 89.631811 
L 658.433898 89.161924 
L 659.121726 88.833004 
L 661.185208 88.551072 
L 663.936518 87.705277 
L 666 87.235391 
L 668.063482 86.718516 
L 670.814792 85.87272 
L 671.502619 85.731755 
L 672.190447 85.402834 
L 672.878274 85.308857 
L 673.566102 85.073914 
L 674.253929 84.651016 
L 676.317411 83.899198 
L 677.005239 83.382323 
L 678.380894 83.006414 
L 679.068721 82.724483 
L 680.444376 82.348574 
L 683.195686 81.079881 
L 685.259168 80.938915 
L 688.010478 80.09312 
L 688.698305 79.670222 
L 690.07396 79.247324 
L 692.137442 78.213574 
L 692.82527 78.072609 
L 693.513097 77.743688 
L 694.200924 77.649711 
L 701.767026 75.112325 
L 704.518336 74.454484 
L 705.206163 74.26653 
L 706.581818 73.608689 
L 708.6453 73.091814 
L 709.333128 72.574939 
L 710.020955 72.246019 
L 710.708783 71.447212 
L 711.39661 70.930337 
L 712.772265 70.50744 
L 713.460092 69.943576 
L 721.026194 66.889316 
L 722.401849 66.560395 
L 723.777504 65.949543 
L 725.840986 64.727839 
L 726.528814 64.586873 
L 727.216641 64.069998 
L 728.592296 63.412157 
L 729.967951 62.566362 
L 732.031433 61.62659 
L 732.71926 61.156703 
L 734.094915 60.639828 
L 734.782743 60.169942 
L 736.158398 59.512101 
L 736.846225 59.042215 
L 738.22188 58.572329 
L 738.909707 58.431363 
L 741.661017 57.209659 
L 745.100154 56.034943 
L 745.787982 55.987955 
L 746.475809 55.8 
L 747.163636 55.8 
L 747.163636 55.8 
" clip-path="url(#p5835968aef)" style="fill: none; stroke: #1f77b4; stroke-width: 1.5; stroke-linecap: square"/>
   </g>
   <g id="line2d_44">
    <path d="M 139.124191 307.8 
L 141.187673 307.706023 
L 143.251156 307.659034 
L 147.37812 307.565057 
L 150.817257 307.424091 
L 153.568567 307.424091 
L 154.256394 307.236136 
L 157.007704 307.142159 
L 159.071186 306.907216 
L 161.134669 306.719262 
L 170.764253 306.155398 
L 176.266872 306.061421 
L 179.706009 305.920455 
L 187.959938 305.826478 
L 191.399076 305.685512 
L 195.52604 305.591535 
L 198.27735 305.497557 
L 204.467797 305.40358 
L 206.531279 305.356591 
L 208.594761 305.309603 
L 210.658243 305.07466 
L 214.785208 305.027671 
L 216.160863 304.933694 
L 220.975655 304.839717 
L 228.541757 304.416819 
L 233.356549 304.322842 
L 234.732203 304.228864 
L 236.795686 304.134887 
L 240.92265 303.946933 
L 243.67396 303.899944 
L 245.737442 303.71199 
L 256.742681 303.054149 
L 259.493991 302.960172 
L 264.308783 302.725228 
L 266.372265 302.631251 
L 273.250539 302.255342 
L 280.816641 302.161365 
L 283.567951 301.879433 
L 284.943606 301.785456 
L 293.885362 301.080627 
L 298.012327 300.563752 
L 300.763636 300.469774 
L 306.266256 299.764945 
L 309.705393 299.670968 
L 318.647149 298.966138 
L 322.774114 298.496252 
L 324.837596 298.449263 
L 326.213251 298.355286 
L 328.964561 298.261309 
L 330.340216 298.167332 
L 333.779353 297.838411 
L 334.46718 297.650457 
L 338.594145 297.462502 
L 342.033282 297.368525 
L 350.975039 296.85165 
L 353.038521 296.757673 
L 361.980277 296.240798 
L 366.795069 296.146821 
L 367.482897 296.005855 
L 372.985516 295.911878 
L 377.800308 295.676935 
L 385.36641 295.582957 
L 390.181202 295.348014 
L 395.683821 295.254037 
L 401.874268 294.925117 
L 406.001233 294.831139 
L 419.069954 294.032333 
L 424.572573 293.938355 
L 428.01171 293.609435 
L 429.387365 293.468469 
L 432.826502 293.421481 
L 435.577812 293.139549 
L 442.456086 292.76364 
L 446.583051 292.669663 
L 448.646533 292.622674 
L 450.710015 292.575685 
L 452.773498 292.387731 
L 458.276117 292.293753 
L 459.651772 292.05881 
L 461.027427 291.964833 
L 463.778737 291.870856 
L 465.842219 291.776879 
L 467.217874 291.682901 
L 473.40832 291.588924 
L 474.783975 291.447958 
L 477.535285 291.353981 
L 478.223112 291.213015 
L 479.598767 291.166026 
L 480.286595 291.025061 
L 482.350077 290.931083 
L 494.043143 290.226254 
L 496.106626 290.132277 
L 499.545763 289.991311 
L 509.175347 289.897334 
L 513.990139 289.66239 
L 519.492758 289.568413 
L 522.244068 289.474436 
L 524.995378 289.427447 
L 526.371032 289.286481 
L 529.122342 289.192504 
L 536.000616 288.816595 
L 540.127581 288.769607 
L 542.191063 288.581652 
L 544.254545 288.534663 
L 549.069337 288.440686 
L 551.820647 288.346709 
L 560.074576 288.252732 
L 563.513713 288.111766 
L 567.640678 288.017789 
L 569.70416 287.782845 
L 573.831125 287.735857 
L 574.518952 287.594891 
L 575.894607 287.500914 
L 578.645917 287.406936 
L 586.899846 287.312959 
L 590.338983 287.171993 
L 602.032049 287.125005 
L 603.407704 287.031027 
L 605.471186 286.984039 
L 614.412943 286.890062 
L 615.788598 286.796084 
L 623.3547 286.702107 
L 626.106009 286.60813 
L 634.359938 286.561141 
L 635.735593 286.467164 
L 646.053005 286.420175 
L 648.116487 286.232221 
L 659.809553 286.138244 
L 661.873035 286.091255 
L 679.756549 285.997278 
L 682.507858 285.9033 
L 694.888752 285.809323 
L 696.264407 285.668357 
L 702.454854 285.57438 
L 710.020955 285.151482 
L 714.14792 285.057505 
L 716.89923 284.963528 
L 720.338367 284.916539 
L 721.714022 284.822562 
L 727.216641 284.728585 
L 732.71926 284.446653 
L 734.782743 284.399664 
L 736.158398 284.258698 
L 738.22188 284.21171 
L 740.285362 284.023755 
L 744.412327 283.929778 
L 747.163636 283.835801 
L 747.163636 283.835801 
" clip-path="url(#p5835968aef)" style="fill: none; stroke: #ff7f0e; stroke-width: 1.5; stroke-linecap: square"/>
   </g>
   <g id="patch_3">
    <path d="M 108 320.4 
L 108 43.2 
" style="fill: none; stroke: #a9a9a9; stroke-width: 0.8; stroke-linejoin: miter; stroke-linecap: square"/>
   </g>
   <g id="patch_4">
    <path d="M 777.6 320.4 
L 777.6 43.2 
" style="fill: none"/>
   </g>
   <g id="patch_5">
    <path d="M 108 320.4 
L 777.6 320.4 
" style="fill: none; stroke: #a9a9a9; stroke-width: 0.8; stroke-linejoin: miter; stroke-linecap: square"/>
   </g>
   <g id="patch_6">
    <path d="M 108 43.2 
L 777.6 43.2 
" style="fill: none"/>
   </g>
   <g id="text_22">
    <!-- get_subscribe history -->
    <g style="fill: #a9a9a9" transform="translate(378.6075 37.2) scale(0.12 -0.12)">
     <defs>
      <path id="DejaVuSans-67" d="M 2906 1791 
Q 2906 2416 2648 2759 
Q 2391 3103 1925 3103 
Q 1463 3103 1205 2759 
Q 947 2416 947 1791 
Q 947 1169 1205 825 
Q 1463 481 1925 481 
Q 2391 481 2648 825 
Q 2906 1169 2906 1791 
z
M 3481 434 
Q 3481 -459 3084 -895 
Q 2688 -1331 1869 -1331 
Q 1566 -1331 1297 -1286 
Q 1028 -1241 775 -1147 
L 775 -588 
Q 1028 -725 1275 -790 
Q 1522 -856 1778 -856 
Q 2344 -856 2625 -561 
Q 2906 -266 2906 331 
L 2906 616 
Q 2728 306 2450 153 
Q 2172 0 1784 0 
Q 1141 0 747 490 
Q 353 981 353 1791 
Q 353 2603 747 3093 
Q 1141 3584 1784 3584 
Q 2172 3584 2450 3431 
Q 2728 3278 2906 2969 
L 2906 3500 
L 3481 3500 
L 3481 434 
z
" transform="scale(0.015625)"/>
      <path id="DejaVuSans-65" d="M 3597 1894 
L 3597 1613 
L 953 1613 
Q 991 1019 1311 708 
Q 1631 397 2203 397 
Q 2534 397 2845 478 
Q 3156 559 3463 722 
L 3463 178 
Q 3153 47 2828 -22 
Q 2503 -91 2169 -91 
Q 1331 -91 842 396 
Q 353 884 353 1716 
Q 353 2575 817 3079 
Q 1281 3584 2069 3584 
Q 2775 3584 3186 3129 
Q 3597 2675 3597 1894 
z
M 3022 2063 
Q 3016 2534 2758 2815 
Q 2500 3097 2075 3097 
Q 1594 3097 1305 2825 
Q 1016 2553 972 2059 
L 3022 2063 
z
" transform="scale(0.015625)"/>
      <path id="DejaVuSans-74" d="M 1172 4494 
L 1172 3500 
L 2356 3500 
L 2356 3053 
L 1172 3053 
L 1172 1153 
Q 1172 725 1289 603 
Q 1406 481 1766 481 
L 2356 481 
L 2356 0 
L 1766 0 
Q 1100 0 847 248 
Q 594 497 594 1153 
L 594 3053 
L 172 3053 
L 172 3500 
L 594 3500 
L 594 4494 
L 1172 4494 
z
" transform="scale(0.015625)"/>
      <path id="DejaVuSans-5f" d="M 3263 -1063 
L 3263 -1509 
L -63 -1509 
L -63 -1063 
L 3263 -1063 
z
" transform="scale(0.015625)"/>
      <path id="DejaVuSans-73" d="M 2834 3397 
L 2834 2853 
Q 2591 2978 2328 3040 
Q 2066 3103 1784 3103 
Q 1356 3103 1142 2972 
Q 928 2841 928 2578 
Q 928 2378 1081 2264 
Q 1234 2150 1697 2047 
L 1894 2003 
Q 2506 1872 2764 1633 
Q 3022 1394 3022 966 
Q 3022 478 2636 193 
Q 2250 -91 1575 -91 
Q 1294 -91 989 -36 
Q 684 19 347 128 
L 347 722 
Q 666 556 975 473 
Q 1284 391 1588 391 
Q 1994 391 2212 530 
Q 2431 669 2431 922 
Q 2431 1156 2273 1281 
Q 2116 1406 1581 1522 
L 1381 1569 
Q 847 1681 609 1914 
Q 372 2147 372 2553 
Q 372 3047 722 3315 
Q 1072 3584 1716 3584 
Q 2034 3584 2315 3537 
Q 2597 3491 2834 3397 
z
" transform="scale(0.015625)"/>
      <path id="DejaVuSans-75" d="M 544 1381 
L 544 3500 
L 1119 3500 
L 1119 1403 
Q 1119 906 1312 657 
Q 1506 409 1894 409 
Q 2359 409 2629 706 
Q 2900 1003 2900 1516 
L 2900 3500 
L 3475 3500 
L 3475 0 
L 2900 0 
L 2900 538 
Q 2691 219 2414 64 
Q 2138 -91 1772 -91 
Q 1169 -91 856 284 
Q 544 659 544 1381 
z
M 1991 3584 
L 1991 3584 
z
" transform="scale(0.015625)"/>
      <path id="DejaVuSans-62" d="M 3116 1747 
Q 3116 2381 2855 2742 
Q 2594 3103 2138 3103 
Q 1681 3103 1420 2742 
Q 1159 2381 1159 1747 
Q 1159 1113 1420 752 
Q 1681 391 2138 391 
Q 2594 391 2855 752 
Q 3116 1113 3116 1747 
z
M 1159 2969 
Q 1341 3281 1617 3432 
Q 1894 3584 2278 3584 
Q 2916 3584 3314 3078 
Q 3713 2572 3713 1747 
Q 3713 922 3314 415 
Q 2916 -91 2278 -91 
Q 1894 -91 1617 61 
Q 1341 213 1159 525 
L 1159 0 
L 581 0 
L 581 4863 
L 1159 4863 
L 1159 2969 
z
" transform="scale(0.015625)"/>
      <path id="DejaVuSans-63" d="M 3122 3366 
L 3122 2828 
Q 2878 2963 2633 3030 
Q 2388 3097 2138 3097 
Q 1578 3097 1268 2742 
Q 959 2388 959 1747 
Q 959 1106 1268 751 
Q 1578 397 2138 397 
Q 2388 397 2633 464 
Q 2878 531 3122 666 
L 3122 134 
Q 2881 22 2623 -34 
Q 2366 -91 2075 -91 
Q 1284 -91 818 406 
Q 353 903 353 1747 
Q 353 2603 823 3093 
Q 1294 3584 2113 3584 
Q 2378 3584 2631 3529 
Q 2884 3475 3122 3366 
z
" transform="scale(0.015625)"/>
      <path id="DejaVuSans-72" d="M 2631 2963 
Q 2534 3019 2420 3045 
Q 2306 3072 2169 3072 
Q 1681 3072 1420 2755 
Q 1159 2438 1159 1844 
L 1159 0 
L 581 0 
L 581 3500 
L 1159 3500 
L 1159 2956 
Q 1341 3275 1631 3429 
Q 1922 3584 2338 3584 
Q 2397 3584 2469 3576 
Q 2541 3569 2628 3553 
L 2631 2963 
z
" transform="scale(0.015625)"/>
      <path id="DejaVuSans-69" d="M 603 3500 
L 1178 3500 
L 1178 0 
L 603 0 
L 603 3500 
z
M 603 4863 
L 1178 4863 
L 1178 4134 
L 603 4134 
L 603 4863 
z
" transform="scale(0.015625)"/>
      <path id="DejaVuSans-20" transform="scale(0.015625)"/>
      <path id="DejaVuSans-68" d="M 3513 2113 
L 3513 0 
L 2938 0 
L 2938 2094 
Q 2938 2591 2744 2837 
Q 2550 3084 2163 3084 
Q 1697 3084 1428 2787 
Q 1159 2491 1159 1978 
L 1159 0 
L 581 0 
L 581 4863 
L 1159 4863 
L 1159 2956 
Q 1366 3272 1645 3428 
Q 1925 3584 2291 3584 
Q 2894 3584 3203 3211 
Q 3513 2838 3513 2113 
z
" transform="scale(0.015625)"/>
      <path id="DejaVuSans-6f" d="M 1959 3097 
Q 1497 3097 1228 2736 
Q 959 2375 959 1747 
Q 959 1119 1226 758 
Q 1494 397 1959 397 
Q 2419 397 2687 759 
Q 2956 1122 2956 1747 
Q 2956 2369 2687 2733 
Q 2419 3097 1959 3097 
z
M 1959 3584 
Q 2709 3584 3137 3096 
Q 3566 2609 3566 1747 
Q 3566 888 3137 398 
Q 2709 -91 1959 -91 
Q 1206 -91 779 398 
Q 353 888 353 1747 
Q 353 2609 779 3096 
Q 1206 3584 1959 3584 
z
" transform="scale(0.015625)"/>
      <path id="DejaVuSans-79" d="M 2059 -325 
Q 1816 -950 1584 -1140 
Q 1353 -1331 966 -1331 
L 506 -1331 
L 506 -850 
L 844 -850 
Q 1081 -850 1212 -737 
Q 1344 -625 1503 -206 
L 1606 56 
L 191 3500 
L 800 3500 
L 1894 763 
L 2988 3500 
L 3597 3500 
L 2059 -325 
z
" transform="scale(0.015625)"/>
     </defs>
     <use xlink:href="#DejaVuSans-67"/>
     <use xlink:href="#DejaVuSans-65" x="63.476562"/>
     <use xlink:href="#DejaVuSans-74" x="125"/>
     <use xlink:href="#DejaVuSans-5f" x="164.208984"/>
     <use xlink:href="#DejaVuSans-73" x="214.208984"/>
     <use xlink:href="#DejaVuSans-75" x="266.308594"/>
     <use xlink:href="#DejaVuSans-62" x="329.6875"/>
     <use xlink:href="#DejaVuSans-73" x="393.164062"/>
     <use xlink:href="#DejaVuSans-63" x="445.263672"/>
     <use xlink:href="#DejaVuSans-72" x="500.244141"/>
     <use xlink:href="#DejaVuSans-69" x="541.357422"/>
     <use xlink:href="#DejaVuSans-62" x="569.140625"/>
     <use xlink:href="#DejaVuSans-65" x="632.617188"/>
     <use xlink:href="#DejaVuSans-20" x="694.140625"/>
     <use xlink:href="#DejaVuSans-68" x="725.927734"/>
     <use xlink:href="#DejaVuSans-69" x="789.306641"/>
     <use xlink:href="#DejaVuSans-73" x="817.089844"/>
     <use xlink:href="#DejaVuSans-74" x="869.189453"/>
     <use xlink:href="#DejaVuSans-6f" x="908.398438"/>
     <use xlink:href="#DejaVuSans-72" x="969.580078"/>
     <use xlink:href="#DejaVuSans-79" x="1010.693359"/>
    </g>
   </g>
   <g id="legend_1">
    <g id="line2d_45">
     <path d="M 815.08 328.498438 
L 825.08 328.498438 
L 835.08 328.498438 
" style="fill: none; stroke: #1f77b4; stroke-width: 1.5; stroke-linecap: square"/>
    </g>
    <g id="text_23">
     <!-- star -->
     <g style="fill: #a9a9a9" transform="translate(843.08 331.998438) scale(0.1 -0.1)">
      <defs>
       <path id="DejaVuSans-61" d="M 2194 1759 
Q 1497 1759 1228 1600 
Q 959 1441 959 1056 
Q 959 750 1161 570 
Q 1363 391 1709 391 
Q 2188 391 2477 730 
Q 2766 1069 2766 1631 
L 2766 1759 
L 2194 1759 
z
M 3341 1997 
L 3341 0 
L 2766 0 
L 2766 531 
Q 2569 213 2275 61 
Q 1981 -91 1556 -91 
Q 1019 -91 701 211 
Q 384 513 384 1019 
Q 384 1609 779 1909 
Q 1175 2209 1959 2209 
L 2766 2209 
L 2766 2266 
Q 2766 2663 2505 2880 
Q 2244 3097 1772 3097 
Q 1472 3097 1187 3025 
Q 903 2953 641 2809 
L 641 3341 
Q 956 3463 1253 3523 
Q 1550 3584 1831 3584 
Q 2591 3584 2966 3190 
Q 3341 2797 3341 1997 
z
" transform="scale(0.015625)"/>
      </defs>
      <use xlink:href="#DejaVuSans-73"/>
      <use xlink:href="#DejaVuSans-74" x="52.099609"/>
      <use xlink:href="#DejaVuSans-61" x="91.308594"/>
      <use xlink:href="#DejaVuSans-72" x="152.587891"/>
     </g>
    </g>
    <g id="line2d_46">
     <path d="M 815.08 343.176562 
L 825.08 343.176562 
L 835.08 343.176562 
" style="fill: none; stroke: #ff7f0e; stroke-width: 1.5; stroke-linecap: square"/>
    </g>
    <g id="text_24">
     <!-- fork -->
     <g style="fill: #a9a9a9" transform="translate(843.08 346.676562) scale(0.1 -0.1)">
      <defs>
       <path id="DejaVuSans-66" d="M 2375 4863 
L 2375 4384 
L 1825 4384 
Q 1516 4384 1395 4259 
Q 1275 4134 1275 3809 
L 1275 3500 
L 2222 3500 
L 2222 3053 
L 1275 3053 
L 1275 0 
L 697 0 
L 697 3053 
L 147 3053 
L 147 3500 
L 697 3500 
L 697 3744 
Q 697 4328 969 4595 
Q 1241 4863 1831 4863 
L 2375 4863 
z
" transform="scale(0.015625)"/>
       <path id="DejaVuSans-6b" d="M 581 4863 
L 1159 4863 
L 1159 1991 
L 2875 3500 
L 3609 3500 
L 1753 1863 
L 3688 0 
L 2938 0 
L 1159 1709 
L 1159 0 
L 581 0 
L 581 4863 
z
" transform="scale(0.015625)"/>
      </defs>
      <use xlink:href="#DejaVuSans-66"/>
      <use xlink:href="#DejaVuSans-6f" x="35.205078"/>
      <use xlink:href="#DejaVuSans-72" x="96.386719"/>
      <use xlink:href="#DejaVuSans-6b" x="137.5"/>
     </g>
    </g>
   </g>
  </g>
 </g>
 <defs>
  <clipPath id="p5835968aef">
   <rect x="108" y="43.2" width="669.6" height="277.2"/>
  </clipPath>
 </defs>
</svg>
