<?xml version="1.0" encoding="utf-8" standalone="no"?>
<!DOCTYPE svg PUBLIC "-//W3C//DTD SVG 1.1//EN"
  "http://www.w3.org/Graphics/SVG/1.1/DTD/svg11.dtd">
<svg xmlns:xlink="http://www.w3.org/1999/xlink" width="864pt" height="360pt" viewBox="0 0 864 360" xmlns="http://www.w3.org/2000/svg" version="1.1">
 <metadata>
  <rdf:RDF xmlns:dc="http://purl.org/dc/elements/1.1/" xmlns:cc="http://creativecommons.org/ns#" xmlns:rdf="http://www.w3.org/1999/02/22-rdf-syntax-ns#">
   <cc:Work>
    <dc:type rdf:resource="http://purl.org/dc/dcmitype/StillImage"/>
    <dc:date>2023-12-29T08:09:39.104289</dc:date>
    <dc:format>image/svg+xml</dc:format>
    <dc:creator>
     <cc:Agent>
      <dc:title>Matplotlib v3.8.2, https://matplotlib.org/</dc:title>
     </cc:Agent>
    </dc:creator>
   </cc:Work>
  </rdf:RDF>
 </metadata>
 <defs>
  <style type="text/css">*{stroke-linejoin: round; stroke-linecap: butt}</style>
 </defs>
 <g id="figure_1">
  <g id="patch_1">
   <path d="M 0 360 
L 864 360 
L 864 0 
L 0 0 
L 0 360 
z
" style="fill: none; opacity: 0"/>
  </g>
  <g id="axes_1">
   <g id="patch_2">
    <path d="M 108 320.4 
L 777.6 320.4 
L 777.6 43.2 
L 108 43.2 
L 108 320.4 
z
" style="fill: none; opacity: 0"/>
   </g>
   <g id="matplotlib.axis_1">
    <g id="xtick_1">
     <g id="line2d_1">
      <path d="M 122.669779 320.4 
L 122.669779 43.2 
" clip-path="url(#pdc4a69b52c)" style="fill: none; stroke-dasharray: 5.12,1.28,0.8,1.28; stroke-dashoffset: 0; stroke: #b0b0b0; stroke-width: 0.8"/>
     </g>
     <g id="line2d_2">
      <defs>
       <path id="m7dcf71f392" d="M 0 0 
L 0 3.5 
" style="stroke: #a9a9a9; stroke-width: 0.8"/>
      </defs>
      <g>
       <use xlink:href="#m7dcf71f392" x="122.669779" y="320.4" style="fill: #a9a9a9; stroke: #a9a9a9; stroke-width: 0.8"/>
      </g>
     </g>
     <g id="text_1">
      <!-- 2021-07 -->
      <g style="fill: #a9a9a9" transform="translate(101.778373 334.998438) scale(0.1 -0.1)">
       <defs>
        <path id="DejaVuSans-32" d="M 1228 531 
L 3431 531 
L 3431 0 
L 469 0 
L 469 531 
Q 828 903 1448 1529 
Q 2069 2156 2228 2338 
Q 2531 2678 2651 2914 
Q 2772 3150 2772 3378 
Q 2772 3750 2511 3984 
Q 2250 4219 1831 4219 
Q 1534 4219 1204 4116 
Q 875 4013 500 3803 
L 500 4441 
Q 881 4594 1212 4672 
Q 1544 4750 1819 4750 
Q 2544 4750 2975 4387 
Q 3406 4025 3406 3419 
Q 3406 3131 3298 2873 
Q 3191 2616 2906 2266 
Q 2828 2175 2409 1742 
Q 1991 1309 1228 531 
z
" transform="scale(0.015625)"/>
        <path id="DejaVuSans-30" d="M 2034 4250 
Q 1547 4250 1301 3770 
Q 1056 3291 1056 2328 
Q 1056 1369 1301 889 
Q 1547 409 2034 409 
Q 2525 409 2770 889 
Q 3016 1369 3016 2328 
Q 3016 3291 2770 3770 
Q 2525 4250 2034 4250 
z
M 2034 4750 
Q 2819 4750 3233 4129 
Q 3647 3509 3647 2328 
Q 3647 1150 3233 529 
Q 2819 -91 2034 -91 
Q 1250 -91 836 529 
Q 422 1150 422 2328 
Q 422 3509 836 4129 
Q 1250 4750 2034 4750 
z
" transform="scale(0.015625)"/>
        <path id="DejaVuSans-31" d="M 794 531 
L 1825 531 
L 1825 4091 
L 703 3866 
L 703 4441 
L 1819 4666 
L 2450 4666 
L 2450 531 
L 3481 531 
L 3481 0 
L 794 0 
L 794 531 
z
" transform="scale(0.015625)"/>
        <path id="DejaVuSans-2d" d="M 313 2009 
L 1997 2009 
L 1997 1497 
L 313 1497 
L 313 2009 
z
" transform="scale(0.015625)"/>
        <path id="DejaVuSans-37" d="M 525 4666 
L 3525 4666 
L 3525 4397 
L 1831 0 
L 1172 0 
L 2766 4134 
L 525 4134 
L 525 4666 
z
" transform="scale(0.015625)"/>
       </defs>
       <use xlink:href="#DejaVuSans-32"/>
       <use xlink:href="#DejaVuSans-30" x="63.623047"/>
       <use xlink:href="#DejaVuSans-32" x="127.246094"/>
       <use xlink:href="#DejaVuSans-31" x="190.869141"/>
       <use xlink:href="#DejaVuSans-2d" x="254.492188"/>
       <use xlink:href="#DejaVuSans-30" x="290.576172"/>
       <use xlink:href="#DejaVuSans-37" x="354.199219"/>
      </g>
     </g>
    </g>
    <g id="xtick_2">
     <g id="line2d_3">
      <path d="M 185.736118 320.4 
L 185.736118 43.2 
" clip-path="url(#pdc4a69b52c)" style="fill: none; stroke-dasharray: 5.12,1.28,0.8,1.28; stroke-dashoffset: 0; stroke: #b0b0b0; stroke-width: 0.8"/>
     </g>
     <g id="line2d_4">
      <g>
       <use xlink:href="#m7dcf71f392" x="185.736118" y="320.4" style="fill: #a9a9a9; stroke: #a9a9a9; stroke-width: 0.8"/>
      </g>
     </g>
     <g id="text_2">
      <!-- 2021-10 -->
      <g style="fill: #a9a9a9" transform="translate(164.844712 334.998438) scale(0.1 -0.1)">
       <use xlink:href="#DejaVuSans-32"/>
       <use xlink:href="#DejaVuSans-30" x="63.623047"/>
       <use xlink:href="#DejaVuSans-32" x="127.246094"/>
       <use xlink:href="#DejaVuSans-31" x="190.869141"/>
       <use xlink:href="#DejaVuSans-2d" x="254.492188"/>
       <use xlink:href="#DejaVuSans-31" x="290.576172"/>
       <use xlink:href="#DejaVuSans-30" x="354.199219"/>
      </g>
     </g>
    </g>
    <g id="xtick_3">
     <g id="line2d_5">
      <path d="M 248.802457 320.4 
L 248.802457 43.2 
" clip-path="url(#pdc4a69b52c)" style="fill: none; stroke-dasharray: 5.12,1.28,0.8,1.28; stroke-dashoffset: 0; stroke: #b0b0b0; stroke-width: 0.8"/>
     </g>
     <g id="line2d_6">
      <g>
       <use xlink:href="#m7dcf71f392" x="248.802457" y="320.4" style="fill: #a9a9a9; stroke: #a9a9a9; stroke-width: 0.8"/>
      </g>
     </g>
     <g id="text_3">
      <!-- 2022-01 -->
      <g style="fill: #a9a9a9" transform="translate(227.911051 334.998438) scale(0.1 -0.1)">
       <use xlink:href="#DejaVuSans-32"/>
       <use xlink:href="#DejaVuSans-30" x="63.623047"/>
       <use xlink:href="#DejaVuSans-32" x="127.246094"/>
       <use xlink:href="#DejaVuSans-32" x="190.869141"/>
       <use xlink:href="#DejaVuSans-2d" x="254.492188"/>
       <use xlink:href="#DejaVuSans-30" x="290.576172"/>
       <use xlink:href="#DejaVuSans-31" x="354.199219"/>
      </g>
     </g>
    </g>
    <g id="xtick_4">
     <g id="line2d_7">
      <path d="M 310.497789 320.4 
L 310.497789 43.2 
" clip-path="url(#pdc4a69b52c)" style="fill: none; stroke-dasharray: 5.12,1.28,0.8,1.28; stroke-dashoffset: 0; stroke: #b0b0b0; stroke-width: 0.8"/>
     </g>
     <g id="line2d_8">
      <g>
       <use xlink:href="#m7dcf71f392" x="310.497789" y="320.4" style="fill: #a9a9a9; stroke: #a9a9a9; stroke-width: 0.8"/>
      </g>
     </g>
     <g id="text_4">
      <!-- 2022-04 -->
      <g style="fill: #a9a9a9" transform="translate(289.606382 334.998438) scale(0.1 -0.1)">
       <defs>
        <path id="DejaVuSans-34" d="M 2419 4116 
L 825 1625 
L 2419 1625 
L 2419 4116 
z
M 2253 4666 
L 3047 4666 
L 3047 1625 
L 3713 1625 
L 3713 1100 
L 3047 1100 
L 3047 0 
L 2419 0 
L 2419 1100 
L 313 1100 
L 313 1709 
L 2253 4666 
z
" transform="scale(0.015625)"/>
       </defs>
       <use xlink:href="#DejaVuSans-32"/>
       <use xlink:href="#DejaVuSans-30" x="63.623047"/>
       <use xlink:href="#DejaVuSans-32" x="127.246094"/>
       <use xlink:href="#DejaVuSans-32" x="190.869141"/>
       <use xlink:href="#DejaVuSans-2d" x="254.492188"/>
       <use xlink:href="#DejaVuSans-30" x="290.576172"/>
       <use xlink:href="#DejaVuSans-34" x="354.199219"/>
      </g>
     </g>
    </g>
    <g id="xtick_5">
     <g id="line2d_9">
      <path d="M 372.878624 320.4 
L 372.878624 43.2 
" clip-path="url(#pdc4a69b52c)" style="fill: none; stroke-dasharray: 5.12,1.28,0.8,1.28; stroke-dashoffset: 0; stroke: #b0b0b0; stroke-width: 0.8"/>
     </g>
     <g id="line2d_10">
      <g>
       <use xlink:href="#m7dcf71f392" x="372.878624" y="320.4" style="fill: #a9a9a9; stroke: #a9a9a9; stroke-width: 0.8"/>
      </g>
     </g>
     <g id="text_5">
      <!-- 2022-07 -->
      <g style="fill: #a9a9a9" transform="translate(351.987218 334.998438) scale(0.1 -0.1)">
       <use xlink:href="#DejaVuSans-32"/>
       <use xlink:href="#DejaVuSans-30" x="63.623047"/>
       <use xlink:href="#DejaVuSans-32" x="127.246094"/>
       <use xlink:href="#DejaVuSans-32" x="190.869141"/>
       <use xlink:href="#DejaVuSans-2d" x="254.492188"/>
       <use xlink:href="#DejaVuSans-30" x="290.576172"/>
       <use xlink:href="#DejaVuSans-37" x="354.199219"/>
      </g>
     </g>
    </g>
    <g id="xtick_6">
     <g id="line2d_11">
      <path d="M 435.944963 320.4 
L 435.944963 43.2 
" clip-path="url(#pdc4a69b52c)" style="fill: none; stroke-dasharray: 5.12,1.28,0.8,1.28; stroke-dashoffset: 0; stroke: #b0b0b0; stroke-width: 0.8"/>
     </g>
     <g id="line2d_12">
      <g>
       <use xlink:href="#m7dcf71f392" x="435.944963" y="320.4" style="fill: #a9a9a9; stroke: #a9a9a9; stroke-width: 0.8"/>
      </g>
     </g>
     <g id="text_6">
      <!-- 2022-10 -->
      <g style="fill: #a9a9a9" transform="translate(415.053557 334.998438) scale(0.1 -0.1)">
       <use xlink:href="#DejaVuSans-32"/>
       <use xlink:href="#DejaVuSans-30" x="63.623047"/>
       <use xlink:href="#DejaVuSans-32" x="127.246094"/>
       <use xlink:href="#DejaVuSans-32" x="190.869141"/>
       <use xlink:href="#DejaVuSans-2d" x="254.492188"/>
       <use xlink:href="#DejaVuSans-31" x="290.576172"/>
       <use xlink:href="#DejaVuSans-30" x="354.199219"/>
      </g>
     </g>
    </g>
    <g id="xtick_7">
     <g id="line2d_13">
      <path d="M 499.011302 320.4 
L 499.011302 43.2 
" clip-path="url(#pdc4a69b52c)" style="fill: none; stroke-dasharray: 5.12,1.28,0.8,1.28; stroke-dashoffset: 0; stroke: #b0b0b0; stroke-width: 0.8"/>
     </g>
     <g id="line2d_14">
      <g>
       <use xlink:href="#m7dcf71f392" x="499.011302" y="320.4" style="fill: #a9a9a9; stroke: #a9a9a9; stroke-width: 0.8"/>
      </g>
     </g>
     <g id="text_7">
      <!-- 2023-01 -->
      <g style="fill: #a9a9a9" transform="translate(478.119896 334.998438) scale(0.1 -0.1)">
       <defs>
        <path id="DejaVuSans-33" d="M 2597 2516 
Q 3050 2419 3304 2112 
Q 3559 1806 3559 1356 
Q 3559 666 3084 287 
Q 2609 -91 1734 -91 
Q 1441 -91 1130 -33 
Q 819 25 488 141 
L 488 750 
Q 750 597 1062 519 
Q 1375 441 1716 441 
Q 2309 441 2620 675 
Q 2931 909 2931 1356 
Q 2931 1769 2642 2001 
Q 2353 2234 1838 2234 
L 1294 2234 
L 1294 2753 
L 1863 2753 
Q 2328 2753 2575 2939 
Q 2822 3125 2822 3475 
Q 2822 3834 2567 4026 
Q 2313 4219 1838 4219 
Q 1578 4219 1281 4162 
Q 984 4106 628 3988 
L 628 4550 
Q 988 4650 1302 4700 
Q 1616 4750 1894 4750 
Q 2613 4750 3031 4423 
Q 3450 4097 3450 3541 
Q 3450 3153 3228 2886 
Q 3006 2619 2597 2516 
z
" transform="scale(0.015625)"/>
       </defs>
       <use xlink:href="#DejaVuSans-32"/>
       <use xlink:href="#DejaVuSans-30" x="63.623047"/>
       <use xlink:href="#DejaVuSans-32" x="127.246094"/>
       <use xlink:href="#DejaVuSans-33" x="190.869141"/>
       <use xlink:href="#DejaVuSans-2d" x="254.492188"/>
       <use xlink:href="#DejaVuSans-30" x="290.576172"/>
       <use xlink:href="#DejaVuSans-31" x="354.199219"/>
      </g>
     </g>
    </g>
    <g id="xtick_8">
     <g id="line2d_15">
      <path d="M 560.706634 320.4 
L 560.706634 43.2 
" clip-path="url(#pdc4a69b52c)" style="fill: none; stroke-dasharray: 5.12,1.28,0.8,1.28; stroke-dashoffset: 0; stroke: #b0b0b0; stroke-width: 0.8"/>
     </g>
     <g id="line2d_16">
      <g>
       <use xlink:href="#m7dcf71f392" x="560.706634" y="320.4" style="fill: #a9a9a9; stroke: #a9a9a9; stroke-width: 0.8"/>
      </g>
     </g>
     <g id="text_8">
      <!-- 2023-04 -->
      <g style="fill: #a9a9a9" transform="translate(539.815228 334.998438) scale(0.1 -0.1)">
       <use xlink:href="#DejaVuSans-32"/>
       <use xlink:href="#DejaVuSans-30" x="63.623047"/>
       <use xlink:href="#DejaVuSans-32" x="127.246094"/>
       <use xlink:href="#DejaVuSans-33" x="190.869141"/>
       <use xlink:href="#DejaVuSans-2d" x="254.492188"/>
       <use xlink:href="#DejaVuSans-30" x="290.576172"/>
       <use xlink:href="#DejaVuSans-34" x="354.199219"/>
      </g>
     </g>
    </g>
    <g id="xtick_9">
     <g id="line2d_17">
      <path d="M 623.087469 320.4 
L 623.087469 43.2 
" clip-path="url(#pdc4a69b52c)" style="fill: none; stroke-dasharray: 5.12,1.28,0.8,1.28; stroke-dashoffset: 0; stroke: #b0b0b0; stroke-width: 0.8"/>
     </g>
     <g id="line2d_18">
      <g>
       <use xlink:href="#m7dcf71f392" x="623.087469" y="320.4" style="fill: #a9a9a9; stroke: #a9a9a9; stroke-width: 0.8"/>
      </g>
     </g>
     <g id="text_9">
      <!-- 2023-07 -->
      <g style="fill: #a9a9a9" transform="translate(602.196063 334.998438) scale(0.1 -0.1)">
       <use xlink:href="#DejaVuSans-32"/>
       <use xlink:href="#DejaVuSans-30" x="63.623047"/>
       <use xlink:href="#DejaVuSans-32" x="127.246094"/>
       <use xlink:href="#DejaVuSans-33" x="190.869141"/>
       <use xlink:href="#DejaVuSans-2d" x="254.492188"/>
       <use xlink:href="#DejaVuSans-30" x="290.576172"/>
       <use xlink:href="#DejaVuSans-37" x="354.199219"/>
      </g>
     </g>
    </g>
    <g id="xtick_10">
     <g id="line2d_19">
      <path d="M 686.153808 320.4 
L 686.153808 43.2 
" clip-path="url(#pdc4a69b52c)" style="fill: none; stroke-dasharray: 5.12,1.28,0.8,1.28; stroke-dashoffset: 0; stroke: #b0b0b0; stroke-width: 0.8"/>
     </g>
     <g id="line2d_20">
      <g>
       <use xlink:href="#m7dcf71f392" x="686.153808" y="320.4" style="fill: #a9a9a9; stroke: #a9a9a9; stroke-width: 0.8"/>
      </g>
     </g>
     <g id="text_10">
      <!-- 2023-10 -->
      <g style="fill: #a9a9a9" transform="translate(665.262402 334.998438) scale(0.1 -0.1)">
       <use xlink:href="#DejaVuSans-32"/>
       <use xlink:href="#DejaVuSans-30" x="63.623047"/>
       <use xlink:href="#DejaVuSans-32" x="127.246094"/>
       <use xlink:href="#DejaVuSans-33" x="190.869141"/>
       <use xlink:href="#DejaVuSans-2d" x="254.492188"/>
       <use xlink:href="#DejaVuSans-31" x="290.576172"/>
       <use xlink:href="#DejaVuSans-30" x="354.199219"/>
      </g>
     </g>
    </g>
    <g id="xtick_11">
     <g id="line2d_21">
      <path d="M 749.220147 320.4 
L 749.220147 43.2 
" clip-path="url(#pdc4a69b52c)" style="fill: none; stroke-dasharray: 5.12,1.28,0.8,1.28; stroke-dashoffset: 0; stroke: #b0b0b0; stroke-width: 0.8"/>
     </g>
     <g id="line2d_22">
      <g>
       <use xlink:href="#m7dcf71f392" x="749.220147" y="320.4" style="fill: #a9a9a9; stroke: #a9a9a9; stroke-width: 0.8"/>
      </g>
     </g>
     <g id="text_11">
      <!-- 2024-01 -->
      <g style="fill: #a9a9a9" transform="translate(728.328741 334.998438) scale(0.1 -0.1)">
       <use xlink:href="#DejaVuSans-32"/>
       <use xlink:href="#DejaVuSans-30" x="63.623047"/>
       <use xlink:href="#DejaVuSans-32" x="127.246094"/>
       <use xlink:href="#DejaVuSans-34" x="190.869141"/>
       <use xlink:href="#DejaVuSans-2d" x="254.492188"/>
       <use xlink:href="#DejaVuSans-30" x="290.576172"/>
       <use xlink:href="#DejaVuSans-31" x="354.199219"/>
      </g>
     </g>
    </g>
   </g>
   <g id="matplotlib.axis_2">
    <g id="ytick_1">
     <g id="line2d_23">
      <path d="M 108 307.846858 
L 777.6 307.846858 
" clip-path="url(#pdc4a69b52c)" style="fill: none; stroke-dasharray: 5.12,1.28,0.8,1.28; stroke-dashoffset: 0; stroke: #b0b0b0; stroke-width: 0.8"/>
     </g>
     <g id="line2d_24">
      <defs>
       <path id="m57ba9dce0e" d="M 0 0 
L -3.5 0 
" style="stroke: #a9a9a9; stroke-width: 0.8"/>
      </defs>
      <g>
       <use xlink:href="#m57ba9dce0e" x="108" y="307.846858" style="fill: #a9a9a9; stroke: #a9a9a9; stroke-width: 0.8"/>
      </g>
     </g>
     <g id="text_12">
      <!-- 0 -->
      <g style="fill: #a9a9a9" transform="translate(94.6375 311.646076) scale(0.1 -0.1)">
       <use xlink:href="#DejaVuSans-30"/>
      </g>
     </g>
    </g>
    <g id="ytick_2">
     <g id="line2d_25">
      <path d="M 108 279.732317 
L 777.6 279.732317 
" clip-path="url(#pdc4a69b52c)" style="fill: none; stroke-dasharray: 5.12,1.28,0.8,1.28; stroke-dashoffset: 0; stroke: #b0b0b0; stroke-width: 0.8"/>
     </g>
     <g id="line2d_26">
      <g>
       <use xlink:href="#m57ba9dce0e" x="108" y="279.732317" style="fill: #a9a9a9; stroke: #a9a9a9; stroke-width: 0.8"/>
      </g>
     </g>
     <g id="text_13">
      <!-- 600 -->
      <g style="fill: #a9a9a9" transform="translate(81.9125 283.531536) scale(0.1 -0.1)">
       <defs>
        <path id="DejaVuSans-36" d="M 2113 2584 
Q 1688 2584 1439 2293 
Q 1191 2003 1191 1497 
Q 1191 994 1439 701 
Q 1688 409 2113 409 
Q 2538 409 2786 701 
Q 3034 994 3034 1497 
Q 3034 2003 2786 2293 
Q 2538 2584 2113 2584 
z
M 3366 4563 
L 3366 3988 
Q 3128 4100 2886 4159 
Q 2644 4219 2406 4219 
Q 1781 4219 1451 3797 
Q 1122 3375 1075 2522 
Q 1259 2794 1537 2939 
Q 1816 3084 2150 3084 
Q 2853 3084 3261 2657 
Q 3669 2231 3669 1497 
Q 3669 778 3244 343 
Q 2819 -91 2113 -91 
Q 1303 -91 875 529 
Q 447 1150 447 2328 
Q 447 3434 972 4092 
Q 1497 4750 2381 4750 
Q 2619 4750 2861 4703 
Q 3103 4656 3366 4563 
z
" transform="scale(0.015625)"/>
       </defs>
       <use xlink:href="#DejaVuSans-36"/>
       <use xlink:href="#DejaVuSans-30" x="63.623047"/>
       <use xlink:href="#DejaVuSans-30" x="127.246094"/>
      </g>
     </g>
    </g>
    <g id="ytick_3">
     <g id="line2d_27">
      <path d="M 108 251.617776 
L 777.6 251.617776 
" clip-path="url(#pdc4a69b52c)" style="fill: none; stroke-dasharray: 5.12,1.28,0.8,1.28; stroke-dashoffset: 0; stroke: #b0b0b0; stroke-width: 0.8"/>
     </g>
     <g id="line2d_28">
      <g>
       <use xlink:href="#m57ba9dce0e" x="108" y="251.617776" style="fill: #a9a9a9; stroke: #a9a9a9; stroke-width: 0.8"/>
      </g>
     </g>
     <g id="text_14">
      <!-- 1200 -->
      <g style="fill: #a9a9a9" transform="translate(75.55 255.416995) scale(0.1 -0.1)">
       <use xlink:href="#DejaVuSans-31"/>
       <use xlink:href="#DejaVuSans-32" x="63.623047"/>
       <use xlink:href="#DejaVuSans-30" x="127.246094"/>
       <use xlink:href="#DejaVuSans-30" x="190.869141"/>
      </g>
     </g>
    </g>
    <g id="ytick_4">
     <g id="line2d_29">
      <path d="M 108 223.503235 
L 777.6 223.503235 
" clip-path="url(#pdc4a69b52c)" style="fill: none; stroke-dasharray: 5.12,1.28,0.8,1.28; stroke-dashoffset: 0; stroke: #b0b0b0; stroke-width: 0.8"/>
     </g>
     <g id="line2d_30">
      <g>
       <use xlink:href="#m57ba9dce0e" x="108" y="223.503235" style="fill: #a9a9a9; stroke: #a9a9a9; stroke-width: 0.8"/>
      </g>
     </g>
     <g id="text_15">
      <!-- 1800 -->
      <g style="fill: #a9a9a9" transform="translate(75.55 227.302454) scale(0.1 -0.1)">
       <defs>
        <path id="DejaVuSans-38" d="M 2034 2216 
Q 1584 2216 1326 1975 
Q 1069 1734 1069 1313 
Q 1069 891 1326 650 
Q 1584 409 2034 409 
Q 2484 409 2743 651 
Q 3003 894 3003 1313 
Q 3003 1734 2745 1975 
Q 2488 2216 2034 2216 
z
M 1403 2484 
Q 997 2584 770 2862 
Q 544 3141 544 3541 
Q 544 4100 942 4425 
Q 1341 4750 2034 4750 
Q 2731 4750 3128 4425 
Q 3525 4100 3525 3541 
Q 3525 3141 3298 2862 
Q 3072 2584 2669 2484 
Q 3125 2378 3379 2068 
Q 3634 1759 3634 1313 
Q 3634 634 3220 271 
Q 2806 -91 2034 -91 
Q 1263 -91 848 271 
Q 434 634 434 1313 
Q 434 1759 690 2068 
Q 947 2378 1403 2484 
z
M 1172 3481 
Q 1172 3119 1398 2916 
Q 1625 2713 2034 2713 
Q 2441 2713 2670 2916 
Q 2900 3119 2900 3481 
Q 2900 3844 2670 4047 
Q 2441 4250 2034 4250 
Q 1625 4250 1398 4047 
Q 1172 3844 1172 3481 
z
" transform="scale(0.015625)"/>
       </defs>
       <use xlink:href="#DejaVuSans-31"/>
       <use xlink:href="#DejaVuSans-38" x="63.623047"/>
       <use xlink:href="#DejaVuSans-30" x="127.246094"/>
       <use xlink:href="#DejaVuSans-30" x="190.869141"/>
      </g>
     </g>
    </g>
    <g id="ytick_5">
     <g id="line2d_31">
      <path d="M 108 195.388695 
L 777.6 195.388695 
" clip-path="url(#pdc4a69b52c)" style="fill: none; stroke-dasharray: 5.12,1.28,0.8,1.28; stroke-dashoffset: 0; stroke: #b0b0b0; stroke-width: 0.8"/>
     </g>
     <g id="line2d_32">
      <g>
       <use xlink:href="#m57ba9dce0e" x="108" y="195.388695" style="fill: #a9a9a9; stroke: #a9a9a9; stroke-width: 0.8"/>
      </g>
     </g>
     <g id="text_16">
      <!-- 2400 -->
      <g style="fill: #a9a9a9" transform="translate(75.55 199.187913) scale(0.1 -0.1)">
       <use xlink:href="#DejaVuSans-32"/>
       <use xlink:href="#DejaVuSans-34" x="63.623047"/>
       <use xlink:href="#DejaVuSans-30" x="127.246094"/>
       <use xlink:href="#DejaVuSans-30" x="190.869141"/>
      </g>
     </g>
    </g>
    <g id="ytick_6">
     <g id="line2d_33">
      <path d="M 108 167.274154 
L 777.6 167.274154 
" clip-path="url(#pdc4a69b52c)" style="fill: none; stroke-dasharray: 5.12,1.28,0.8,1.28; stroke-dashoffset: 0; stroke: #b0b0b0; stroke-width: 0.8"/>
     </g>
     <g id="line2d_34">
      <g>
       <use xlink:href="#m57ba9dce0e" x="108" y="167.274154" style="fill: #a9a9a9; stroke: #a9a9a9; stroke-width: 0.8"/>
      </g>
     </g>
     <g id="text_17">
      <!-- 3000 -->
      <g style="fill: #a9a9a9" transform="translate(75.55 171.073373) scale(0.1 -0.1)">
       <use xlink:href="#DejaVuSans-33"/>
       <use xlink:href="#DejaVuSans-30" x="63.623047"/>
       <use xlink:href="#DejaVuSans-30" x="127.246094"/>
       <use xlink:href="#DejaVuSans-30" x="190.869141"/>
      </g>
     </g>
    </g>
    <g id="ytick_7">
     <g id="line2d_35">
      <path d="M 108 139.159613 
L 777.6 139.159613 
" clip-path="url(#pdc4a69b52c)" style="fill: none; stroke-dasharray: 5.12,1.28,0.8,1.28; stroke-dashoffset: 0; stroke: #b0b0b0; stroke-width: 0.8"/>
     </g>
     <g id="line2d_36">
      <g>
       <use xlink:href="#m57ba9dce0e" x="108" y="139.159613" style="fill: #a9a9a9; stroke: #a9a9a9; stroke-width: 0.8"/>
      </g>
     </g>
     <g id="text_18">
      <!-- 3600 -->
      <g style="fill: #a9a9a9" transform="translate(75.55 142.958832) scale(0.1 -0.1)">
       <use xlink:href="#DejaVuSans-33"/>
       <use xlink:href="#DejaVuSans-36" x="63.623047"/>
       <use xlink:href="#DejaVuSans-30" x="127.246094"/>
       <use xlink:href="#DejaVuSans-30" x="190.869141"/>
      </g>
     </g>
    </g>
    <g id="ytick_8">
     <g id="line2d_37">
      <path d="M 108 111.045073 
L 777.6 111.045073 
" clip-path="url(#pdc4a69b52c)" style="fill: none; stroke-dasharray: 5.12,1.28,0.8,1.28; stroke-dashoffset: 0; stroke: #b0b0b0; stroke-width: 0.8"/>
     </g>
     <g id="line2d_38">
      <g>
       <use xlink:href="#m57ba9dce0e" x="108" y="111.045073" style="fill: #a9a9a9; stroke: #a9a9a9; stroke-width: 0.8"/>
      </g>
     </g>
     <g id="text_19">
      <!-- 4200 -->
      <g style="fill: #a9a9a9" transform="translate(75.55 114.844291) scale(0.1 -0.1)">
       <use xlink:href="#DejaVuSans-34"/>
       <use xlink:href="#DejaVuSans-32" x="63.623047"/>
       <use xlink:href="#DejaVuSans-30" x="127.246094"/>
       <use xlink:href="#DejaVuSans-30" x="190.869141"/>
      </g>
     </g>
    </g>
    <g id="ytick_9">
     <g id="line2d_39">
      <path d="M 108 82.930532 
L 777.6 82.930532 
" clip-path="url(#pdc4a69b52c)" style="fill: none; stroke-dasharray: 5.12,1.28,0.8,1.28; stroke-dashoffset: 0; stroke: #b0b0b0; stroke-width: 0.8"/>
     </g>
     <g id="line2d_40">
      <g>
       <use xlink:href="#m57ba9dce0e" x="108" y="82.930532" style="fill: #a9a9a9; stroke: #a9a9a9; stroke-width: 0.8"/>
      </g>
     </g>
     <g id="text_20">
      <!-- 4800 -->
      <g style="fill: #a9a9a9" transform="translate(75.55 86.729751) scale(0.1 -0.1)">
       <use xlink:href="#DejaVuSans-34"/>
       <use xlink:href="#DejaVuSans-38" x="63.623047"/>
       <use xlink:href="#DejaVuSans-30" x="127.246094"/>
       <use xlink:href="#DejaVuSans-30" x="190.869141"/>
      </g>
     </g>
    </g>
    <g id="ytick_10">
     <g id="line2d_41">
      <path d="M 108 54.815991 
L 777.6 54.815991 
" clip-path="url(#pdc4a69b52c)" style="fill: none; stroke-dasharray: 5.12,1.28,0.8,1.28; stroke-dashoffset: 0; stroke: #b0b0b0; stroke-width: 0.8"/>
     </g>
     <g id="line2d_42">
      <g>
       <use xlink:href="#m57ba9dce0e" x="108" y="54.815991" style="fill: #a9a9a9; stroke: #a9a9a9; stroke-width: 0.8"/>
      </g>
     </g>
     <g id="text_21">
      <!-- 5400 -->
      <g style="fill: #a9a9a9" transform="translate(75.55 58.61521) scale(0.1 -0.1)">
       <defs>
        <path id="DejaVuSans-35" d="M 691 4666 
L 3169 4666 
L 3169 4134 
L 1269 4134 
L 1269 2991 
Q 1406 3038 1543 3061 
Q 1681 3084 1819 3084 
Q 2600 3084 3056 2656 
Q 3513 2228 3513 1497 
Q 3513 744 3044 326 
Q 2575 -91 1722 -91 
Q 1428 -91 1123 -41 
Q 819 9 494 109 
L 494 744 
Q 775 591 1075 516 
Q 1375 441 1709 441 
Q 2250 441 2565 725 
Q 2881 1009 2881 1497 
Q 2881 1984 2565 2268 
Q 2250 2553 1709 2553 
Q 1456 2553 1204 2497 
Q 953 2441 691 2322 
L 691 4666 
z
" transform="scale(0.015625)"/>
       </defs>
       <use xlink:href="#DejaVuSans-35"/>
       <use xlink:href="#DejaVuSans-34" x="63.623047"/>
       <use xlink:href="#DejaVuSans-30" x="127.246094"/>
       <use xlink:href="#DejaVuSans-30" x="190.869141"/>
      </g>
     </g>
    </g>
   </g>
   <g id="line2d_43">
    <path d="M 138.436364 307.706285 
L 142.549386 307.378282 
L 143.234889 307.097136 
L 145.2914 306.862849 
L 150.089926 305.972555 
L 153.517445 305.644552 
L 154.202948 305.316549 
L 154.888452 305.129119 
L 155.573956 304.285682 
L 156.259459 303.817107 
L 156.944963 302.364522 
L 157.630467 302.270807 
L 158.315971 301.755374 
L 159.686978 301.099368 
L 161.057985 300.068501 
L 161.743489 299.412495 
L 163.114496 298.756489 
L 163.8 298.475344 
L 164.485504 297.959911 
L 167.227518 296.788472 
L 167.913022 295.710747 
L 169.284029 294.726739 
L 169.969533 294.445593 
L 176.82457 293.508442 
L 177.510074 293.180439 
L 182.3086 292.805578 
L 183.679607 292.430718 
L 185.050614 292.149572 
L 190.534644 291.446709 
L 191.220147 291.071848 
L 191.905651 290.978133 
L 192.591155 290.696988 
L 193.962162 290.4627 
L 194.647666 290.415842 
L 195.33317 290.181554 
L 198.075184 289.759836 
L 199.446192 289.384976 
L 201.502703 289.197546 
L 202.87371 289.056973 
L 203.559214 288.869543 
L 204.244717 288.822685 
L 206.301229 288.213537 
L 210.414251 287.604388 
L 211.099754 287.416958 
L 211.785258 286.479807 
L 213.841769 285.730086 
L 215.89828 285.167795 
L 216.583784 284.839792 
L 217.269287 284.792934 
L 220.696806 283.855783 
L 222.067813 283.762068 
L 222.753317 283.668353 
L 224.809828 283.059204 
L 227.551843 282.403198 
L 228.237346 282.122053 
L 228.92285 282.028338 
L 229.608354 281.700335 
L 236.463391 280.669468 
L 239.890909 279.685459 
L 240.576413 279.263741 
L 243.318428 278.51402 
L 244.689435 277.717441 
L 245.374939 277.248866 
L 246.060442 277.155151 
L 246.745946 276.920863 
L 248.802457 276.546002 
L 249.487961 276.217999 
L 250.858968 275.983711 
L 251.544472 275.608851 
L 252.915479 275.187133 
L 253.600983 275.093418 
L 254.97199 274.718557 
L 256.342998 274.390554 
L 257.028501 274.296839 
L 258.399509 273.734548 
L 259.085012 273.593975 
L 259.770516 273.31283 
L 260.45602 273.219115 
L 261.141523 272.891112 
L 261.827027 272.703682 
L 263.198034 272.609967 
L 264.569042 272.141391 
L 265.940049 272.047676 
L 266.625553 271.719673 
L 269.367568 271.251097 
L 272.109582 271.016809 
L 272.795086 270.876237 
L 274.166093 270.220231 
L 281.706634 267.080774 
L 282.392138 266.705913 
L 283.077641 265.956192 
L 283.763145 264.83161 
L 284.448649 263.941316 
L 285.134152 263.753886 
L 285.819656 263.753886 
L 287.190663 262.769877 
L 287.876167 262.582447 
L 288.561671 262.207586 
L 289.247174 262.067014 
L 289.932678 261.457865 
L 290.618182 261.270435 
L 292.674693 260.286426 
L 293.360197 259.44299 
L 294.0457 258.412123 
L 294.731204 257.990405 
L 295.416708 256.865824 
L 296.102211 256.16296 
L 296.787715 255.834957 
L 297.473219 255.647527 
L 298.844226 254.850948 
L 299.52973 254.522945 
L 302.271744 252.50807 
L 302.957248 251.524061 
L 303.642752 249.977761 
L 304.328256 248.993752 
L 305.013759 248.478319 
L 305.699263 248.197174 
L 308.441278 245.854295 
L 309.126781 245.38572 
L 310.497789 244.21428 
L 311.183292 243.277129 
L 312.5543 242.10569 
L 315.296314 240.37196 
L 315.981818 239.762811 
L 316.667322 239.622239 
L 318.723833 238.544515 
L 320.780344 237.513648 
L 322.151351 236.248494 
L 322.836855 235.451915 
L 324.207862 234.514764 
L 324.893366 234.327334 
L 325.57887 233.999331 
L 326.264373 233.483897 
L 327.635381 232.734176 
L 328.320885 232.640461 
L 329.691892 231.89074 
L 330.377396 231.51588 
L 331.062899 230.813016 
L 331.748403 230.391298 
L 332.433907 230.15701 
L 333.11941 229.688434 
L 335.861425 228.282707 
L 336.546929 227.673559 
L 339.288943 226.736408 
L 339.974447 226.267832 
L 340.659951 226.127259 
L 342.030958 225.658684 
L 344.087469 224.862105 
L 346.14398 224.112384 
L 347.514988 223.878096 
L 348.885995 222.706657 
L 350.257002 222.050651 
L 352.313514 220.879212 
L 353.684521 220.504351 
L 354.370025 220.082633 
L 355.055528 219.895203 
L 356.426536 219.004909 
L 357.112039 218.630048 
L 360.539558 217.83347 
L 362.596069 216.66203 
L 363.281572 216.568315 
L 363.967076 216.334028 
L 365.338084 216.052882 
L 367.394595 214.55344 
L 369.451106 214.084864 
L 370.136609 213.850576 
L 370.822113 213.335143 
L 374.935135 212.023131 
L 375.620639 211.976274 
L 380.419165 210.289401 
L 381.104668 209.961398 
L 383.161179 209.492823 
L 384.532187 209.16482 
L 385.21769 208.836817 
L 385.903194 208.696244 
L 387.959705 207.759093 
L 390.016216 206.775084 
L 390.70172 206.306508 
L 391.387224 206.119078 
L 393.443735 205.041354 
L 394.814742 204.713351 
L 396.185749 204.010487 
L 397.556757 203.635627 
L 398.24226 203.541911 
L 398.927764 203.073336 
L 399.613268 202.745333 
L 400.298771 202.60476 
L 401.669779 202.042469 
L 402.355283 201.901897 
L 403.040786 201.527036 
L 405.782801 201.105318 
L 407.153808 200.449312 
L 407.839312 199.887021 
L 408.524816 198.715582 
L 409.895823 198.434437 
L 410.581327 198.293864 
L 413.323342 196.888137 
L 414.008845 196.747564 
L 419.492875 194.12354 
L 421.549386 193.701822 
L 422.920393 193.045816 
L 423.605897 192.764671 
L 424.2914 192.670956 
L 427.033415 191.452659 
L 428.404423 190.515508 
L 429.089926 190.187505 
L 429.77543 190.09379 
L 430.460934 189.859502 
L 431.146437 189.812644 
L 434.573956 188.92235 
L 435.259459 188.406917 
L 436.630467 187.938341 
L 438.686978 187.282335 
L 439.372482 186.860617 
L 440.057985 186.673187 
L 440.743489 186.204611 
L 441.428993 185.923466 
L 442.114496 185.501748 
L 443.485504 185.033172 
L 445.542015 184.377166 
L 446.227518 184.049163 
L 446.913022 183.53373 
L 447.598526 182.830866 
L 448.284029 182.409148 
L 448.969533 182.268576 
L 450.340541 181.237709 
L 451.026044 181.097136 
L 451.711548 180.06627 
L 452.397052 179.785125 
L 453.082555 179.269691 
L 453.768059 179.175976 
L 454.453563 178.707401 
L 455.139066 178.379398 
L 455.82457 178.238825 
L 456.510074 177.957679 
L 457.195577 177.442246 
L 457.881081 177.207958 
L 459.937592 175.849089 
L 462.679607 174.490219 
L 463.365111 174.396504 
L 464.736118 173.787356 
L 465.421622 173.412495 
L 466.107125 172.287914 
L 466.792629 171.678765 
L 467.478133 171.303905 
L 468.163636 171.163332 
L 469.534644 170.319896 
L 470.220147 170.179323 
L 471.591155 169.523317 
L 473.647666 168.679881 
L 475.018673 167.74273 
L 476.389681 166.337003 
L 477.760688 165.493566 
L 478.446192 165.071848 
L 479.131695 164.368985 
L 479.817199 163.900409 
L 481.188206 162.775827 
L 481.87371 162.494682 
L 482.559214 161.744961 
L 483.244717 161.229528 
L 484.615725 160.760952 
L 485.301229 160.198661 
L 486.672236 159.495798 
L 487.35774 159.308367 
L 488.043243 158.839792 
L 488.728747 158.699219 
L 490.785258 157.621495 
L 491.470762 157.152919 
L 492.841769 156.590628 
L 493.527273 156.450056 
L 494.212776 156.028338 
L 497.640295 154.950614 
L 498.325799 154.763183 
L 499.011302 154.43518 
L 499.696806 153.826032 
L 501.753317 153.076311 
L 503.124324 152.654593 
L 503.809828 152.13916 
L 505.866339 151.202008 
L 506.551843 150.686575 
L 507.237346 150.311714 
L 508.608354 147.640833 
L 509.979361 146.047676 
L 510.664865 145.5791 
L 512.721376 144.688806 
L 513.40688 144.454518 
L 514.092383 144.360803 
L 514.777887 143.985943 
L 516.834398 143.376794 
L 518.890909 142.580216 
L 520.261916 141.689922 
L 521.632924 141.221346 
L 525.745946 138.878468 
L 526.43145 138.175604 
L 527.802457 137.425883 
L 528.487961 137.051023 
L 529.173464 136.816735 
L 529.858968 136.348159 
L 531.229975 135.692153 
L 533.286486 134.614429 
L 533.97199 134.426999 
L 534.657494 133.911566 
L 535.342998 133.63042 
L 536.028501 133.489848 
L 538.085012 132.740126 
L 538.770516 132.552696 
L 539.45602 132.224693 
L 540.141523 131.70926 
L 541.512531 131.334399 
L 542.883538 130.818966 
L 543.569042 130.256675 
L 544.940049 129.834957 
L 545.625553 129.506954 
L 546.311057 129.319524 
L 547.682064 128.382373 
L 549.053071 127.773224 
L 550.424079 126.742358 
L 551.795086 126.273782 
L 552.48059 125.711491 
L 553.166093 125.617776 
L 554.537101 124.633767 
L 555.908108 123.977761 
L 556.593612 123.696616 
L 557.279115 122.993752 
L 561.392138 121.49431 
L 563.448649 120.604016 
L 565.50516 119.994868 
L 566.876167 119.807438 
L 567.561671 119.526292 
L 568.247174 119.38572 
L 569.618182 118.823429 
L 570.303686 118.776571 
L 573.0457 117.792562 
L 575.102211 116.386835 
L 579.215233 114.37196 
L 581.271744 113.059948 
L 582.642752 112.731945 
L 584.013759 111.794794 
L 586.755774 110.951357 
L 587.441278 110.670212 
L 588.812285 110.342209 
L 592.239803 109.217627 
L 594.296314 108.842767 
L 594.981818 108.655337 
L 595.667322 108.327334 
L 596.352826 108.233618 
L 597.723833 107.671328 
L 598.409337 107.577612 
L 599.09484 107.24961 
L 600.465848 106.968464 
L 601.151351 106.640461 
L 603.207862 106.171885 
L 604.57887 105.89074 
L 608.691892 105.141019 
L 610.062899 104.859874 
L 610.748403 104.719301 
L 611.433907 104.438155 
L 612.11941 104.391298 
L 614.175921 103.829007 
L 614.861425 103.454147 
L 618.288943 102.61071 
L 618.974447 102.470138 
L 620.345455 102.001562 
L 623.772973 100.923838 
L 624.458477 100.783265 
L 625.14398 100.455262 
L 625.829484 100.455262 
L 627.200491 99.986687 
L 627.885995 99.330681 
L 628.571499 99.002678 
L 629.942506 98.580959 
L 632.684521 97.550093 
L 633.370025 97.40952 
L 634.055528 96.987802 
L 634.741032 96.847229 
L 635.426536 96.425511 
L 638.854054 95.394645 
L 639.539558 94.972927 
L 640.225061 94.785496 
L 640.910565 94.223206 
L 642.967076 93.848345 
L 644.338084 93.098624 
L 645.023587 92.348903 
L 646.394595 92.067758 
L 650.507617 91.130606 
L 651.878624 90.755746 
L 653.249631 90.708888 
L 653.935135 90.380885 
L 656.67715 89.912309 
L 657.362654 89.584306 
L 659.419165 89.303161 
L 662.161179 88.459725 
L 664.21769 87.991149 
L 666.274201 87.475716 
L 669.016216 86.63228 
L 669.70172 86.491707 
L 670.387224 86.163704 
L 671.072727 86.069989 
L 671.758231 85.835701 
L 672.443735 85.413983 
L 674.500246 84.664262 
L 675.185749 84.148829 
L 676.556757 83.773968 
L 677.24226 83.492823 
L 678.613268 83.117962 
L 681.355283 81.852808 
L 683.411794 81.712235 
L 686.153808 80.868799 
L 686.839312 80.447081 
L 688.210319 80.025363 
L 690.26683 78.994496 
L 690.952334 78.853923 
L 691.637838 78.52592 
L 692.323342 78.432205 
L 699.863882 75.948754 
L 702.605897 75.292748 
L 703.2914 75.105318 
L 704.662408 74.449312 
L 706.718919 73.933879 
L 707.404423 73.418446 
L 708.089926 73.090443 
L 708.77543 72.293864 
L 709.460934 71.778431 
L 710.831941 71.356713 
L 711.517445 70.794422 
L 719.057985 67.74868 
L 720.428993 67.420677 
L 721.8 66.811528 
L 723.856511 65.593232 
L 724.542015 65.452659 
L 725.227518 64.937226 
L 726.598526 64.28122 
L 727.969533 63.437784 
L 730.026044 62.500632 
L 730.711548 62.032057 
L 732.082555 61.516623 
L 732.768059 61.048048 
L 734.139066 60.392042 
L 734.82457 59.923466 
L 736.195577 59.45489 
L 736.881081 59.314318 
L 739.623096 58.096021 
L 743.050614 56.924582 
L 743.736118 56.877724 
L 744.421622 56.690294 
L 745.107125 56.221718 
L 745.792629 56.128003 
L 746.478133 55.8 
L 747.163636 55.8 
L 747.163636 55.8 
" clip-path="url(#pdc4a69b52c)" style="fill: none; stroke: #1f77b4; stroke-width: 1.5; stroke-linecap: square"/>
   </g>
   <g id="line2d_44">
    <path d="M 139.121867 307.8 
L 141.178378 307.706285 
L 143.234889 307.659427 
L 147.347912 307.565712 
L 150.77543 307.425139 
L 153.517445 307.425139 
L 154.202948 307.237709 
L 156.944963 307.143994 
L 159.001474 306.909706 
L 161.057985 306.722276 
L 170.655037 306.159985 
L 176.139066 306.06627 
L 179.566585 305.925697 
L 187.792629 305.831982 
L 191.220147 305.691409 
L 195.33317 305.597694 
L 198.075184 305.503979 
L 204.244717 305.410264 
L 206.301229 305.363406 
L 208.35774 305.316549 
L 210.414251 305.082261 
L 214.527273 305.035403 
L 215.89828 304.941688 
L 220.696806 304.847973 
L 228.237346 304.426255 
L 233.035872 304.33254 
L 234.40688 304.238825 
L 236.463391 304.14511 
L 240.576413 303.957679 
L 243.318428 303.910822 
L 245.374939 303.723392 
L 256.342998 303.067386 
L 259.085012 302.973671 
L 263.883538 302.739383 
L 265.940049 302.645668 
L 272.795086 302.270807 
L 280.335627 302.177092 
L 283.077641 301.895946 
L 284.448649 301.802231 
L 293.360197 301.099368 
L 297.473219 300.583935 
L 300.215233 300.490219 
L 305.699263 299.787356 
L 309.126781 299.693641 
L 318.038329 298.990777 
L 322.151351 298.522202 
L 324.207862 298.475344 
L 325.57887 298.381629 
L 328.320885 298.287914 
L 329.691892 298.194199 
L 333.11941 297.866196 
L 333.804914 297.678765 
L 337.917936 297.491335 
L 341.345455 297.39762 
L 350.257002 296.882187 
L 352.313514 296.788472 
L 361.225061 296.273038 
L 366.023587 296.179323 
L 366.709091 296.03875 
L 372.19312 295.945035 
L 376.991646 295.710747 
L 384.532187 295.617032 
L 389.330713 295.382745 
L 394.814742 295.289029 
L 400.984275 294.961026 
L 405.097297 294.867311 
L 418.121867 294.070733 
L 423.605897 293.977017 
L 427.033415 293.649015 
L 428.404423 293.508442 
L 431.831941 293.461584 
L 434.573956 293.180439 
L 441.428993 292.805578 
L 445.542015 292.711863 
L 447.598526 292.665006 
L 449.655037 292.618148 
L 451.711548 292.430718 
L 457.195577 292.337003 
L 458.566585 292.102715 
L 459.937592 292.009 
L 462.679607 291.915284 
L 464.736118 291.821569 
L 466.107125 291.727854 
L 472.276658 291.634139 
L 473.647666 291.493566 
L 476.389681 291.399851 
L 477.075184 291.259279 
L 478.446192 291.212421 
L 479.131695 291.071848 
L 481.188206 290.978133 
L 492.841769 290.27527 
L 494.89828 290.181554 
L 498.325799 290.040982 
L 507.92285 289.947267 
L 512.721376 289.712979 
L 518.205405 289.619264 
L 520.94742 289.525549 
L 523.689435 289.478691 
L 525.060442 289.338118 
L 527.802457 289.244403 
L 534.657494 288.869543 
L 538.770516 288.822685 
L 540.827027 288.635255 
L 542.883538 288.588397 
L 547.682064 288.494682 
L 550.424079 288.400967 
L 558.650123 288.307252 
L 562.077641 288.166679 
L 566.190663 288.072964 
L 568.247174 287.838676 
L 572.360197 287.791819 
L 573.0457 287.651246 
L 574.416708 287.557531 
L 577.158722 287.463816 
L 585.384767 287.3701 
L 588.812285 287.229528 
L 600.465848 287.18267 
L 601.836855 287.088955 
L 603.893366 287.042097 
L 612.804914 286.948382 
L 614.175921 286.854667 
L 621.716462 286.760952 
L 624.458477 286.667237 
L 632.684521 286.620379 
L 634.055528 286.526664 
L 644.338084 286.479807 
L 646.394595 286.292376 
L 658.048157 286.198661 
L 660.104668 286.151804 
L 677.927764 286.058089 
L 680.669779 285.964373 
L 693.008845 285.870658 
L 694.379853 285.730086 
L 700.549386 285.63637 
L 708.089926 285.214652 
L 712.202948 285.120937 
L 714.944963 285.027222 
L 718.372482 284.980364 
L 719.743489 284.886649 
L 725.227518 284.792934 
L 730.711548 284.511789 
L 732.768059 284.464931 
L 734.139066 284.324358 
L 736.195577 284.277501 
L 738.252088 284.090071 
L 742.365111 283.996356 
L 745.107125 283.90264 
L 747.163636 283.90264 
L 747.163636 283.90264 
" clip-path="url(#pdc4a69b52c)" style="fill: none; stroke: #ff7f0e; stroke-width: 1.5; stroke-linecap: square"/>
   </g>
   <g id="patch_3">
    <path d="M 108 320.4 
L 108 43.2 
" style="fill: none; stroke: #a9a9a9; stroke-width: 0.8; stroke-linejoin: miter; stroke-linecap: square"/>
   </g>
   <g id="patch_4">
    <path d="M 777.6 320.4 
L 777.6 43.2 
" style="fill: none"/>
   </g>
   <g id="patch_5">
    <path d="M 108 320.4 
L 777.6 320.4 
" style="fill: none; stroke: #a9a9a9; stroke-width: 0.8; stroke-linejoin: miter; stroke-linecap: square"/>
   </g>
   <g id="patch_6">
    <path d="M 108 43.2 
L 777.6 43.2 
" style="fill: none"/>
   </g>
   <g id="text_22">
    <!-- get_subscribe history -->
    <g style="fill: #a9a9a9" transform="translate(378.6075 37.2) scale(0.12 -0.12)">
     <defs>
      <path id="DejaVuSans-67" d="M 2906 1791 
Q 2906 2416 2648 2759 
Q 2391 3103 1925 3103 
Q 1463 3103 1205 2759 
Q 947 2416 947 1791 
Q 947 1169 1205 825 
Q 1463 481 1925 481 
Q 2391 481 2648 825 
Q 2906 1169 2906 1791 
z
M 3481 434 
Q 3481 -459 3084 -895 
Q 2688 -1331 1869 -1331 
Q 1566 -1331 1297 -1286 
Q 1028 -1241 775 -1147 
L 775 -588 
Q 1028 -725 1275 -790 
Q 1522 -856 1778 -856 
Q 2344 -856 2625 -561 
Q 2906 -266 2906 331 
L 2906 616 
Q 2728 306 2450 153 
Q 2172 0 1784 0 
Q 1141 0 747 490 
Q 353 981 353 1791 
Q 353 2603 747 3093 
Q 1141 3584 1784 3584 
Q 2172 3584 2450 3431 
Q 2728 3278 2906 2969 
L 2906 3500 
L 3481 3500 
L 3481 434 
z
" transform="scale(0.015625)"/>
      <path id="DejaVuSans-65" d="M 3597 1894 
L 3597 1613 
L 953 1613 
Q 991 1019 1311 708 
Q 1631 397 2203 397 
Q 2534 397 2845 478 
Q 3156 559 3463 722 
L 3463 178 
Q 3153 47 2828 -22 
Q 2503 -91 2169 -91 
Q 1331 -91 842 396 
Q 353 884 353 1716 
Q 353 2575 817 3079 
Q 1281 3584 2069 3584 
Q 2775 3584 3186 3129 
Q 3597 2675 3597 1894 
z
M 3022 2063 
Q 3016 2534 2758 2815 
Q 2500 3097 2075 3097 
Q 1594 3097 1305 2825 
Q 1016 2553 972 2059 
L 3022 2063 
z
" transform="scale(0.015625)"/>
      <path id="DejaVuSans-74" d="M 1172 4494 
L 1172 3500 
L 2356 3500 
L 2356 3053 
L 1172 3053 
L 1172 1153 
Q 1172 725 1289 603 
Q 1406 481 1766 481 
L 2356 481 
L 2356 0 
L 1766 0 
Q 1100 0 847 248 
Q 594 497 594 1153 
L 594 3053 
L 172 3053 
L 172 3500 
L 594 3500 
L 594 4494 
L 1172 4494 
z
" transform="scale(0.015625)"/>
      <path id="DejaVuSans-5f" d="M 3263 -1063 
L 3263 -1509 
L -63 -1509 
L -63 -1063 
L 3263 -1063 
z
" transform="scale(0.015625)"/>
      <path id="DejaVuSans-73" d="M 2834 3397 
L 2834 2853 
Q 2591 2978 2328 3040 
Q 2066 3103 1784 3103 
Q 1356 3103 1142 2972 
Q 928 2841 928 2578 
Q 928 2378 1081 2264 
Q 1234 2150 1697 2047 
L 1894 2003 
Q 2506 1872 2764 1633 
Q 3022 1394 3022 966 
Q 3022 478 2636 193 
Q 2250 -91 1575 -91 
Q 1294 -91 989 -36 
Q 684 19 347 128 
L 347 722 
Q 666 556 975 473 
Q 1284 391 1588 391 
Q 1994 391 2212 530 
Q 2431 669 2431 922 
Q 2431 1156 2273 1281 
Q 2116 1406 1581 1522 
L 1381 1569 
Q 847 1681 609 1914 
Q 372 2147 372 2553 
Q 372 3047 722 3315 
Q 1072 3584 1716 3584 
Q 2034 3584 2315 3537 
Q 2597 3491 2834 3397 
z
" transform="scale(0.015625)"/>
      <path id="DejaVuSans-75" d="M 544 1381 
L 544 3500 
L 1119 3500 
L 1119 1403 
Q 1119 906 1312 657 
Q 1506 409 1894 409 
Q 2359 409 2629 706 
Q 2900 1003 2900 1516 
L 2900 3500 
L 3475 3500 
L 3475 0 
L 2900 0 
L 2900 538 
Q 2691 219 2414 64 
Q 2138 -91 1772 -91 
Q 1169 -91 856 284 
Q 544 659 544 1381 
z
M 1991 3584 
L 1991 3584 
z
" transform="scale(0.015625)"/>
      <path id="DejaVuSans-62" d="M 3116 1747 
Q 3116 2381 2855 2742 
Q 2594 3103 2138 3103 
Q 1681 3103 1420 2742 
Q 1159 2381 1159 1747 
Q 1159 1113 1420 752 
Q 1681 391 2138 391 
Q 2594 391 2855 752 
Q 3116 1113 3116 1747 
z
M 1159 2969 
Q 1341 3281 1617 3432 
Q 1894 3584 2278 3584 
Q 2916 3584 3314 3078 
Q 3713 2572 3713 1747 
Q 3713 922 3314 415 
Q 2916 -91 2278 -91 
Q 1894 -91 1617 61 
Q 1341 213 1159 525 
L 1159 0 
L 581 0 
L 581 4863 
L 1159 4863 
L 1159 2969 
z
" transform="scale(0.015625)"/>
      <path id="DejaVuSans-63" d="M 3122 3366 
L 3122 2828 
Q 2878 2963 2633 3030 
Q 2388 3097 2138 3097 
Q 1578 3097 1268 2742 
Q 959 2388 959 1747 
Q 959 1106 1268 751 
Q 1578 397 2138 397 
Q 2388 397 2633 464 
Q 2878 531 3122 666 
L 3122 134 
Q 2881 22 2623 -34 
Q 2366 -91 2075 -91 
Q 1284 -91 818 406 
Q 353 903 353 1747 
Q 353 2603 823 3093 
Q 1294 3584 2113 3584 
Q 2378 3584 2631 3529 
Q 2884 3475 3122 3366 
z
" transform="scale(0.015625)"/>
      <path id="DejaVuSans-72" d="M 2631 2963 
Q 2534 3019 2420 3045 
Q 2306 3072 2169 3072 
Q 1681 3072 1420 2755 
Q 1159 2438 1159 1844 
L 1159 0 
L 581 0 
L 581 3500 
L 1159 3500 
L 1159 2956 
Q 1341 3275 1631 3429 
Q 1922 3584 2338 3584 
Q 2397 3584 2469 3576 
Q 2541 3569 2628 3553 
L 2631 2963 
z
" transform="scale(0.015625)"/>
      <path id="DejaVuSans-69" d="M 603 3500 
L 1178 3500 
L 1178 0 
L 603 0 
L 603 3500 
z
M 603 4863 
L 1178 4863 
L 1178 4134 
L 603 4134 
L 603 4863 
z
" transform="scale(0.015625)"/>
      <path id="DejaVuSans-20" transform="scale(0.015625)"/>
      <path id="DejaVuSans-68" d="M 3513 2113 
L 3513 0 
L 2938 0 
L 2938 2094 
Q 2938 2591 2744 2837 
Q 2550 3084 2163 3084 
Q 1697 3084 1428 2787 
Q 1159 2491 1159 1978 
L 1159 0 
L 581 0 
L 581 4863 
L 1159 4863 
L 1159 2956 
Q 1366 3272 1645 3428 
Q 1925 3584 2291 3584 
Q 2894 3584 3203 3211 
Q 3513 2838 3513 2113 
z
" transform="scale(0.015625)"/>
      <path id="DejaVuSans-6f" d="M 1959 3097 
Q 1497 3097 1228 2736 
Q 959 2375 959 1747 
Q 959 1119 1226 758 
Q 1494 397 1959 397 
Q 2419 397 2687 759 
Q 2956 1122 2956 1747 
Q 2956 2369 2687 2733 
Q 2419 3097 1959 3097 
z
M 1959 3584 
Q 2709 3584 3137 3096 
Q 3566 2609 3566 1747 
Q 3566 888 3137 398 
Q 2709 -91 1959 -91 
Q 1206 -91 779 398 
Q 353 888 353 1747 
Q 353 2609 779 3096 
Q 1206 3584 1959 3584 
z
" transform="scale(0.015625)"/>
      <path id="DejaVuSans-79" d="M 2059 -325 
Q 1816 -950 1584 -1140 
Q 1353 -1331 966 -1331 
L 506 -1331 
L 506 -850 
L 844 -850 
Q 1081 -850 1212 -737 
Q 1344 -625 1503 -206 
L 1606 56 
L 191 3500 
L 800 3500 
L 1894 763 
L 2988 3500 
L 3597 3500 
L 2059 -325 
z
" transform="scale(0.015625)"/>
     </defs>
     <use xlink:href="#DejaVuSans-67"/>
     <use xlink:href="#DejaVuSans-65" x="63.476562"/>
     <use xlink:href="#DejaVuSans-74" x="125"/>
     <use xlink:href="#DejaVuSans-5f" x="164.208984"/>
     <use xlink:href="#DejaVuSans-73" x="214.208984"/>
     <use xlink:href="#DejaVuSans-75" x="266.308594"/>
     <use xlink:href="#DejaVuSans-62" x="329.6875"/>
     <use xlink:href="#DejaVuSans-73" x="393.164062"/>
     <use xlink:href="#DejaVuSans-63" x="445.263672"/>
     <use xlink:href="#DejaVuSans-72" x="500.244141"/>
     <use xlink:href="#DejaVuSans-69" x="541.357422"/>
     <use xlink:href="#DejaVuSans-62" x="569.140625"/>
     <use xlink:href="#DejaVuSans-65" x="632.617188"/>
     <use xlink:href="#DejaVuSans-20" x="694.140625"/>
     <use xlink:href="#DejaVuSans-68" x="725.927734"/>
     <use xlink:href="#DejaVuSans-69" x="789.306641"/>
     <use xlink:href="#DejaVuSans-73" x="817.089844"/>
     <use xlink:href="#DejaVuSans-74" x="869.189453"/>
     <use xlink:href="#DejaVuSans-6f" x="908.398438"/>
     <use xlink:href="#DejaVuSans-72" x="969.580078"/>
     <use xlink:href="#DejaVuSans-79" x="1010.693359"/>
    </g>
   </g>
   <g id="legend_1">
    <g id="line2d_45">
     <path d="M 815.08 328.498438 
L 825.08 328.498438 
L 835.08 328.498438 
" style="fill: none; stroke: #1f77b4; stroke-width: 1.5; stroke-linecap: square"/>
    </g>
    <g id="text_23">
     <!-- star -->
     <g style="fill: #a9a9a9" transform="translate(843.08 331.998438) scale(0.1 -0.1)">
      <defs>
       <path id="DejaVuSans-61" d="M 2194 1759 
Q 1497 1759 1228 1600 
Q 959 1441 959 1056 
Q 959 750 1161 570 
Q 1363 391 1709 391 
Q 2188 391 2477 730 
Q 2766 1069 2766 1631 
L 2766 1759 
L 2194 1759 
z
M 3341 1997 
L 3341 0 
L 2766 0 
L 2766 531 
Q 2569 213 2275 61 
Q 1981 -91 1556 -91 
Q 1019 -91 701 211 
Q 384 513 384 1019 
Q 384 1609 779 1909 
Q 1175 2209 1959 2209 
L 2766 2209 
L 2766 2266 
Q 2766 2663 2505 2880 
Q 2244 3097 1772 3097 
Q 1472 3097 1187 3025 
Q 903 2953 641 2809 
L 641 3341 
Q 956 3463 1253 3523 
Q 1550 3584 1831 3584 
Q 2591 3584 2966 3190 
Q 3341 2797 3341 1997 
z
" transform="scale(0.015625)"/>
      </defs>
      <use xlink:href="#DejaVuSans-73"/>
      <use xlink:href="#DejaVuSans-74" x="52.099609"/>
      <use xlink:href="#DejaVuSans-61" x="91.308594"/>
      <use xlink:href="#DejaVuSans-72" x="152.587891"/>
     </g>
    </g>
    <g id="line2d_46">
     <path d="M 815.08 343.176562 
L 825.08 343.176562 
L 835.08 343.176562 
" style="fill: none; stroke: #ff7f0e; stroke-width: 1.5; stroke-linecap: square"/>
    </g>
    <g id="text_24">
     <!-- fork -->
     <g style="fill: #a9a9a9" transform="translate(843.08 346.676562) scale(0.1 -0.1)">
      <defs>
       <path id="DejaVuSans-66" d="M 2375 4863 
L 2375 4384 
L 1825 4384 
Q 1516 4384 1395 4259 
Q 1275 4134 1275 3809 
L 1275 3500 
L 2222 3500 
L 2222 3053 
L 1275 3053 
L 1275 0 
L 697 0 
L 697 3053 
L 147 3053 
L 147 3500 
L 697 3500 
L 697 3744 
Q 697 4328 969 4595 
Q 1241 4863 1831 4863 
L 2375 4863 
z
" transform="scale(0.015625)"/>
       <path id="DejaVuSans-6b" d="M 581 4863 
L 1159 4863 
L 1159 1991 
L 2875 3500 
L 3609 3500 
L 1753 1863 
L 3688 0 
L 2938 0 
L 1159 1709 
L 1159 0 
L 581 0 
L 581 4863 
z
" transform="scale(0.015625)"/>
      </defs>
      <use xlink:href="#DejaVuSans-66"/>
      <use xlink:href="#DejaVuSans-6f" x="35.205078"/>
      <use xlink:href="#DejaVuSans-72" x="96.386719"/>
      <use xlink:href="#DejaVuSans-6b" x="137.5"/>
     </g>
    </g>
   </g>
  </g>
 </g>
 <defs>
  <clipPath id="pdc4a69b52c">
   <rect x="108" y="43.2" width="669.6" height="277.2"/>
  </clipPath>
 </defs>
</svg>
