<?xml version="1.0" encoding="utf-8" standalone="no"?>
<!DOCTYPE svg PUBLIC "-//W3C//DTD SVG 1.1//EN"
  "http://www.w3.org/Graphics/SVG/1.1/DTD/svg11.dtd">
<svg xmlns:xlink="http://www.w3.org/1999/xlink" width="864pt" height="360pt" viewBox="0 0 864 360" xmlns="http://www.w3.org/2000/svg" version="1.1">
 <metadata>
  <rdf:RDF xmlns:dc="http://purl.org/dc/elements/1.1/" xmlns:cc="http://creativecommons.org/ns#" xmlns:rdf="http://www.w3.org/1999/02/22-rdf-syntax-ns#">
   <cc:Work>
    <dc:type rdf:resource="http://purl.org/dc/dcmitype/StillImage"/>
    <dc:date>2023-12-25T20:05:12.277961</dc:date>
    <dc:format>image/svg+xml</dc:format>
    <dc:creator>
     <cc:Agent>
      <dc:title>Matplotlib v3.8.2, https://matplotlib.org/</dc:title>
     </cc:Agent>
    </dc:creator>
   </cc:Work>
  </rdf:RDF>
 </metadata>
 <defs>
  <style type="text/css">*{stroke-linejoin: round; stroke-linecap: butt}</style>
 </defs>
 <g id="figure_1">
  <g id="patch_1">
   <path d="M 0 360 
L 864 360 
L 864 0 
L 0 0 
L 0 360 
z
" style="fill: none; opacity: 0"/>
  </g>
  <g id="axes_1">
   <g id="patch_2">
    <path d="M 108 320.4 
L 777.6 320.4 
L 777.6 43.2 
L 108 43.2 
L 108 320.4 
z
" style="fill: none; opacity: 0"/>
   </g>
   <g id="matplotlib.axis_1">
    <g id="xtick_1">
     <g id="line2d_1">
      <path d="M 122.598437 320.4 
L 122.598437 43.2 
" clip-path="url(#pd65fb990b2)" style="fill: none; stroke-dasharray: 5.12,1.28,0.8,1.28; stroke-dashoffset: 0; stroke: #b0b0b0; stroke-width: 0.8"/>
     </g>
     <g id="line2d_2">
      <defs>
       <path id="mdc527dc44e" d="M 0 0 
L 0 3.5 
" style="stroke: #a9a9a9; stroke-width: 0.8"/>
      </defs>
      <g>
       <use xlink:href="#mdc527dc44e" x="122.598437" y="320.4" style="fill: #a9a9a9; stroke: #a9a9a9; stroke-width: 0.8"/>
      </g>
     </g>
     <g id="text_1">
      <!-- 2021-07 -->
      <g style="fill: #a9a9a9" transform="translate(101.707031 334.998438) scale(0.1 -0.1)">
       <defs>
        <path id="DejaVuSans-32" d="M 1228 531 
L 3431 531 
L 3431 0 
L 469 0 
L 469 531 
Q 828 903 1448 1529 
Q 2069 2156 2228 2338 
Q 2531 2678 2651 2914 
Q 2772 3150 2772 3378 
Q 2772 3750 2511 3984 
Q 2250 4219 1831 4219 
Q 1534 4219 1204 4116 
Q 875 4013 500 3803 
L 500 4441 
Q 881 4594 1212 4672 
Q 1544 4750 1819 4750 
Q 2544 4750 2975 4387 
Q 3406 4025 3406 3419 
Q 3406 3131 3298 2873 
Q 3191 2616 2906 2266 
Q 2828 2175 2409 1742 
Q 1991 1309 1228 531 
z
" transform="scale(0.015625)"/>
        <path id="DejaVuSans-30" d="M 2034 4250 
Q 1547 4250 1301 3770 
Q 1056 3291 1056 2328 
Q 1056 1369 1301 889 
Q 1547 409 2034 409 
Q 2525 409 2770 889 
Q 3016 1369 3016 2328 
Q 3016 3291 2770 3770 
Q 2525 4250 2034 4250 
z
M 2034 4750 
Q 2819 4750 3233 4129 
Q 3647 3509 3647 2328 
Q 3647 1150 3233 529 
Q 2819 -91 2034 -91 
Q 1250 -91 836 529 
Q 422 1150 422 2328 
Q 422 3509 836 4129 
Q 1250 4750 2034 4750 
z
" transform="scale(0.015625)"/>
        <path id="DejaVuSans-31" d="M 794 531 
L 1825 531 
L 1825 4091 
L 703 3866 
L 703 4441 
L 1819 4666 
L 2450 4666 
L 2450 531 
L 3481 531 
L 3481 0 
L 794 0 
L 794 531 
z
" transform="scale(0.015625)"/>
        <path id="DejaVuSans-2d" d="M 313 2009 
L 1997 2009 
L 1997 1497 
L 313 1497 
L 313 2009 
z
" transform="scale(0.015625)"/>
        <path id="DejaVuSans-37" d="M 525 4666 
L 3525 4666 
L 3525 4397 
L 1831 0 
L 1172 0 
L 2766 4134 
L 525 4134 
L 525 4666 
z
" transform="scale(0.015625)"/>
       </defs>
       <use xlink:href="#DejaVuSans-32"/>
       <use xlink:href="#DejaVuSans-30" x="63.623047"/>
       <use xlink:href="#DejaVuSans-32" x="127.246094"/>
       <use xlink:href="#DejaVuSans-31" x="190.869141"/>
       <use xlink:href="#DejaVuSans-2d" x="254.492188"/>
       <use xlink:href="#DejaVuSans-30" x="290.576172"/>
       <use xlink:href="#DejaVuSans-37" x="354.199219"/>
      </g>
     </g>
    </g>
    <g id="xtick_2">
     <g id="line2d_3">
      <path d="M 185.950144 320.4 
L 185.950144 43.2 
" clip-path="url(#pd65fb990b2)" style="fill: none; stroke-dasharray: 5.12,1.28,0.8,1.28; stroke-dashoffset: 0; stroke: #b0b0b0; stroke-width: 0.8"/>
     </g>
     <g id="line2d_4">
      <g>
       <use xlink:href="#mdc527dc44e" x="185.950144" y="320.4" style="fill: #a9a9a9; stroke: #a9a9a9; stroke-width: 0.8"/>
      </g>
     </g>
     <g id="text_2">
      <!-- 2021-10 -->
      <g style="fill: #a9a9a9" transform="translate(165.058738 334.998438) scale(0.1 -0.1)">
       <use xlink:href="#DejaVuSans-32"/>
       <use xlink:href="#DejaVuSans-30" x="63.623047"/>
       <use xlink:href="#DejaVuSans-32" x="127.246094"/>
       <use xlink:href="#DejaVuSans-31" x="190.869141"/>
       <use xlink:href="#DejaVuSans-2d" x="254.492188"/>
       <use xlink:href="#DejaVuSans-31" x="290.576172"/>
       <use xlink:href="#DejaVuSans-30" x="354.199219"/>
      </g>
     </g>
    </g>
    <g id="xtick_3">
     <g id="line2d_5">
      <path d="M 249.301851 320.4 
L 249.301851 43.2 
" clip-path="url(#pd65fb990b2)" style="fill: none; stroke-dasharray: 5.12,1.28,0.8,1.28; stroke-dashoffset: 0; stroke: #b0b0b0; stroke-width: 0.8"/>
     </g>
     <g id="line2d_6">
      <g>
       <use xlink:href="#mdc527dc44e" x="249.301851" y="320.4" style="fill: #a9a9a9; stroke: #a9a9a9; stroke-width: 0.8"/>
      </g>
     </g>
     <g id="text_3">
      <!-- 2022-01 -->
      <g style="fill: #a9a9a9" transform="translate(228.410445 334.998438) scale(0.1 -0.1)">
       <use xlink:href="#DejaVuSans-32"/>
       <use xlink:href="#DejaVuSans-30" x="63.623047"/>
       <use xlink:href="#DejaVuSans-32" x="127.246094"/>
       <use xlink:href="#DejaVuSans-32" x="190.869141"/>
       <use xlink:href="#DejaVuSans-2d" x="254.492188"/>
       <use xlink:href="#DejaVuSans-30" x="290.576172"/>
       <use xlink:href="#DejaVuSans-31" x="354.199219"/>
      </g>
     </g>
    </g>
    <g id="xtick_4">
     <g id="line2d_7">
      <path d="M 311.276347 320.4 
L 311.276347 43.2 
" clip-path="url(#pd65fb990b2)" style="fill: none; stroke-dasharray: 5.12,1.28,0.8,1.28; stroke-dashoffset: 0; stroke: #b0b0b0; stroke-width: 0.8"/>
     </g>
     <g id="line2d_8">
      <g>
       <use xlink:href="#mdc527dc44e" x="311.276347" y="320.4" style="fill: #a9a9a9; stroke: #a9a9a9; stroke-width: 0.8"/>
      </g>
     </g>
     <g id="text_4">
      <!-- 2022-04 -->
      <g style="fill: #a9a9a9" transform="translate(290.384941 334.998438) scale(0.1 -0.1)">
       <defs>
        <path id="DejaVuSans-34" d="M 2419 4116 
L 825 1625 
L 2419 1625 
L 2419 4116 
z
M 2253 4666 
L 3047 4666 
L 3047 1625 
L 3713 1625 
L 3713 1100 
L 3047 1100 
L 3047 0 
L 2419 0 
L 2419 1100 
L 313 1100 
L 313 1709 
L 2253 4666 
z
" transform="scale(0.015625)"/>
       </defs>
       <use xlink:href="#DejaVuSans-32"/>
       <use xlink:href="#DejaVuSans-30" x="63.623047"/>
       <use xlink:href="#DejaVuSans-32" x="127.246094"/>
       <use xlink:href="#DejaVuSans-32" x="190.869141"/>
       <use xlink:href="#DejaVuSans-2d" x="254.492188"/>
       <use xlink:href="#DejaVuSans-30" x="290.576172"/>
       <use xlink:href="#DejaVuSans-34" x="354.199219"/>
      </g>
     </g>
    </g>
    <g id="xtick_5">
     <g id="line2d_9">
      <path d="M 373.939449 320.4 
L 373.939449 43.2 
" clip-path="url(#pd65fb990b2)" style="fill: none; stroke-dasharray: 5.12,1.28,0.8,1.28; stroke-dashoffset: 0; stroke: #b0b0b0; stroke-width: 0.8"/>
     </g>
     <g id="line2d_10">
      <g>
       <use xlink:href="#mdc527dc44e" x="373.939449" y="320.4" style="fill: #a9a9a9; stroke: #a9a9a9; stroke-width: 0.8"/>
      </g>
     </g>
     <g id="text_5">
      <!-- 2022-07 -->
      <g style="fill: #a9a9a9" transform="translate(353.048043 334.998438) scale(0.1 -0.1)">
       <use xlink:href="#DejaVuSans-32"/>
       <use xlink:href="#DejaVuSans-30" x="63.623047"/>
       <use xlink:href="#DejaVuSans-32" x="127.246094"/>
       <use xlink:href="#DejaVuSans-32" x="190.869141"/>
       <use xlink:href="#DejaVuSans-2d" x="254.492188"/>
       <use xlink:href="#DejaVuSans-30" x="290.576172"/>
       <use xlink:href="#DejaVuSans-37" x="354.199219"/>
      </g>
     </g>
    </g>
    <g id="xtick_6">
     <g id="line2d_11">
      <path d="M 437.291156 320.4 
L 437.291156 43.2 
" clip-path="url(#pd65fb990b2)" style="fill: none; stroke-dasharray: 5.12,1.28,0.8,1.28; stroke-dashoffset: 0; stroke: #b0b0b0; stroke-width: 0.8"/>
     </g>
     <g id="line2d_12">
      <g>
       <use xlink:href="#mdc527dc44e" x="437.291156" y="320.4" style="fill: #a9a9a9; stroke: #a9a9a9; stroke-width: 0.8"/>
      </g>
     </g>
     <g id="text_6">
      <!-- 2022-10 -->
      <g style="fill: #a9a9a9" transform="translate(416.39975 334.998438) scale(0.1 -0.1)">
       <use xlink:href="#DejaVuSans-32"/>
       <use xlink:href="#DejaVuSans-30" x="63.623047"/>
       <use xlink:href="#DejaVuSans-32" x="127.246094"/>
       <use xlink:href="#DejaVuSans-32" x="190.869141"/>
       <use xlink:href="#DejaVuSans-2d" x="254.492188"/>
       <use xlink:href="#DejaVuSans-31" x="290.576172"/>
       <use xlink:href="#DejaVuSans-30" x="354.199219"/>
      </g>
     </g>
    </g>
    <g id="xtick_7">
     <g id="line2d_13">
      <path d="M 500.642863 320.4 
L 500.642863 43.2 
" clip-path="url(#pd65fb990b2)" style="fill: none; stroke-dasharray: 5.12,1.28,0.8,1.28; stroke-dashoffset: 0; stroke: #b0b0b0; stroke-width: 0.8"/>
     </g>
     <g id="line2d_14">
      <g>
       <use xlink:href="#mdc527dc44e" x="500.642863" y="320.4" style="fill: #a9a9a9; stroke: #a9a9a9; stroke-width: 0.8"/>
      </g>
     </g>
     <g id="text_7">
      <!-- 2023-01 -->
      <g style="fill: #a9a9a9" transform="translate(479.751457 334.998438) scale(0.1 -0.1)">
       <defs>
        <path id="DejaVuSans-33" d="M 2597 2516 
Q 3050 2419 3304 2112 
Q 3559 1806 3559 1356 
Q 3559 666 3084 287 
Q 2609 -91 1734 -91 
Q 1441 -91 1130 -33 
Q 819 25 488 141 
L 488 750 
Q 750 597 1062 519 
Q 1375 441 1716 441 
Q 2309 441 2620 675 
Q 2931 909 2931 1356 
Q 2931 1769 2642 2001 
Q 2353 2234 1838 2234 
L 1294 2234 
L 1294 2753 
L 1863 2753 
Q 2328 2753 2575 2939 
Q 2822 3125 2822 3475 
Q 2822 3834 2567 4026 
Q 2313 4219 1838 4219 
Q 1578 4219 1281 4162 
Q 984 4106 628 3988 
L 628 4550 
Q 988 4650 1302 4700 
Q 1616 4750 1894 4750 
Q 2613 4750 3031 4423 
Q 3450 4097 3450 3541 
Q 3450 3153 3228 2886 
Q 3006 2619 2597 2516 
z
" transform="scale(0.015625)"/>
       </defs>
       <use xlink:href="#DejaVuSans-32"/>
       <use xlink:href="#DejaVuSans-30" x="63.623047"/>
       <use xlink:href="#DejaVuSans-32" x="127.246094"/>
       <use xlink:href="#DejaVuSans-33" x="190.869141"/>
       <use xlink:href="#DejaVuSans-2d" x="254.492188"/>
       <use xlink:href="#DejaVuSans-30" x="290.576172"/>
       <use xlink:href="#DejaVuSans-31" x="354.199219"/>
      </g>
     </g>
    </g>
    <g id="xtick_8">
     <g id="line2d_15">
      <path d="M 562.617359 320.4 
L 562.617359 43.2 
" clip-path="url(#pd65fb990b2)" style="fill: none; stroke-dasharray: 5.12,1.28,0.8,1.28; stroke-dashoffset: 0; stroke: #b0b0b0; stroke-width: 0.8"/>
     </g>
     <g id="line2d_16">
      <g>
       <use xlink:href="#mdc527dc44e" x="562.617359" y="320.4" style="fill: #a9a9a9; stroke: #a9a9a9; stroke-width: 0.8"/>
      </g>
     </g>
     <g id="text_8">
      <!-- 2023-04 -->
      <g style="fill: #a9a9a9" transform="translate(541.725953 334.998438) scale(0.1 -0.1)">
       <use xlink:href="#DejaVuSans-32"/>
       <use xlink:href="#DejaVuSans-30" x="63.623047"/>
       <use xlink:href="#DejaVuSans-32" x="127.246094"/>
       <use xlink:href="#DejaVuSans-33" x="190.869141"/>
       <use xlink:href="#DejaVuSans-2d" x="254.492188"/>
       <use xlink:href="#DejaVuSans-30" x="290.576172"/>
       <use xlink:href="#DejaVuSans-34" x="354.199219"/>
      </g>
     </g>
    </g>
    <g id="xtick_9">
     <g id="line2d_17">
      <path d="M 625.280461 320.4 
L 625.280461 43.2 
" clip-path="url(#pd65fb990b2)" style="fill: none; stroke-dasharray: 5.12,1.28,0.8,1.28; stroke-dashoffset: 0; stroke: #b0b0b0; stroke-width: 0.8"/>
     </g>
     <g id="line2d_18">
      <g>
       <use xlink:href="#mdc527dc44e" x="625.280461" y="320.4" style="fill: #a9a9a9; stroke: #a9a9a9; stroke-width: 0.8"/>
      </g>
     </g>
     <g id="text_9">
      <!-- 2023-07 -->
      <g style="fill: #a9a9a9" transform="translate(604.389054 334.998438) scale(0.1 -0.1)">
       <use xlink:href="#DejaVuSans-32"/>
       <use xlink:href="#DejaVuSans-30" x="63.623047"/>
       <use xlink:href="#DejaVuSans-32" x="127.246094"/>
       <use xlink:href="#DejaVuSans-33" x="190.869141"/>
       <use xlink:href="#DejaVuSans-2d" x="254.492188"/>
       <use xlink:href="#DejaVuSans-30" x="290.576172"/>
       <use xlink:href="#DejaVuSans-37" x="354.199219"/>
      </g>
     </g>
    </g>
    <g id="xtick_10">
     <g id="line2d_19">
      <path d="M 688.632168 320.4 
L 688.632168 43.2 
" clip-path="url(#pd65fb990b2)" style="fill: none; stroke-dasharray: 5.12,1.28,0.8,1.28; stroke-dashoffset: 0; stroke: #b0b0b0; stroke-width: 0.8"/>
     </g>
     <g id="line2d_20">
      <g>
       <use xlink:href="#mdc527dc44e" x="688.632168" y="320.4" style="fill: #a9a9a9; stroke: #a9a9a9; stroke-width: 0.8"/>
      </g>
     </g>
     <g id="text_10">
      <!-- 2023-10 -->
      <g style="fill: #a9a9a9" transform="translate(667.740762 334.998438) scale(0.1 -0.1)">
       <use xlink:href="#DejaVuSans-32"/>
       <use xlink:href="#DejaVuSans-30" x="63.623047"/>
       <use xlink:href="#DejaVuSans-32" x="127.246094"/>
       <use xlink:href="#DejaVuSans-33" x="190.869141"/>
       <use xlink:href="#DejaVuSans-2d" x="254.492188"/>
       <use xlink:href="#DejaVuSans-31" x="290.576172"/>
       <use xlink:href="#DejaVuSans-30" x="354.199219"/>
      </g>
     </g>
    </g>
    <g id="xtick_11">
     <g id="line2d_21">
      <path d="M 751.983875 320.4 
L 751.983875 43.2 
" clip-path="url(#pd65fb990b2)" style="fill: none; stroke-dasharray: 5.12,1.28,0.8,1.28; stroke-dashoffset: 0; stroke: #b0b0b0; stroke-width: 0.8"/>
     </g>
     <g id="line2d_22">
      <g>
       <use xlink:href="#mdc527dc44e" x="751.983875" y="320.4" style="fill: #a9a9a9; stroke: #a9a9a9; stroke-width: 0.8"/>
      </g>
     </g>
     <g id="text_11">
      <!-- 2024-01 -->
      <g style="fill: #a9a9a9" transform="translate(731.092469 334.998438) scale(0.1 -0.1)">
       <use xlink:href="#DejaVuSans-32"/>
       <use xlink:href="#DejaVuSans-30" x="63.623047"/>
       <use xlink:href="#DejaVuSans-32" x="127.246094"/>
       <use xlink:href="#DejaVuSans-34" x="190.869141"/>
       <use xlink:href="#DejaVuSans-2d" x="254.492188"/>
       <use xlink:href="#DejaVuSans-30" x="290.576172"/>
       <use xlink:href="#DejaVuSans-31" x="354.199219"/>
      </g>
     </g>
    </g>
   </g>
   <g id="matplotlib.axis_2">
    <g id="ytick_1">
     <g id="line2d_23">
      <path d="M 108 307.846997 
L 777.6 307.846997 
" clip-path="url(#pd65fb990b2)" style="fill: none; stroke-dasharray: 5.12,1.28,0.8,1.28; stroke-dashoffset: 0; stroke: #b0b0b0; stroke-width: 0.8"/>
     </g>
     <g id="line2d_24">
      <defs>
       <path id="m6ffb68d5d5" d="M 0 0 
L -3.5 0 
" style="stroke: #a9a9a9; stroke-width: 0.8"/>
      </defs>
      <g>
       <use xlink:href="#m6ffb68d5d5" x="108" y="307.846997" style="fill: #a9a9a9; stroke: #a9a9a9; stroke-width: 0.8"/>
      </g>
     </g>
     <g id="text_12">
      <!-- 0 -->
      <g style="fill: #a9a9a9" transform="translate(94.6375 311.646216) scale(0.1 -0.1)">
       <use xlink:href="#DejaVuSans-30"/>
      </g>
     </g>
    </g>
    <g id="ytick_2">
     <g id="line2d_25">
      <path d="M 108 279.648564 
L 777.6 279.648564 
" clip-path="url(#pd65fb990b2)" style="fill: none; stroke-dasharray: 5.12,1.28,0.8,1.28; stroke-dashoffset: 0; stroke: #b0b0b0; stroke-width: 0.8"/>
     </g>
     <g id="line2d_26">
      <g>
       <use xlink:href="#m6ffb68d5d5" x="108" y="279.648564" style="fill: #a9a9a9; stroke: #a9a9a9; stroke-width: 0.8"/>
      </g>
     </g>
     <g id="text_13">
      <!-- 600 -->
      <g style="fill: #a9a9a9" transform="translate(81.9125 283.447783) scale(0.1 -0.1)">
       <defs>
        <path id="DejaVuSans-36" d="M 2113 2584 
Q 1688 2584 1439 2293 
Q 1191 2003 1191 1497 
Q 1191 994 1439 701 
Q 1688 409 2113 409 
Q 2538 409 2786 701 
Q 3034 994 3034 1497 
Q 3034 2003 2786 2293 
Q 2538 2584 2113 2584 
z
M 3366 4563 
L 3366 3988 
Q 3128 4100 2886 4159 
Q 2644 4219 2406 4219 
Q 1781 4219 1451 3797 
Q 1122 3375 1075 2522 
Q 1259 2794 1537 2939 
Q 1816 3084 2150 3084 
Q 2853 3084 3261 2657 
Q 3669 2231 3669 1497 
Q 3669 778 3244 343 
Q 2819 -91 2113 -91 
Q 1303 -91 875 529 
Q 447 1150 447 2328 
Q 447 3434 972 4092 
Q 1497 4750 2381 4750 
Q 2619 4750 2861 4703 
Q 3103 4656 3366 4563 
z
" transform="scale(0.015625)"/>
       </defs>
       <use xlink:href="#DejaVuSans-36"/>
       <use xlink:href="#DejaVuSans-30" x="63.623047"/>
       <use xlink:href="#DejaVuSans-30" x="127.246094"/>
      </g>
     </g>
    </g>
    <g id="ytick_3">
     <g id="line2d_27">
      <path d="M 108 251.450131 
L 777.6 251.450131 
" clip-path="url(#pd65fb990b2)" style="fill: none; stroke-dasharray: 5.12,1.28,0.8,1.28; stroke-dashoffset: 0; stroke: #b0b0b0; stroke-width: 0.8"/>
     </g>
     <g id="line2d_28">
      <g>
       <use xlink:href="#m6ffb68d5d5" x="108" y="251.450131" style="fill: #a9a9a9; stroke: #a9a9a9; stroke-width: 0.8"/>
      </g>
     </g>
     <g id="text_14">
      <!-- 1200 -->
      <g style="fill: #a9a9a9" transform="translate(75.55 255.249349) scale(0.1 -0.1)">
       <use xlink:href="#DejaVuSans-31"/>
       <use xlink:href="#DejaVuSans-32" x="63.623047"/>
       <use xlink:href="#DejaVuSans-30" x="127.246094"/>
       <use xlink:href="#DejaVuSans-30" x="190.869141"/>
      </g>
     </g>
    </g>
    <g id="ytick_4">
     <g id="line2d_29">
      <path d="M 108 223.251697 
L 777.6 223.251697 
" clip-path="url(#pd65fb990b2)" style="fill: none; stroke-dasharray: 5.12,1.28,0.8,1.28; stroke-dashoffset: 0; stroke: #b0b0b0; stroke-width: 0.8"/>
     </g>
     <g id="line2d_30">
      <g>
       <use xlink:href="#m6ffb68d5d5" x="108" y="223.251697" style="fill: #a9a9a9; stroke: #a9a9a9; stroke-width: 0.8"/>
      </g>
     </g>
     <g id="text_15">
      <!-- 1800 -->
      <g style="fill: #a9a9a9" transform="translate(75.55 227.050916) scale(0.1 -0.1)">
       <defs>
        <path id="DejaVuSans-38" d="M 2034 2216 
Q 1584 2216 1326 1975 
Q 1069 1734 1069 1313 
Q 1069 891 1326 650 
Q 1584 409 2034 409 
Q 2484 409 2743 651 
Q 3003 894 3003 1313 
Q 3003 1734 2745 1975 
Q 2488 2216 2034 2216 
z
M 1403 2484 
Q 997 2584 770 2862 
Q 544 3141 544 3541 
Q 544 4100 942 4425 
Q 1341 4750 2034 4750 
Q 2731 4750 3128 4425 
Q 3525 4100 3525 3541 
Q 3525 3141 3298 2862 
Q 3072 2584 2669 2484 
Q 3125 2378 3379 2068 
Q 3634 1759 3634 1313 
Q 3634 634 3220 271 
Q 2806 -91 2034 -91 
Q 1263 -91 848 271 
Q 434 634 434 1313 
Q 434 1759 690 2068 
Q 947 2378 1403 2484 
z
M 1172 3481 
Q 1172 3119 1398 2916 
Q 1625 2713 2034 2713 
Q 2441 2713 2670 2916 
Q 2900 3119 2900 3481 
Q 2900 3844 2670 4047 
Q 2441 4250 2034 4250 
Q 1625 4250 1398 4047 
Q 1172 3844 1172 3481 
z
" transform="scale(0.015625)"/>
       </defs>
       <use xlink:href="#DejaVuSans-31"/>
       <use xlink:href="#DejaVuSans-38" x="63.623047"/>
       <use xlink:href="#DejaVuSans-30" x="127.246094"/>
       <use xlink:href="#DejaVuSans-30" x="190.869141"/>
      </g>
     </g>
    </g>
    <g id="ytick_5">
     <g id="line2d_31">
      <path d="M 108 195.053264 
L 777.6 195.053264 
" clip-path="url(#pd65fb990b2)" style="fill: none; stroke-dasharray: 5.12,1.28,0.8,1.28; stroke-dashoffset: 0; stroke: #b0b0b0; stroke-width: 0.8"/>
     </g>
     <g id="line2d_32">
      <g>
       <use xlink:href="#m6ffb68d5d5" x="108" y="195.053264" style="fill: #a9a9a9; stroke: #a9a9a9; stroke-width: 0.8"/>
      </g>
     </g>
     <g id="text_16">
      <!-- 2400 -->
      <g style="fill: #a9a9a9" transform="translate(75.55 198.852482) scale(0.1 -0.1)">
       <use xlink:href="#DejaVuSans-32"/>
       <use xlink:href="#DejaVuSans-34" x="63.623047"/>
       <use xlink:href="#DejaVuSans-30" x="127.246094"/>
       <use xlink:href="#DejaVuSans-30" x="190.869141"/>
      </g>
     </g>
    </g>
    <g id="ytick_6">
     <g id="line2d_33">
      <path d="M 108 166.85483 
L 777.6 166.85483 
" clip-path="url(#pd65fb990b2)" style="fill: none; stroke-dasharray: 5.12,1.28,0.8,1.28; stroke-dashoffset: 0; stroke: #b0b0b0; stroke-width: 0.8"/>
     </g>
     <g id="line2d_34">
      <g>
       <use xlink:href="#m6ffb68d5d5" x="108" y="166.85483" style="fill: #a9a9a9; stroke: #a9a9a9; stroke-width: 0.8"/>
      </g>
     </g>
     <g id="text_17">
      <!-- 3000 -->
      <g style="fill: #a9a9a9" transform="translate(75.55 170.654049) scale(0.1 -0.1)">
       <use xlink:href="#DejaVuSans-33"/>
       <use xlink:href="#DejaVuSans-30" x="63.623047"/>
       <use xlink:href="#DejaVuSans-30" x="127.246094"/>
       <use xlink:href="#DejaVuSans-30" x="190.869141"/>
      </g>
     </g>
    </g>
    <g id="ytick_7">
     <g id="line2d_35">
      <path d="M 108 138.656397 
L 777.6 138.656397 
" clip-path="url(#pd65fb990b2)" style="fill: none; stroke-dasharray: 5.12,1.28,0.8,1.28; stroke-dashoffset: 0; stroke: #b0b0b0; stroke-width: 0.8"/>
     </g>
     <g id="line2d_36">
      <g>
       <use xlink:href="#m6ffb68d5d5" x="108" y="138.656397" style="fill: #a9a9a9; stroke: #a9a9a9; stroke-width: 0.8"/>
      </g>
     </g>
     <g id="text_18">
      <!-- 3600 -->
      <g style="fill: #a9a9a9" transform="translate(75.55 142.455616) scale(0.1 -0.1)">
       <use xlink:href="#DejaVuSans-33"/>
       <use xlink:href="#DejaVuSans-36" x="63.623047"/>
       <use xlink:href="#DejaVuSans-30" x="127.246094"/>
       <use xlink:href="#DejaVuSans-30" x="190.869141"/>
      </g>
     </g>
    </g>
    <g id="ytick_8">
     <g id="line2d_37">
      <path d="M 108 110.457963 
L 777.6 110.457963 
" clip-path="url(#pd65fb990b2)" style="fill: none; stroke-dasharray: 5.12,1.28,0.8,1.28; stroke-dashoffset: 0; stroke: #b0b0b0; stroke-width: 0.8"/>
     </g>
     <g id="line2d_38">
      <g>
       <use xlink:href="#m6ffb68d5d5" x="108" y="110.457963" style="fill: #a9a9a9; stroke: #a9a9a9; stroke-width: 0.8"/>
      </g>
     </g>
     <g id="text_19">
      <!-- 4200 -->
      <g style="fill: #a9a9a9" transform="translate(75.55 114.257182) scale(0.1 -0.1)">
       <use xlink:href="#DejaVuSans-34"/>
       <use xlink:href="#DejaVuSans-32" x="63.623047"/>
       <use xlink:href="#DejaVuSans-30" x="127.246094"/>
       <use xlink:href="#DejaVuSans-30" x="190.869141"/>
      </g>
     </g>
    </g>
    <g id="ytick_9">
     <g id="line2d_39">
      <path d="M 108 82.25953 
L 777.6 82.25953 
" clip-path="url(#pd65fb990b2)" style="fill: none; stroke-dasharray: 5.12,1.28,0.8,1.28; stroke-dashoffset: 0; stroke: #b0b0b0; stroke-width: 0.8"/>
     </g>
     <g id="line2d_40">
      <g>
       <use xlink:href="#m6ffb68d5d5" x="108" y="82.25953" style="fill: #a9a9a9; stroke: #a9a9a9; stroke-width: 0.8"/>
      </g>
     </g>
     <g id="text_20">
      <!-- 4800 -->
      <g style="fill: #a9a9a9" transform="translate(75.55 86.058749) scale(0.1 -0.1)">
       <use xlink:href="#DejaVuSans-34"/>
       <use xlink:href="#DejaVuSans-38" x="63.623047"/>
       <use xlink:href="#DejaVuSans-30" x="127.246094"/>
       <use xlink:href="#DejaVuSans-30" x="190.869141"/>
      </g>
     </g>
    </g>
    <g id="ytick_10">
     <g id="line2d_41">
      <path d="M 108 54.061097 
L 777.6 54.061097 
" clip-path="url(#pd65fb990b2)" style="fill: none; stroke-dasharray: 5.12,1.28,0.8,1.28; stroke-dashoffset: 0; stroke: #b0b0b0; stroke-width: 0.8"/>
     </g>
     <g id="line2d_42">
      <g>
       <use xlink:href="#m6ffb68d5d5" x="108" y="54.061097" style="fill: #a9a9a9; stroke: #a9a9a9; stroke-width: 0.8"/>
      </g>
     </g>
     <g id="text_21">
      <!-- 5400 -->
      <g style="fill: #a9a9a9" transform="translate(75.55 57.860315) scale(0.1 -0.1)">
       <defs>
        <path id="DejaVuSans-35" d="M 691 4666 
L 3169 4666 
L 3169 4134 
L 1269 4134 
L 1269 2991 
Q 1406 3038 1543 3061 
Q 1681 3084 1819 3084 
Q 2600 3084 3056 2656 
Q 3513 2228 3513 1497 
Q 3513 744 3044 326 
Q 2575 -91 1722 -91 
Q 1428 -91 1123 -41 
Q 819 9 494 109 
L 494 744 
Q 775 591 1075 516 
Q 1375 441 1709 441 
Q 2250 441 2565 725 
Q 2881 1009 2881 1497 
Q 2881 1984 2565 2268 
Q 2250 2553 1709 2553 
Q 1456 2553 1204 2497 
Q 953 2441 691 2322 
L 691 4666 
z
" transform="scale(0.015625)"/>
       </defs>
       <use xlink:href="#DejaVuSans-35"/>
       <use xlink:href="#DejaVuSans-34" x="63.623047"/>
       <use xlink:href="#DejaVuSans-30" x="127.246094"/>
       <use xlink:href="#DejaVuSans-30" x="190.869141"/>
      </g>
     </g>
    </g>
   </g>
   <g id="line2d_43">
    <path d="M 138.436364 307.706005 
L 142.567997 307.377023 
L 143.256602 307.095039 
L 145.322419 306.860052 
L 150.142657 305.967102 
L 153.585685 305.63812 
L 154.27429 305.309138 
L 154.962896 305.121149 
L 155.651501 304.275196 
L 156.340107 303.805222 
L 157.028712 302.348303 
L 157.717318 302.254308 
L 158.405923 301.737337 
L 159.783135 301.079373 
L 161.160346 300.045431 
L 161.848951 299.387467 
L 163.226162 298.729504 
L 163.914768 298.44752 
L 164.603373 297.930548 
L 167.357795 296.755614 
L 168.046401 295.674674 
L 169.423612 294.687728 
L 170.112217 294.358747 
L 176.998272 293.418799 
L 177.686878 293.089817 
L 182.507116 292.713838 
L 183.884327 292.337859 
L 185.261538 292.055875 
L 190.770383 291.350914 
L 191.458988 290.974935 
L 192.147594 290.88094 
L 192.836199 290.598956 
L 194.21341 290.363969 
L 194.902016 290.316971 
L 195.590621 290.081984 
L 198.345043 289.659008 
L 199.722254 289.283029 
L 201.788071 289.095039 
L 203.165282 288.954047 
L 203.853887 288.766057 
L 204.542493 288.71906 
L 206.608309 288.108094 
L 210.739942 287.497128 
L 211.428548 287.309138 
L 212.117153 286.369191 
L 214.18297 285.617232 
L 216.248787 285.053264 
L 216.937392 284.724282 
L 217.625998 284.677285 
L 221.069025 283.737337 
L 222.446236 283.643342 
L 223.134842 283.549347 
L 225.200658 282.938381 
L 227.95508 282.280418 
L 228.643686 281.998433 
L 229.332291 281.904439 
L 230.020897 281.575457 
L 236.906952 280.541514 
L 240.349979 279.554569 
L 241.038585 279.131593 
L 243.793007 278.379634 
L 245.170218 277.580679 
L 245.858824 277.110705 
L 246.547429 277.01671 
L 247.236035 276.781723 
L 249.301851 276.405744 
L 249.990457 276.076762 
L 251.367668 275.841775 
L 252.056273 275.465796 
L 253.433484 275.04282 
L 254.12209 274.948825 
L 255.499301 274.572846 
L 256.876512 274.243864 
L 257.565117 274.149869 
L 258.942328 273.585901 
L 259.630934 273.444909 
L 260.319539 273.162924 
L 261.008145 273.06893 
L 261.69675 272.739948 
L 262.385356 272.551958 
L 263.762567 272.457963 
L 265.139778 271.98799 
L 266.516989 271.893995 
L 267.205594 271.565013 
L 269.960016 271.095039 
L 272.714439 270.860052 
L 273.403044 270.71906 
L 274.780255 270.061097 
L 282.354916 266.912272 
L 283.043521 266.536292 
L 283.732127 265.784334 
L 284.420732 264.656397 
L 285.109338 263.763446 
L 285.797943 263.575457 
L 286.486549 263.575457 
L 287.86376 262.588512 
L 288.552365 262.400522 
L 289.240971 262.024543 
L 289.929576 261.883551 
L 290.618182 261.272585 
L 291.306787 261.084595 
L 293.372604 260.09765 
L 294.061209 259.251697 
L 294.749815 258.217755 
L 295.43842 257.794778 
L 296.127026 256.666841 
L 296.815631 255.96188 
L 297.504237 255.632898 
L 298.192842 255.444909 
L 299.570053 254.645953 
L 300.258659 254.316971 
L 303.013081 252.296084 
L 303.701687 251.309138 
L 304.390292 249.758225 
L 305.078898 248.771279 
L 305.767503 248.254308 
L 306.456109 247.972324 
L 309.210531 245.622454 
L 309.899136 245.15248 
L 311.276347 243.977546 
L 311.964953 243.037598 
L 313.342164 241.862663 
L 316.096586 240.12376 
L 316.785191 239.512794 
L 317.473797 239.371802 
L 319.539613 238.290862 
L 321.60543 237.256919 
L 322.982641 235.98799 
L 323.671246 235.189034 
L 325.048457 234.249086 
L 325.737063 234.061097 
L 326.425668 233.732115 
L 327.114274 233.215144 
L 328.491485 232.463185 
L 329.18009 232.369191 
L 330.557302 231.617232 
L 331.245907 231.241253 
L 331.934513 230.536292 
L 332.623118 230.113316 
L 333.311724 229.878329 
L 334.000329 229.408355 
L 336.754751 227.998433 
L 337.443357 227.387467 
L 340.197779 226.44752 
L 340.886384 225.977546 
L 341.57499 225.836554 
L 342.952201 225.36658 
L 345.018017 224.567624 
L 347.083834 223.815666 
L 348.461045 223.580679 
L 349.838256 222.405744 
L 351.215467 221.747781 
L 353.281283 220.572846 
L 354.658494 220.196867 
L 355.3471 219.77389 
L 356.035705 219.585901 
L 357.412916 218.69295 
L 358.101522 218.316971 
L 361.54455 217.518016 
L 363.610366 216.343081 
L 364.298972 216.249086 
L 364.987577 216.014099 
L 366.364788 215.732115 
L 368.430605 214.228198 
L 370.496421 213.758225 
L 371.185027 213.523238 
L 371.873632 213.006266 
L 376.005265 211.690339 
L 376.693871 211.643342 
L 381.514109 209.951436 
L 382.202715 209.622454 
L 384.268531 209.15248 
L 385.645742 208.823499 
L 386.334348 208.494517 
L 387.022954 208.353525 
L 389.08877 207.413577 
L 391.154587 206.426632 
L 391.843192 205.956658 
L 392.531798 205.768668 
L 394.597614 204.687728 
L 395.974825 204.358747 
L 397.352036 203.653786 
L 398.729247 203.277807 
L 399.417853 203.183812 
L 400.106458 202.713838 
L 400.795064 202.384856 
L 401.483669 202.243864 
L 402.86088 201.679896 
L 403.549486 201.538903 
L 404.238091 201.162924 
L 406.992513 200.739948 
L 408.369724 200.081984 
L 409.05833 199.518016 
L 409.746935 198.343081 
L 411.124146 198.061097 
L 411.812752 197.920104 
L 414.567174 196.510183 
L 415.25578 196.369191 
L 420.764624 193.737337 
L 422.83044 193.31436 
L 424.207651 192.656397 
L 424.896257 192.374413 
L 425.584862 192.280418 
L 428.339284 191.058486 
L 429.716495 190.118538 
L 430.405101 189.789556 
L 431.093706 189.695561 
L 431.782312 189.460574 
L 432.470917 189.413577 
L 435.913945 188.520627 
L 436.60255 188.003655 
L 437.979761 187.533681 
L 440.045578 186.875718 
L 440.734183 186.452742 
L 441.422789 186.264752 
L 442.111394 185.794778 
L 442.8 185.512794 
L 443.488606 185.089817 
L 444.865817 184.619843 
L 446.931633 183.96188 
L 447.620239 183.632898 
L 448.308844 183.115927 
L 448.99745 182.410966 
L 449.686055 181.98799 
L 450.374661 181.846997 
L 451.751872 180.813055 
L 452.440477 180.672063 
L 453.129083 179.63812 
L 453.817688 179.356136 
L 454.506294 178.839164 
L 455.194899 178.74517 
L 455.883505 178.275196 
L 456.57211 177.946214 
L 457.260716 177.805222 
L 457.949321 177.523238 
L 458.637927 177.006266 
L 459.326532 176.771279 
L 461.392349 175.408355 
L 464.146771 174.045431 
L 464.835376 173.951436 
L 466.212587 173.34047 
L 466.901193 172.964491 
L 467.589798 171.836554 
L 468.278404 171.225587 
L 468.967009 170.849608 
L 469.655615 170.708616 
L 471.032826 169.862663 
L 471.721432 169.721671 
L 473.098643 169.063708 
L 475.164459 168.217755 
L 476.54167 167.277807 
L 477.918881 165.867885 
L 479.296092 165.021932 
L 479.984698 164.598956 
L 480.673303 163.893995 
L 481.361909 163.424021 
L 482.73912 162.296084 
L 483.427725 162.014099 
L 484.116331 161.262141 
L 484.804936 160.74517 
L 486.182147 160.275196 
L 486.870753 159.711227 
L 488.247964 159.006266 
L 488.936569 158.818277 
L 489.625175 158.348303 
L 490.31378 158.160313 
L 492.379597 157.079373 
L 493.068202 156.562402 
L 494.445413 155.998433 
L 495.134019 155.857441 
L 495.822624 155.434465 
L 499.265652 154.353525 
L 499.954258 154.165535 
L 500.642863 153.836554 
L 501.331469 153.225587 
L 503.397285 152.473629 
L 504.774496 152.050653 
L 505.463102 151.533681 
L 507.528918 150.593734 
L 508.217524 150.076762 
L 508.906129 149.700783 
L 510.28334 147.021932 
L 511.660551 145.424021 
L 512.349157 144.954047 
L 514.414973 144.061097 
L 515.103579 143.82611 
L 515.792184 143.732115 
L 516.48079 143.356136 
L 518.546606 142.74517 
L 520.612423 141.946214 
L 521.989634 141.053264 
L 523.366845 140.58329 
L 527.498478 138.23342 
L 528.187084 137.52846 
L 529.564295 136.776501 
L 530.2529 136.400522 
L 530.941506 136.165535 
L 531.630111 135.695561 
L 533.007322 135.037598 
L 535.073139 133.956658 
L 535.761744 133.768668 
L 536.45035 133.251697 
L 537.138955 132.969713 
L 537.827561 132.828721 
L 539.893377 132.076762 
L 540.581983 131.888773 
L 541.270588 131.559791 
L 541.959194 131.04282 
L 543.336405 130.666841 
L 544.713616 130.149869 
L 545.402221 129.585901 
L 546.779432 129.162924 
L 547.468038 128.833943 
L 548.156643 128.645953 
L 549.533854 127.706005 
L 550.911065 127.095039 
L 552.288276 126.061097 
L 553.665487 125.591123 
L 554.354093 125.027154 
L 555.042698 124.933159 
L 556.41991 123.946214 
L 557.797121 123.288251 
L 558.485726 123.006266 
L 559.174332 122.301305 
L 563.305965 120.797389 
L 565.371781 119.904439 
L 567.437598 119.293473 
L 568.814809 119.105483 
L 569.503414 118.823499 
L 570.19202 118.682507 
L 571.569231 118.118538 
L 572.257836 118.07154 
L 575.012258 117.084595 
L 577.078075 115.674674 
L 581.209708 113.653786 
L 583.275524 112.337859 
L 584.652735 112.008877 
L 586.029947 111.06893 
L 588.784369 110.222977 
L 589.472974 109.940992 
L 590.850185 109.61201 
L 594.293213 108.484073 
L 596.359029 108.108094 
L 597.047635 107.920104 
L 597.73624 107.591123 
L 598.424846 107.497128 
L 599.802057 106.933159 
L 600.490662 106.839164 
L 601.179268 106.510183 
L 602.556479 106.228198 
L 603.245084 105.899217 
L 605.310901 105.429243 
L 606.688112 105.147258 
L 610.819745 104.3953 
L 612.196956 104.113316 
L 612.885561 103.972324 
L 613.574167 103.690339 
L 614.262773 103.643342 
L 616.328589 103.079373 
L 617.017195 102.703394 
L 620.460222 101.857441 
L 621.148828 101.716449 
L 622.526039 101.246475 
L 625.969066 100.165535 
L 626.657672 100.024543 
L 627.346277 99.695561 
L 628.034883 99.695561 
L 629.412094 99.225587 
L 630.100699 98.567624 
L 630.789305 98.238642 
L 632.166516 97.815666 
L 634.920938 96.781723 
L 635.609543 96.640731 
L 636.298149 96.217755 
L 636.986754 96.076762 
L 637.67536 95.653786 
L 641.118387 94.619843 
L 641.806993 94.196867 
L 642.495599 94.008877 
L 643.184204 93.444909 
L 645.250021 93.06893 
L 646.627232 92.316971 
L 647.315837 91.565013 
L 648.693048 91.283029 
L 652.824681 90.343081 
L 654.201892 89.967102 
L 655.579103 89.920104 
L 656.267709 89.591123 
L 659.022131 89.121149 
L 659.710736 88.792167 
L 661.776553 88.510183 
L 664.530975 87.66423 
L 666.596791 87.194256 
L 668.662608 86.677285 
L 671.41703 85.831332 
L 672.105636 85.690339 
L 672.794241 85.361358 
L 673.482847 85.267363 
L 674.171452 85.032376 
L 674.860058 84.609399 
L 676.925874 83.857441 
L 677.61448 83.34047 
L 678.991691 82.964491 
L 679.680296 82.682507 
L 681.057507 82.306527 
L 683.811929 81.037598 
L 685.877746 80.896606 
L 688.632168 80.050653 
L 689.320773 79.627676 
L 690.697984 79.2047 
L 692.763801 78.170757 
L 693.452406 78.029765 
L 694.141012 77.700783 
L 694.829617 77.606789 
L 702.404278 75.06893 
L 705.1587 74.410966 
L 705.847306 74.222977 
L 707.224517 73.565013 
L 709.290333 73.048042 
L 709.978939 72.53107 
L 710.667544 72.202089 
L 711.35615 71.403133 
L 712.044755 70.886162 
L 713.421966 70.463185 
L 714.110572 69.899217 
L 721.685232 66.844386 
L 723.062443 66.515405 
L 724.439654 65.904439 
L 726.505471 64.682507 
L 727.194077 64.541514 
L 727.882682 64.024543 
L 729.259893 63.36658 
L 730.637104 62.520627 
L 732.702921 61.580679 
L 733.391526 61.110705 
L 734.768737 60.593734 
L 735.457343 60.12376 
L 736.834554 59.465796 
L 737.523159 58.995822 
L 738.90037 58.525849 
L 739.588976 58.384856 
L 742.343398 57.162924 
L 745.786425 55.98799 
L 747.163636 55.8 
L 747.163636 55.8 
" clip-path="url(#pd65fb990b2)" style="fill: none; stroke: #1f77b4; stroke-width: 1.5; stroke-linecap: square"/>
   </g>
   <g id="line2d_44">
    <path d="M 139.124969 307.8 
L 141.190786 307.706005 
L 143.256602 307.659008 
L 147.388235 307.565013 
L 150.831263 307.424021 
L 153.585685 307.424021 
L 154.27429 307.236031 
L 157.028712 307.142037 
L 159.094529 306.90705 
L 161.160346 306.71906 
L 170.800823 306.155091 
L 176.309667 306.061097 
L 179.752694 305.920104 
L 188.015961 305.82611 
L 191.458988 305.685117 
L 195.590621 305.591123 
L 198.345043 305.497128 
L 204.542493 305.403133 
L 206.608309 305.356136 
L 208.674126 305.309138 
L 210.739942 305.074151 
L 214.871575 305.027154 
L 216.248787 304.933159 
L 221.069025 304.839164 
L 228.643686 304.416188 
L 233.463924 304.322193 
L 234.841135 304.228198 
L 236.906952 304.134204 
L 241.038585 303.946214 
L 243.793007 303.899217 
L 245.858824 303.711227 
L 256.876512 303.053264 
L 259.630934 302.959269 
L 264.451172 302.724282 
L 266.516989 302.630287 
L 273.403044 302.254308 
L 280.977705 302.160313 
L 283.732127 301.878329 
L 285.109338 301.784334 
L 294.061209 301.079373 
L 298.192842 300.562402 
L 300.947265 300.468407 
L 306.456109 299.763446 
L 309.899136 299.669452 
L 318.851008 298.964491 
L 322.982641 298.494517 
L 325.048457 298.44752 
L 326.425668 298.353525 
L 329.18009 298.25953 
L 330.557302 298.165535 
L 334.000329 297.836554 
L 334.688935 297.648564 
L 338.820568 297.460574 
L 342.263595 297.36658 
L 351.215467 296.849608 
L 353.281283 296.755614 
L 362.233155 296.238642 
L 367.053394 296.144648 
L 367.741999 296.003655 
L 373.250843 295.909661 
L 378.071082 295.674674 
L 385.645742 295.580679 
L 390.465981 295.345692 
L 395.974825 295.251697 
L 402.172275 294.922715 
L 406.303908 294.828721 
L 419.387413 294.029765 
L 424.896257 293.93577 
L 428.339284 293.606789 
L 429.716495 293.465796 
L 433.159523 293.418799 
L 435.913945 293.136815 
L 442.8 292.760836 
L 446.931633 292.666841 
L 448.99745 292.619843 
L 451.063266 292.572846 
L 453.129083 292.384856 
L 458.637927 292.290862 
L 460.015138 292.055875 
L 461.392349 291.96188 
L 464.146771 291.867885 
L 466.212587 291.77389 
L 467.589798 291.679896 
L 473.787248 291.585901 
L 475.164459 291.444909 
L 477.918881 291.350914 
L 478.607487 291.209922 
L 479.984698 291.162924 
L 480.673303 291.021932 
L 482.73912 290.927937 
L 494.445413 290.222977 
L 496.51123 290.128982 
L 499.954258 289.98799 
L 509.594735 289.893995 
L 514.414973 289.659008 
L 519.923817 289.565013 
L 522.678239 289.471018 
L 525.432661 289.424021 
L 526.809872 289.283029 
L 529.564295 289.189034 
L 536.45035 288.813055 
L 540.581983 288.766057 
L 542.647799 288.578068 
L 544.713616 288.53107 
L 549.533854 288.437076 
L 552.288276 288.343081 
L 560.551543 288.249086 
L 563.99457 288.108094 
L 568.126203 288.014099 
L 570.19202 287.779112 
L 574.323653 287.732115 
L 575.012258 287.591123 
L 576.389469 287.497128 
L 579.143891 287.403133 
L 587.407158 287.309138 
L 590.850185 287.168146 
L 602.556479 287.121149 
L 603.93369 287.027154 
L 605.999506 286.980157 
L 614.951378 286.886162 
L 616.328589 286.792167 
L 623.90325 286.698172 
L 626.657672 286.604178 
L 634.920938 286.55718 
L 636.298149 286.463185 
L 646.627232 286.416188 
L 648.693048 286.228198 
L 660.399342 286.134204 
L 662.465158 286.087206 
L 680.368902 285.993211 
L 683.123324 285.899217 
L 695.518223 285.805222 
L 696.895434 285.66423 
L 703.092884 285.570235 
L 710.667544 285.147258 
L 714.799177 285.053264 
L 717.553599 284.959269 
L 720.996627 284.912272 
L 722.373838 284.818277 
L 727.882682 284.724282 
L 733.391526 284.442298 
L 735.457343 284.3953 
L 736.834554 284.254308 
L 738.90037 284.207311 
L 740.966187 284.019321 
L 745.09782 283.925326 
L 747.163636 283.831332 
L 747.163636 283.831332 
" clip-path="url(#pd65fb990b2)" style="fill: none; stroke: #ff7f0e; stroke-width: 1.5; stroke-linecap: square"/>
   </g>
   <g id="patch_3">
    <path d="M 108 320.4 
L 108 43.2 
" style="fill: none; stroke: #a9a9a9; stroke-width: 0.8; stroke-linejoin: miter; stroke-linecap: square"/>
   </g>
   <g id="patch_4">
    <path d="M 777.6 320.4 
L 777.6 43.2 
" style="fill: none"/>
   </g>
   <g id="patch_5">
    <path d="M 108 320.4 
L 777.6 320.4 
" style="fill: none; stroke: #a9a9a9; stroke-width: 0.8; stroke-linejoin: miter; stroke-linecap: square"/>
   </g>
   <g id="patch_6">
    <path d="M 108 43.2 
L 777.6 43.2 
" style="fill: none"/>
   </g>
   <g id="text_22">
    <!-- get_subscribe history -->
    <g style="fill: #a9a9a9" transform="translate(378.6075 37.2) scale(0.12 -0.12)">
     <defs>
      <path id="DejaVuSans-67" d="M 2906 1791 
Q 2906 2416 2648 2759 
Q 2391 3103 1925 3103 
Q 1463 3103 1205 2759 
Q 947 2416 947 1791 
Q 947 1169 1205 825 
Q 1463 481 1925 481 
Q 2391 481 2648 825 
Q 2906 1169 2906 1791 
z
M 3481 434 
Q 3481 -459 3084 -895 
Q 2688 -1331 1869 -1331 
Q 1566 -1331 1297 -1286 
Q 1028 -1241 775 -1147 
L 775 -588 
Q 1028 -725 1275 -790 
Q 1522 -856 1778 -856 
Q 2344 -856 2625 -561 
Q 2906 -266 2906 331 
L 2906 616 
Q 2728 306 2450 153 
Q 2172 0 1784 0 
Q 1141 0 747 490 
Q 353 981 353 1791 
Q 353 2603 747 3093 
Q 1141 3584 1784 3584 
Q 2172 3584 2450 3431 
Q 2728 3278 2906 2969 
L 2906 3500 
L 3481 3500 
L 3481 434 
z
" transform="scale(0.015625)"/>
      <path id="DejaVuSans-65" d="M 3597 1894 
L 3597 1613 
L 953 1613 
Q 991 1019 1311 708 
Q 1631 397 2203 397 
Q 2534 397 2845 478 
Q 3156 559 3463 722 
L 3463 178 
Q 3153 47 2828 -22 
Q 2503 -91 2169 -91 
Q 1331 -91 842 396 
Q 353 884 353 1716 
Q 353 2575 817 3079 
Q 1281 3584 2069 3584 
Q 2775 3584 3186 3129 
Q 3597 2675 3597 1894 
z
M 3022 2063 
Q 3016 2534 2758 2815 
Q 2500 3097 2075 3097 
Q 1594 3097 1305 2825 
Q 1016 2553 972 2059 
L 3022 2063 
z
" transform="scale(0.015625)"/>
      <path id="DejaVuSans-74" d="M 1172 4494 
L 1172 3500 
L 2356 3500 
L 2356 3053 
L 1172 3053 
L 1172 1153 
Q 1172 725 1289 603 
Q 1406 481 1766 481 
L 2356 481 
L 2356 0 
L 1766 0 
Q 1100 0 847 248 
Q 594 497 594 1153 
L 594 3053 
L 172 3053 
L 172 3500 
L 594 3500 
L 594 4494 
L 1172 4494 
z
" transform="scale(0.015625)"/>
      <path id="DejaVuSans-5f" d="M 3263 -1063 
L 3263 -1509 
L -63 -1509 
L -63 -1063 
L 3263 -1063 
z
" transform="scale(0.015625)"/>
      <path id="DejaVuSans-73" d="M 2834 3397 
L 2834 2853 
Q 2591 2978 2328 3040 
Q 2066 3103 1784 3103 
Q 1356 3103 1142 2972 
Q 928 2841 928 2578 
Q 928 2378 1081 2264 
Q 1234 2150 1697 2047 
L 1894 2003 
Q 2506 1872 2764 1633 
Q 3022 1394 3022 966 
Q 3022 478 2636 193 
Q 2250 -91 1575 -91 
Q 1294 -91 989 -36 
Q 684 19 347 128 
L 347 722 
Q 666 556 975 473 
Q 1284 391 1588 391 
Q 1994 391 2212 530 
Q 2431 669 2431 922 
Q 2431 1156 2273 1281 
Q 2116 1406 1581 1522 
L 1381 1569 
Q 847 1681 609 1914 
Q 372 2147 372 2553 
Q 372 3047 722 3315 
Q 1072 3584 1716 3584 
Q 2034 3584 2315 3537 
Q 2597 3491 2834 3397 
z
" transform="scale(0.015625)"/>
      <path id="DejaVuSans-75" d="M 544 1381 
L 544 3500 
L 1119 3500 
L 1119 1403 
Q 1119 906 1312 657 
Q 1506 409 1894 409 
Q 2359 409 2629 706 
Q 2900 1003 2900 1516 
L 2900 3500 
L 3475 3500 
L 3475 0 
L 2900 0 
L 2900 538 
Q 2691 219 2414 64 
Q 2138 -91 1772 -91 
Q 1169 -91 856 284 
Q 544 659 544 1381 
z
M 1991 3584 
L 1991 3584 
z
" transform="scale(0.015625)"/>
      <path id="DejaVuSans-62" d="M 3116 1747 
Q 3116 2381 2855 2742 
Q 2594 3103 2138 3103 
Q 1681 3103 1420 2742 
Q 1159 2381 1159 1747 
Q 1159 1113 1420 752 
Q 1681 391 2138 391 
Q 2594 391 2855 752 
Q 3116 1113 3116 1747 
z
M 1159 2969 
Q 1341 3281 1617 3432 
Q 1894 3584 2278 3584 
Q 2916 3584 3314 3078 
Q 3713 2572 3713 1747 
Q 3713 922 3314 415 
Q 2916 -91 2278 -91 
Q 1894 -91 1617 61 
Q 1341 213 1159 525 
L 1159 0 
L 581 0 
L 581 4863 
L 1159 4863 
L 1159 2969 
z
" transform="scale(0.015625)"/>
      <path id="DejaVuSans-63" d="M 3122 3366 
L 3122 2828 
Q 2878 2963 2633 3030 
Q 2388 3097 2138 3097 
Q 1578 3097 1268 2742 
Q 959 2388 959 1747 
Q 959 1106 1268 751 
Q 1578 397 2138 397 
Q 2388 397 2633 464 
Q 2878 531 3122 666 
L 3122 134 
Q 2881 22 2623 -34 
Q 2366 -91 2075 -91 
Q 1284 -91 818 406 
Q 353 903 353 1747 
Q 353 2603 823 3093 
Q 1294 3584 2113 3584 
Q 2378 3584 2631 3529 
Q 2884 3475 3122 3366 
z
" transform="scale(0.015625)"/>
      <path id="DejaVuSans-72" d="M 2631 2963 
Q 2534 3019 2420 3045 
Q 2306 3072 2169 3072 
Q 1681 3072 1420 2755 
Q 1159 2438 1159 1844 
L 1159 0 
L 581 0 
L 581 3500 
L 1159 3500 
L 1159 2956 
Q 1341 3275 1631 3429 
Q 1922 3584 2338 3584 
Q 2397 3584 2469 3576 
Q 2541 3569 2628 3553 
L 2631 2963 
z
" transform="scale(0.015625)"/>
      <path id="DejaVuSans-69" d="M 603 3500 
L 1178 3500 
L 1178 0 
L 603 0 
L 603 3500 
z
M 603 4863 
L 1178 4863 
L 1178 4134 
L 603 4134 
L 603 4863 
z
" transform="scale(0.015625)"/>
      <path id="DejaVuSans-20" transform="scale(0.015625)"/>
      <path id="DejaVuSans-68" d="M 3513 2113 
L 3513 0 
L 2938 0 
L 2938 2094 
Q 2938 2591 2744 2837 
Q 2550 3084 2163 3084 
Q 1697 3084 1428 2787 
Q 1159 2491 1159 1978 
L 1159 0 
L 581 0 
L 581 4863 
L 1159 4863 
L 1159 2956 
Q 1366 3272 1645 3428 
Q 1925 3584 2291 3584 
Q 2894 3584 3203 3211 
Q 3513 2838 3513 2113 
z
" transform="scale(0.015625)"/>
      <path id="DejaVuSans-6f" d="M 1959 3097 
Q 1497 3097 1228 2736 
Q 959 2375 959 1747 
Q 959 1119 1226 758 
Q 1494 397 1959 397 
Q 2419 397 2687 759 
Q 2956 1122 2956 1747 
Q 2956 2369 2687 2733 
Q 2419 3097 1959 3097 
z
M 1959 3584 
Q 2709 3584 3137 3096 
Q 3566 2609 3566 1747 
Q 3566 888 3137 398 
Q 2709 -91 1959 -91 
Q 1206 -91 779 398 
Q 353 888 353 1747 
Q 353 2609 779 3096 
Q 1206 3584 1959 3584 
z
" transform="scale(0.015625)"/>
      <path id="DejaVuSans-79" d="M 2059 -325 
Q 1816 -950 1584 -1140 
Q 1353 -1331 966 -1331 
L 506 -1331 
L 506 -850 
L 844 -850 
Q 1081 -850 1212 -737 
Q 1344 -625 1503 -206 
L 1606 56 
L 191 3500 
L 800 3500 
L 1894 763 
L 2988 3500 
L 3597 3500 
L 2059 -325 
z
" transform="scale(0.015625)"/>
     </defs>
     <use xlink:href="#DejaVuSans-67"/>
     <use xlink:href="#DejaVuSans-65" x="63.476562"/>
     <use xlink:href="#DejaVuSans-74" x="125"/>
     <use xlink:href="#DejaVuSans-5f" x="164.208984"/>
     <use xlink:href="#DejaVuSans-73" x="214.208984"/>
     <use xlink:href="#DejaVuSans-75" x="266.308594"/>
     <use xlink:href="#DejaVuSans-62" x="329.6875"/>
     <use xlink:href="#DejaVuSans-73" x="393.164062"/>
     <use xlink:href="#DejaVuSans-63" x="445.263672"/>
     <use xlink:href="#DejaVuSans-72" x="500.244141"/>
     <use xlink:href="#DejaVuSans-69" x="541.357422"/>
     <use xlink:href="#DejaVuSans-62" x="569.140625"/>
     <use xlink:href="#DejaVuSans-65" x="632.617188"/>
     <use xlink:href="#DejaVuSans-20" x="694.140625"/>
     <use xlink:href="#DejaVuSans-68" x="725.927734"/>
     <use xlink:href="#DejaVuSans-69" x="789.306641"/>
     <use xlink:href="#DejaVuSans-73" x="817.089844"/>
     <use xlink:href="#DejaVuSans-74" x="869.189453"/>
     <use xlink:href="#DejaVuSans-6f" x="908.398438"/>
     <use xlink:href="#DejaVuSans-72" x="969.580078"/>
     <use xlink:href="#DejaVuSans-79" x="1010.693359"/>
    </g>
   </g>
   <g id="legend_1">
    <g id="line2d_45">
     <path d="M 815.08 328.498438 
L 825.08 328.498438 
L 835.08 328.498438 
" style="fill: none; stroke: #1f77b4; stroke-width: 1.5; stroke-linecap: square"/>
    </g>
    <g id="text_23">
     <!-- star -->
     <g style="fill: #a9a9a9" transform="translate(843.08 331.998438) scale(0.1 -0.1)">
      <defs>
       <path id="DejaVuSans-61" d="M 2194 1759 
Q 1497 1759 1228 1600 
Q 959 1441 959 1056 
Q 959 750 1161 570 
Q 1363 391 1709 391 
Q 2188 391 2477 730 
Q 2766 1069 2766 1631 
L 2766 1759 
L 2194 1759 
z
M 3341 1997 
L 3341 0 
L 2766 0 
L 2766 531 
Q 2569 213 2275 61 
Q 1981 -91 1556 -91 
Q 1019 -91 701 211 
Q 384 513 384 1019 
Q 384 1609 779 1909 
Q 1175 2209 1959 2209 
L 2766 2209 
L 2766 2266 
Q 2766 2663 2505 2880 
Q 2244 3097 1772 3097 
Q 1472 3097 1187 3025 
Q 903 2953 641 2809 
L 641 3341 
Q 956 3463 1253 3523 
Q 1550 3584 1831 3584 
Q 2591 3584 2966 3190 
Q 3341 2797 3341 1997 
z
" transform="scale(0.015625)"/>
      </defs>
      <use xlink:href="#DejaVuSans-73"/>
      <use xlink:href="#DejaVuSans-74" x="52.099609"/>
      <use xlink:href="#DejaVuSans-61" x="91.308594"/>
      <use xlink:href="#DejaVuSans-72" x="152.587891"/>
     </g>
    </g>
    <g id="line2d_46">
     <path d="M 815.08 343.176562 
L 825.08 343.176562 
L 835.08 343.176562 
" style="fill: none; stroke: #ff7f0e; stroke-width: 1.5; stroke-linecap: square"/>
    </g>
    <g id="text_24">
     <!-- fork -->
     <g style="fill: #a9a9a9" transform="translate(843.08 346.676562) scale(0.1 -0.1)">
      <defs>
       <path id="DejaVuSans-66" d="M 2375 4863 
L 2375 4384 
L 1825 4384 
Q 1516 4384 1395 4259 
Q 1275 4134 1275 3809 
L 1275 3500 
L 2222 3500 
L 2222 3053 
L 1275 3053 
L 1275 0 
L 697 0 
L 697 3053 
L 147 3053 
L 147 3500 
L 697 3500 
L 697 3744 
Q 697 4328 969 4595 
Q 1241 4863 1831 4863 
L 2375 4863 
z
" transform="scale(0.015625)"/>
       <path id="DejaVuSans-6b" d="M 581 4863 
L 1159 4863 
L 1159 1991 
L 2875 3500 
L 3609 3500 
L 1753 1863 
L 3688 0 
L 2938 0 
L 1159 1709 
L 1159 0 
L 581 0 
L 581 4863 
z
" transform="scale(0.015625)"/>
      </defs>
      <use xlink:href="#DejaVuSans-66"/>
      <use xlink:href="#DejaVuSans-6f" x="35.205078"/>
      <use xlink:href="#DejaVuSans-72" x="96.386719"/>
      <use xlink:href="#DejaVuSans-6b" x="137.5"/>
     </g>
    </g>
   </g>
  </g>
 </g>
 <defs>
  <clipPath id="pd65fb990b2">
   <rect x="108" y="43.2" width="669.6" height="277.2"/>
  </clipPath>
 </defs>
</svg>
