<?xml version="1.0" encoding="utf-8" standalone="no"?>
<!DOCTYPE svg PUBLIC "-//W3C//DTD SVG 1.1//EN"
  "http://www.w3.org/Graphics/SVG/1.1/DTD/svg11.dtd">
<svg xmlns:xlink="http://www.w3.org/1999/xlink" width="864pt" height="360pt" viewBox="0 0 864 360" xmlns="http://www.w3.org/2000/svg" version="1.1">
 <metadata>
  <rdf:RDF xmlns:dc="http://purl.org/dc/elements/1.1/" xmlns:cc="http://creativecommons.org/ns#" xmlns:rdf="http://www.w3.org/1999/02/22-rdf-syntax-ns#">
   <cc:Work>
    <dc:type rdf:resource="http://purl.org/dc/dcmitype/StillImage"/>
    <dc:date>2023-12-27T08:10:48.972363</dc:date>
    <dc:format>image/svg+xml</dc:format>
    <dc:creator>
     <cc:Agent>
      <dc:title>Matplotlib v3.8.2, https://matplotlib.org/</dc:title>
     </cc:Agent>
    </dc:creator>
   </cc:Work>
  </rdf:RDF>
 </metadata>
 <defs>
  <style type="text/css">*{stroke-linejoin: round; stroke-linecap: butt}</style>
 </defs>
 <g id="figure_1">
  <g id="patch_1">
   <path d="M 0 360 
L 864 360 
L 864 0 
L 0 0 
L 0 360 
z
" style="fill: none; opacity: 0"/>
  </g>
  <g id="axes_1">
   <g id="patch_2">
    <path d="M 108 320.4 
L 777.6 320.4 
L 777.6 43.2 
L 108 43.2 
L 108 320.4 
z
" style="fill: none; opacity: 0"/>
   </g>
   <g id="matplotlib.axis_1">
    <g id="xtick_1">
     <g id="line2d_1">
      <path d="M 122.634188 320.4 
L 122.634188 43.2 
" clip-path="url(#pc9d819b362)" style="fill: none; stroke-dasharray: 5.12,1.28,0.8,1.28; stroke-dashoffset: 0; stroke: #b0b0b0; stroke-width: 0.8"/>
     </g>
     <g id="line2d_2">
      <defs>
       <path id="m1f88d46a6b" d="M 0 0 
L 0 3.5 
" style="stroke: #a9a9a9; stroke-width: 0.8"/>
      </defs>
      <g>
       <use xlink:href="#m1f88d46a6b" x="122.634188" y="320.4" style="fill: #a9a9a9; stroke: #a9a9a9; stroke-width: 0.8"/>
      </g>
     </g>
     <g id="text_1">
      <!-- 2021-07 -->
      <g style="fill: #a9a9a9" transform="translate(101.742782 334.998438) scale(0.1 -0.1)">
       <defs>
        <path id="DejaVuSans-32" d="M 1228 531 
L 3431 531 
L 3431 0 
L 469 0 
L 469 531 
Q 828 903 1448 1529 
Q 2069 2156 2228 2338 
Q 2531 2678 2651 2914 
Q 2772 3150 2772 3378 
Q 2772 3750 2511 3984 
Q 2250 4219 1831 4219 
Q 1534 4219 1204 4116 
Q 875 4013 500 3803 
L 500 4441 
Q 881 4594 1212 4672 
Q 1544 4750 1819 4750 
Q 2544 4750 2975 4387 
Q 3406 4025 3406 3419 
Q 3406 3131 3298 2873 
Q 3191 2616 2906 2266 
Q 2828 2175 2409 1742 
Q 1991 1309 1228 531 
z
" transform="scale(0.015625)"/>
        <path id="DejaVuSans-30" d="M 2034 4250 
Q 1547 4250 1301 3770 
Q 1056 3291 1056 2328 
Q 1056 1369 1301 889 
Q 1547 409 2034 409 
Q 2525 409 2770 889 
Q 3016 1369 3016 2328 
Q 3016 3291 2770 3770 
Q 2525 4250 2034 4250 
z
M 2034 4750 
Q 2819 4750 3233 4129 
Q 3647 3509 3647 2328 
Q 3647 1150 3233 529 
Q 2819 -91 2034 -91 
Q 1250 -91 836 529 
Q 422 1150 422 2328 
Q 422 3509 836 4129 
Q 1250 4750 2034 4750 
z
" transform="scale(0.015625)"/>
        <path id="DejaVuSans-31" d="M 794 531 
L 1825 531 
L 1825 4091 
L 703 3866 
L 703 4441 
L 1819 4666 
L 2450 4666 
L 2450 531 
L 3481 531 
L 3481 0 
L 794 0 
L 794 531 
z
" transform="scale(0.015625)"/>
        <path id="DejaVuSans-2d" d="M 313 2009 
L 1997 2009 
L 1997 1497 
L 313 1497 
L 313 2009 
z
" transform="scale(0.015625)"/>
        <path id="DejaVuSans-37" d="M 525 4666 
L 3525 4666 
L 3525 4397 
L 1831 0 
L 1172 0 
L 2766 4134 
L 525 4134 
L 525 4666 
z
" transform="scale(0.015625)"/>
       </defs>
       <use xlink:href="#DejaVuSans-32"/>
       <use xlink:href="#DejaVuSans-30" x="63.623047"/>
       <use xlink:href="#DejaVuSans-32" x="127.246094"/>
       <use xlink:href="#DejaVuSans-31" x="190.869141"/>
       <use xlink:href="#DejaVuSans-2d" x="254.492188"/>
       <use xlink:href="#DejaVuSans-30" x="290.576172"/>
       <use xlink:href="#DejaVuSans-37" x="354.199219"/>
      </g>
     </g>
    </g>
    <g id="xtick_2">
     <g id="line2d_3">
      <path d="M 185.842889 320.4 
L 185.842889 43.2 
" clip-path="url(#pc9d819b362)" style="fill: none; stroke-dasharray: 5.12,1.28,0.8,1.28; stroke-dashoffset: 0; stroke: #b0b0b0; stroke-width: 0.8"/>
     </g>
     <g id="line2d_4">
      <g>
       <use xlink:href="#m1f88d46a6b" x="185.842889" y="320.4" style="fill: #a9a9a9; stroke: #a9a9a9; stroke-width: 0.8"/>
      </g>
     </g>
     <g id="text_2">
      <!-- 2021-10 -->
      <g style="fill: #a9a9a9" transform="translate(164.951483 334.998438) scale(0.1 -0.1)">
       <use xlink:href="#DejaVuSans-32"/>
       <use xlink:href="#DejaVuSans-30" x="63.623047"/>
       <use xlink:href="#DejaVuSans-32" x="127.246094"/>
       <use xlink:href="#DejaVuSans-31" x="190.869141"/>
       <use xlink:href="#DejaVuSans-2d" x="254.492188"/>
       <use xlink:href="#DejaVuSans-31" x="290.576172"/>
       <use xlink:href="#DejaVuSans-30" x="354.199219"/>
      </g>
     </g>
    </g>
    <g id="xtick_3">
     <g id="line2d_5">
      <path d="M 249.05159 320.4 
L 249.05159 43.2 
" clip-path="url(#pc9d819b362)" style="fill: none; stroke-dasharray: 5.12,1.28,0.8,1.28; stroke-dashoffset: 0; stroke: #b0b0b0; stroke-width: 0.8"/>
     </g>
     <g id="line2d_6">
      <g>
       <use xlink:href="#m1f88d46a6b" x="249.05159" y="320.4" style="fill: #a9a9a9; stroke: #a9a9a9; stroke-width: 0.8"/>
      </g>
     </g>
     <g id="text_3">
      <!-- 2022-01 -->
      <g style="fill: #a9a9a9" transform="translate(228.160184 334.998438) scale(0.1 -0.1)">
       <use xlink:href="#DejaVuSans-32"/>
       <use xlink:href="#DejaVuSans-30" x="63.623047"/>
       <use xlink:href="#DejaVuSans-32" x="127.246094"/>
       <use xlink:href="#DejaVuSans-32" x="190.869141"/>
       <use xlink:href="#DejaVuSans-2d" x="254.492188"/>
       <use xlink:href="#DejaVuSans-30" x="290.576172"/>
       <use xlink:href="#DejaVuSans-31" x="354.199219"/>
      </g>
     </g>
    </g>
    <g id="xtick_4">
     <g id="line2d_7">
      <path d="M 310.886189 320.4 
L 310.886189 43.2 
" clip-path="url(#pc9d819b362)" style="fill: none; stroke-dasharray: 5.12,1.28,0.8,1.28; stroke-dashoffset: 0; stroke: #b0b0b0; stroke-width: 0.8"/>
     </g>
     <g id="line2d_8">
      <g>
       <use xlink:href="#m1f88d46a6b" x="310.886189" y="320.4" style="fill: #a9a9a9; stroke: #a9a9a9; stroke-width: 0.8"/>
      </g>
     </g>
     <g id="text_4">
      <!-- 2022-04 -->
      <g style="fill: #a9a9a9" transform="translate(289.994783 334.998438) scale(0.1 -0.1)">
       <defs>
        <path id="DejaVuSans-34" d="M 2419 4116 
L 825 1625 
L 2419 1625 
L 2419 4116 
z
M 2253 4666 
L 3047 4666 
L 3047 1625 
L 3713 1625 
L 3713 1100 
L 3047 1100 
L 3047 0 
L 2419 0 
L 2419 1100 
L 313 1100 
L 313 1709 
L 2253 4666 
z
" transform="scale(0.015625)"/>
       </defs>
       <use xlink:href="#DejaVuSans-32"/>
       <use xlink:href="#DejaVuSans-30" x="63.623047"/>
       <use xlink:href="#DejaVuSans-32" x="127.246094"/>
       <use xlink:href="#DejaVuSans-32" x="190.869141"/>
       <use xlink:href="#DejaVuSans-2d" x="254.492188"/>
       <use xlink:href="#DejaVuSans-30" x="290.576172"/>
       <use xlink:href="#DejaVuSans-34" x="354.199219"/>
      </g>
     </g>
    </g>
    <g id="xtick_5">
     <g id="line2d_9">
      <path d="M 373.407839 320.4 
L 373.407839 43.2 
" clip-path="url(#pc9d819b362)" style="fill: none; stroke-dasharray: 5.12,1.28,0.8,1.28; stroke-dashoffset: 0; stroke: #b0b0b0; stroke-width: 0.8"/>
     </g>
     <g id="line2d_10">
      <g>
       <use xlink:href="#m1f88d46a6b" x="373.407839" y="320.4" style="fill: #a9a9a9; stroke: #a9a9a9; stroke-width: 0.8"/>
      </g>
     </g>
     <g id="text_5">
      <!-- 2022-07 -->
      <g style="fill: #a9a9a9" transform="translate(352.516433 334.998438) scale(0.1 -0.1)">
       <use xlink:href="#DejaVuSans-32"/>
       <use xlink:href="#DejaVuSans-30" x="63.623047"/>
       <use xlink:href="#DejaVuSans-32" x="127.246094"/>
       <use xlink:href="#DejaVuSans-32" x="190.869141"/>
       <use xlink:href="#DejaVuSans-2d" x="254.492188"/>
       <use xlink:href="#DejaVuSans-30" x="290.576172"/>
       <use xlink:href="#DejaVuSans-37" x="354.199219"/>
      </g>
     </g>
    </g>
    <g id="xtick_6">
     <g id="line2d_11">
      <path d="M 436.61654 320.4 
L 436.61654 43.2 
" clip-path="url(#pc9d819b362)" style="fill: none; stroke-dasharray: 5.12,1.28,0.8,1.28; stroke-dashoffset: 0; stroke: #b0b0b0; stroke-width: 0.8"/>
     </g>
     <g id="line2d_12">
      <g>
       <use xlink:href="#m1f88d46a6b" x="436.61654" y="320.4" style="fill: #a9a9a9; stroke: #a9a9a9; stroke-width: 0.8"/>
      </g>
     </g>
     <g id="text_6">
      <!-- 2022-10 -->
      <g style="fill: #a9a9a9" transform="translate(415.725134 334.998438) scale(0.1 -0.1)">
       <use xlink:href="#DejaVuSans-32"/>
       <use xlink:href="#DejaVuSans-30" x="63.623047"/>
       <use xlink:href="#DejaVuSans-32" x="127.246094"/>
       <use xlink:href="#DejaVuSans-32" x="190.869141"/>
       <use xlink:href="#DejaVuSans-2d" x="254.492188"/>
       <use xlink:href="#DejaVuSans-31" x="290.576172"/>
       <use xlink:href="#DejaVuSans-30" x="354.199219"/>
      </g>
     </g>
    </g>
    <g id="xtick_7">
     <g id="line2d_13">
      <path d="M 499.825241 320.4 
L 499.825241 43.2 
" clip-path="url(#pc9d819b362)" style="fill: none; stroke-dasharray: 5.12,1.28,0.8,1.28; stroke-dashoffset: 0; stroke: #b0b0b0; stroke-width: 0.8"/>
     </g>
     <g id="line2d_14">
      <g>
       <use xlink:href="#m1f88d46a6b" x="499.825241" y="320.4" style="fill: #a9a9a9; stroke: #a9a9a9; stroke-width: 0.8"/>
      </g>
     </g>
     <g id="text_7">
      <!-- 2023-01 -->
      <g style="fill: #a9a9a9" transform="translate(478.933835 334.998438) scale(0.1 -0.1)">
       <defs>
        <path id="DejaVuSans-33" d="M 2597 2516 
Q 3050 2419 3304 2112 
Q 3559 1806 3559 1356 
Q 3559 666 3084 287 
Q 2609 -91 1734 -91 
Q 1441 -91 1130 -33 
Q 819 25 488 141 
L 488 750 
Q 750 597 1062 519 
Q 1375 441 1716 441 
Q 2309 441 2620 675 
Q 2931 909 2931 1356 
Q 2931 1769 2642 2001 
Q 2353 2234 1838 2234 
L 1294 2234 
L 1294 2753 
L 1863 2753 
Q 2328 2753 2575 2939 
Q 2822 3125 2822 3475 
Q 2822 3834 2567 4026 
Q 2313 4219 1838 4219 
Q 1578 4219 1281 4162 
Q 984 4106 628 3988 
L 628 4550 
Q 988 4650 1302 4700 
Q 1616 4750 1894 4750 
Q 2613 4750 3031 4423 
Q 3450 4097 3450 3541 
Q 3450 3153 3228 2886 
Q 3006 2619 2597 2516 
z
" transform="scale(0.015625)"/>
       </defs>
       <use xlink:href="#DejaVuSans-32"/>
       <use xlink:href="#DejaVuSans-30" x="63.623047"/>
       <use xlink:href="#DejaVuSans-32" x="127.246094"/>
       <use xlink:href="#DejaVuSans-33" x="190.869141"/>
       <use xlink:href="#DejaVuSans-2d" x="254.492188"/>
       <use xlink:href="#DejaVuSans-30" x="290.576172"/>
       <use xlink:href="#DejaVuSans-31" x="354.199219"/>
      </g>
     </g>
    </g>
    <g id="xtick_8">
     <g id="line2d_15">
      <path d="M 561.65984 320.4 
L 561.65984 43.2 
" clip-path="url(#pc9d819b362)" style="fill: none; stroke-dasharray: 5.12,1.28,0.8,1.28; stroke-dashoffset: 0; stroke: #b0b0b0; stroke-width: 0.8"/>
     </g>
     <g id="line2d_16">
      <g>
       <use xlink:href="#m1f88d46a6b" x="561.65984" y="320.4" style="fill: #a9a9a9; stroke: #a9a9a9; stroke-width: 0.8"/>
      </g>
     </g>
     <g id="text_8">
      <!-- 2023-04 -->
      <g style="fill: #a9a9a9" transform="translate(540.768434 334.998438) scale(0.1 -0.1)">
       <use xlink:href="#DejaVuSans-32"/>
       <use xlink:href="#DejaVuSans-30" x="63.623047"/>
       <use xlink:href="#DejaVuSans-32" x="127.246094"/>
       <use xlink:href="#DejaVuSans-33" x="190.869141"/>
       <use xlink:href="#DejaVuSans-2d" x="254.492188"/>
       <use xlink:href="#DejaVuSans-30" x="290.576172"/>
       <use xlink:href="#DejaVuSans-34" x="354.199219"/>
      </g>
     </g>
    </g>
    <g id="xtick_9">
     <g id="line2d_17">
      <path d="M 624.18149 320.4 
L 624.18149 43.2 
" clip-path="url(#pc9d819b362)" style="fill: none; stroke-dasharray: 5.12,1.28,0.8,1.28; stroke-dashoffset: 0; stroke: #b0b0b0; stroke-width: 0.8"/>
     </g>
     <g id="line2d_18">
      <g>
       <use xlink:href="#m1f88d46a6b" x="624.18149" y="320.4" style="fill: #a9a9a9; stroke: #a9a9a9; stroke-width: 0.8"/>
      </g>
     </g>
     <g id="text_9">
      <!-- 2023-07 -->
      <g style="fill: #a9a9a9" transform="translate(603.290084 334.998438) scale(0.1 -0.1)">
       <use xlink:href="#DejaVuSans-32"/>
       <use xlink:href="#DejaVuSans-30" x="63.623047"/>
       <use xlink:href="#DejaVuSans-32" x="127.246094"/>
       <use xlink:href="#DejaVuSans-33" x="190.869141"/>
       <use xlink:href="#DejaVuSans-2d" x="254.492188"/>
       <use xlink:href="#DejaVuSans-30" x="290.576172"/>
       <use xlink:href="#DejaVuSans-37" x="354.199219"/>
      </g>
     </g>
    </g>
    <g id="xtick_10">
     <g id="line2d_19">
      <path d="M 687.390191 320.4 
L 687.390191 43.2 
" clip-path="url(#pc9d819b362)" style="fill: none; stroke-dasharray: 5.12,1.28,0.8,1.28; stroke-dashoffset: 0; stroke: #b0b0b0; stroke-width: 0.8"/>
     </g>
     <g id="line2d_20">
      <g>
       <use xlink:href="#m1f88d46a6b" x="687.390191" y="320.4" style="fill: #a9a9a9; stroke: #a9a9a9; stroke-width: 0.8"/>
      </g>
     </g>
     <g id="text_10">
      <!-- 2023-10 -->
      <g style="fill: #a9a9a9" transform="translate(666.498785 334.998438) scale(0.1 -0.1)">
       <use xlink:href="#DejaVuSans-32"/>
       <use xlink:href="#DejaVuSans-30" x="63.623047"/>
       <use xlink:href="#DejaVuSans-32" x="127.246094"/>
       <use xlink:href="#DejaVuSans-33" x="190.869141"/>
       <use xlink:href="#DejaVuSans-2d" x="254.492188"/>
       <use xlink:href="#DejaVuSans-31" x="290.576172"/>
       <use xlink:href="#DejaVuSans-30" x="354.199219"/>
      </g>
     </g>
    </g>
    <g id="xtick_11">
     <g id="line2d_21">
      <path d="M 750.598892 320.4 
L 750.598892 43.2 
" clip-path="url(#pc9d819b362)" style="fill: none; stroke-dasharray: 5.12,1.28,0.8,1.28; stroke-dashoffset: 0; stroke: #b0b0b0; stroke-width: 0.8"/>
     </g>
     <g id="line2d_22">
      <g>
       <use xlink:href="#m1f88d46a6b" x="750.598892" y="320.4" style="fill: #a9a9a9; stroke: #a9a9a9; stroke-width: 0.8"/>
      </g>
     </g>
     <g id="text_11">
      <!-- 2024-01 -->
      <g style="fill: #a9a9a9" transform="translate(729.707486 334.998438) scale(0.1 -0.1)">
       <use xlink:href="#DejaVuSans-32"/>
       <use xlink:href="#DejaVuSans-30" x="63.623047"/>
       <use xlink:href="#DejaVuSans-32" x="127.246094"/>
       <use xlink:href="#DejaVuSans-34" x="190.869141"/>
       <use xlink:href="#DejaVuSans-2d" x="254.492188"/>
       <use xlink:href="#DejaVuSans-30" x="290.576172"/>
       <use xlink:href="#DejaVuSans-31" x="354.199219"/>
      </g>
     </g>
    </g>
   </g>
   <g id="matplotlib.axis_2">
    <g id="ytick_1">
     <g id="line2d_23">
      <path d="M 108 307.84691 
L 777.6 307.84691 
" clip-path="url(#pc9d819b362)" style="fill: none; stroke-dasharray: 5.12,1.28,0.8,1.28; stroke-dashoffset: 0; stroke: #b0b0b0; stroke-width: 0.8"/>
     </g>
     <g id="line2d_24">
      <defs>
       <path id="m4295af9246" d="M 0 0 
L -3.5 0 
" style="stroke: #a9a9a9; stroke-width: 0.8"/>
      </defs>
      <g>
       <use xlink:href="#m4295af9246" x="108" y="307.84691" style="fill: #a9a9a9; stroke: #a9a9a9; stroke-width: 0.8"/>
      </g>
     </g>
     <g id="text_12">
      <!-- 0 -->
      <g style="fill: #a9a9a9" transform="translate(94.6375 311.646129) scale(0.1 -0.1)">
       <use xlink:href="#DejaVuSans-30"/>
      </g>
     </g>
    </g>
    <g id="ytick_2">
     <g id="line2d_25">
      <path d="M 108 279.700968 
L 777.6 279.700968 
" clip-path="url(#pc9d819b362)" style="fill: none; stroke-dasharray: 5.12,1.28,0.8,1.28; stroke-dashoffset: 0; stroke: #b0b0b0; stroke-width: 0.8"/>
     </g>
     <g id="line2d_26">
      <g>
       <use xlink:href="#m4295af9246" x="108" y="279.700968" style="fill: #a9a9a9; stroke: #a9a9a9; stroke-width: 0.8"/>
      </g>
     </g>
     <g id="text_13">
      <!-- 600 -->
      <g style="fill: #a9a9a9" transform="translate(81.9125 283.500187) scale(0.1 -0.1)">
       <defs>
        <path id="DejaVuSans-36" d="M 2113 2584 
Q 1688 2584 1439 2293 
Q 1191 2003 1191 1497 
Q 1191 994 1439 701 
Q 1688 409 2113 409 
Q 2538 409 2786 701 
Q 3034 994 3034 1497 
Q 3034 2003 2786 2293 
Q 2538 2584 2113 2584 
z
M 3366 4563 
L 3366 3988 
Q 3128 4100 2886 4159 
Q 2644 4219 2406 4219 
Q 1781 4219 1451 3797 
Q 1122 3375 1075 2522 
Q 1259 2794 1537 2939 
Q 1816 3084 2150 3084 
Q 2853 3084 3261 2657 
Q 3669 2231 3669 1497 
Q 3669 778 3244 343 
Q 2819 -91 2113 -91 
Q 1303 -91 875 529 
Q 447 1150 447 2328 
Q 447 3434 972 4092 
Q 1497 4750 2381 4750 
Q 2619 4750 2861 4703 
Q 3103 4656 3366 4563 
z
" transform="scale(0.015625)"/>
       </defs>
       <use xlink:href="#DejaVuSans-36"/>
       <use xlink:href="#DejaVuSans-30" x="63.623047"/>
       <use xlink:href="#DejaVuSans-30" x="127.246094"/>
      </g>
     </g>
    </g>
    <g id="ytick_3">
     <g id="line2d_27">
      <path d="M 108 251.555026 
L 777.6 251.555026 
" clip-path="url(#pc9d819b362)" style="fill: none; stroke-dasharray: 5.12,1.28,0.8,1.28; stroke-dashoffset: 0; stroke: #b0b0b0; stroke-width: 0.8"/>
     </g>
     <g id="line2d_28">
      <g>
       <use xlink:href="#m4295af9246" x="108" y="251.555026" style="fill: #a9a9a9; stroke: #a9a9a9; stroke-width: 0.8"/>
      </g>
     </g>
     <g id="text_14">
      <!-- 1200 -->
      <g style="fill: #a9a9a9" transform="translate(75.55 255.354245) scale(0.1 -0.1)">
       <use xlink:href="#DejaVuSans-31"/>
       <use xlink:href="#DejaVuSans-32" x="63.623047"/>
       <use xlink:href="#DejaVuSans-30" x="127.246094"/>
       <use xlink:href="#DejaVuSans-30" x="190.869141"/>
      </g>
     </g>
    </g>
    <g id="ytick_4">
     <g id="line2d_29">
      <path d="M 108 223.409084 
L 777.6 223.409084 
" clip-path="url(#pc9d819b362)" style="fill: none; stroke-dasharray: 5.12,1.28,0.8,1.28; stroke-dashoffset: 0; stroke: #b0b0b0; stroke-width: 0.8"/>
     </g>
     <g id="line2d_30">
      <g>
       <use xlink:href="#m4295af9246" x="108" y="223.409084" style="fill: #a9a9a9; stroke: #a9a9a9; stroke-width: 0.8"/>
      </g>
     </g>
     <g id="text_15">
      <!-- 1800 -->
      <g style="fill: #a9a9a9" transform="translate(75.55 227.208303) scale(0.1 -0.1)">
       <defs>
        <path id="DejaVuSans-38" d="M 2034 2216 
Q 1584 2216 1326 1975 
Q 1069 1734 1069 1313 
Q 1069 891 1326 650 
Q 1584 409 2034 409 
Q 2484 409 2743 651 
Q 3003 894 3003 1313 
Q 3003 1734 2745 1975 
Q 2488 2216 2034 2216 
z
M 1403 2484 
Q 997 2584 770 2862 
Q 544 3141 544 3541 
Q 544 4100 942 4425 
Q 1341 4750 2034 4750 
Q 2731 4750 3128 4425 
Q 3525 4100 3525 3541 
Q 3525 3141 3298 2862 
Q 3072 2584 2669 2484 
Q 3125 2378 3379 2068 
Q 3634 1759 3634 1313 
Q 3634 634 3220 271 
Q 2806 -91 2034 -91 
Q 1263 -91 848 271 
Q 434 634 434 1313 
Q 434 1759 690 2068 
Q 947 2378 1403 2484 
z
M 1172 3481 
Q 1172 3119 1398 2916 
Q 1625 2713 2034 2713 
Q 2441 2713 2670 2916 
Q 2900 3119 2900 3481 
Q 2900 3844 2670 4047 
Q 2441 4250 2034 4250 
Q 1625 4250 1398 4047 
Q 1172 3844 1172 3481 
z
" transform="scale(0.015625)"/>
       </defs>
       <use xlink:href="#DejaVuSans-31"/>
       <use xlink:href="#DejaVuSans-38" x="63.623047"/>
       <use xlink:href="#DejaVuSans-30" x="127.246094"/>
       <use xlink:href="#DejaVuSans-30" x="190.869141"/>
      </g>
     </g>
    </g>
    <g id="ytick_5">
     <g id="line2d_31">
      <path d="M 108 195.263142 
L 777.6 195.263142 
" clip-path="url(#pc9d819b362)" style="fill: none; stroke-dasharray: 5.12,1.28,0.8,1.28; stroke-dashoffset: 0; stroke: #b0b0b0; stroke-width: 0.8"/>
     </g>
     <g id="line2d_32">
      <g>
       <use xlink:href="#m4295af9246" x="108" y="195.263142" style="fill: #a9a9a9; stroke: #a9a9a9; stroke-width: 0.8"/>
      </g>
     </g>
     <g id="text_16">
      <!-- 2400 -->
      <g style="fill: #a9a9a9" transform="translate(75.55 199.062361) scale(0.1 -0.1)">
       <use xlink:href="#DejaVuSans-32"/>
       <use xlink:href="#DejaVuSans-34" x="63.623047"/>
       <use xlink:href="#DejaVuSans-30" x="127.246094"/>
       <use xlink:href="#DejaVuSans-30" x="190.869141"/>
      </g>
     </g>
    </g>
    <g id="ytick_6">
     <g id="line2d_33">
      <path d="M 108 167.1172 
L 777.6 167.1172 
" clip-path="url(#pc9d819b362)" style="fill: none; stroke-dasharray: 5.12,1.28,0.8,1.28; stroke-dashoffset: 0; stroke: #b0b0b0; stroke-width: 0.8"/>
     </g>
     <g id="line2d_34">
      <g>
       <use xlink:href="#m4295af9246" x="108" y="167.1172" style="fill: #a9a9a9; stroke: #a9a9a9; stroke-width: 0.8"/>
      </g>
     </g>
     <g id="text_17">
      <!-- 3000 -->
      <g style="fill: #a9a9a9" transform="translate(75.55 170.916419) scale(0.1 -0.1)">
       <use xlink:href="#DejaVuSans-33"/>
       <use xlink:href="#DejaVuSans-30" x="63.623047"/>
       <use xlink:href="#DejaVuSans-30" x="127.246094"/>
       <use xlink:href="#DejaVuSans-30" x="190.869141"/>
      </g>
     </g>
    </g>
    <g id="ytick_7">
     <g id="line2d_35">
      <path d="M 108 138.971258 
L 777.6 138.971258 
" clip-path="url(#pc9d819b362)" style="fill: none; stroke-dasharray: 5.12,1.28,0.8,1.28; stroke-dashoffset: 0; stroke: #b0b0b0; stroke-width: 0.8"/>
     </g>
     <g id="line2d_36">
      <g>
       <use xlink:href="#m4295af9246" x="108" y="138.971258" style="fill: #a9a9a9; stroke: #a9a9a9; stroke-width: 0.8"/>
      </g>
     </g>
     <g id="text_18">
      <!-- 3600 -->
      <g style="fill: #a9a9a9" transform="translate(75.55 142.770477) scale(0.1 -0.1)">
       <use xlink:href="#DejaVuSans-33"/>
       <use xlink:href="#DejaVuSans-36" x="63.623047"/>
       <use xlink:href="#DejaVuSans-30" x="127.246094"/>
       <use xlink:href="#DejaVuSans-30" x="190.869141"/>
      </g>
     </g>
    </g>
    <g id="ytick_8">
     <g id="line2d_37">
      <path d="M 108 110.825316 
L 777.6 110.825316 
" clip-path="url(#pc9d819b362)" style="fill: none; stroke-dasharray: 5.12,1.28,0.8,1.28; stroke-dashoffset: 0; stroke: #b0b0b0; stroke-width: 0.8"/>
     </g>
     <g id="line2d_38">
      <g>
       <use xlink:href="#m4295af9246" x="108" y="110.825316" style="fill: #a9a9a9; stroke: #a9a9a9; stroke-width: 0.8"/>
      </g>
     </g>
     <g id="text_19">
      <!-- 4200 -->
      <g style="fill: #a9a9a9" transform="translate(75.55 114.624535) scale(0.1 -0.1)">
       <use xlink:href="#DejaVuSans-34"/>
       <use xlink:href="#DejaVuSans-32" x="63.623047"/>
       <use xlink:href="#DejaVuSans-30" x="127.246094"/>
       <use xlink:href="#DejaVuSans-30" x="190.869141"/>
      </g>
     </g>
    </g>
    <g id="ytick_9">
     <g id="line2d_39">
      <path d="M 108 82.679375 
L 777.6 82.679375 
" clip-path="url(#pc9d819b362)" style="fill: none; stroke-dasharray: 5.12,1.28,0.8,1.28; stroke-dashoffset: 0; stroke: #b0b0b0; stroke-width: 0.8"/>
     </g>
     <g id="line2d_40">
      <g>
       <use xlink:href="#m4295af9246" x="108" y="82.679375" style="fill: #a9a9a9; stroke: #a9a9a9; stroke-width: 0.8"/>
      </g>
     </g>
     <g id="text_20">
      <!-- 4800 -->
      <g style="fill: #a9a9a9" transform="translate(75.55 86.478593) scale(0.1 -0.1)">
       <use xlink:href="#DejaVuSans-34"/>
       <use xlink:href="#DejaVuSans-38" x="63.623047"/>
       <use xlink:href="#DejaVuSans-30" x="127.246094"/>
       <use xlink:href="#DejaVuSans-30" x="190.869141"/>
      </g>
     </g>
    </g>
    <g id="ytick_10">
     <g id="line2d_41">
      <path d="M 108 54.533433 
L 777.6 54.533433 
" clip-path="url(#pc9d819b362)" style="fill: none; stroke-dasharray: 5.12,1.28,0.8,1.28; stroke-dashoffset: 0; stroke: #b0b0b0; stroke-width: 0.8"/>
     </g>
     <g id="line2d_42">
      <g>
       <use xlink:href="#m4295af9246" x="108" y="54.533433" style="fill: #a9a9a9; stroke: #a9a9a9; stroke-width: 0.8"/>
      </g>
     </g>
     <g id="text_21">
      <!-- 5400 -->
      <g style="fill: #a9a9a9" transform="translate(75.55 58.332651) scale(0.1 -0.1)">
       <defs>
        <path id="DejaVuSans-35" d="M 691 4666 
L 3169 4666 
L 3169 4134 
L 1269 4134 
L 1269 2991 
Q 1406 3038 1543 3061 
Q 1681 3084 1819 3084 
Q 2600 3084 3056 2656 
Q 3513 2228 3513 1497 
Q 3513 744 3044 326 
Q 2575 -91 1722 -91 
Q 1428 -91 1123 -41 
Q 819 9 494 109 
L 494 744 
Q 775 591 1075 516 
Q 1375 441 1709 441 
Q 2250 441 2565 725 
Q 2881 1009 2881 1497 
Q 2881 1984 2565 2268 
Q 2250 2553 1709 2553 
Q 1456 2553 1204 2497 
Q 953 2441 691 2322 
L 691 4666 
z
" transform="scale(0.015625)"/>
       </defs>
       <use xlink:href="#DejaVuSans-35"/>
       <use xlink:href="#DejaVuSans-34" x="63.623047"/>
       <use xlink:href="#DejaVuSans-30" x="127.246094"/>
       <use xlink:href="#DejaVuSans-30" x="190.869141"/>
      </g>
     </g>
    </g>
   </g>
   <g id="line2d_43">
    <path d="M 138.436364 307.70618 
L 142.55867 307.377811 
L 143.245721 307.096351 
L 145.306875 306.861802 
L 150.116232 305.970514 
L 153.551488 305.642144 
L 154.238539 305.313775 
L 154.92559 305.126136 
L 155.612641 304.281757 
L 156.299692 303.812658 
L 156.986743 302.358451 
L 157.673794 302.264631 
L 158.360845 301.748622 
L 159.734948 301.091884 
L 161.10905 300.059866 
L 161.796101 299.403127 
L 163.170203 298.746389 
L 163.857254 298.464929 
L 164.544305 297.94892 
L 167.29251 296.776173 
L 167.979561 295.697245 
L 169.353663 294.712137 
L 170.040714 294.383768 
L 176.911225 293.44557 
L 177.598276 293.1172 
L 182.407634 292.741921 
L 183.781736 292.366642 
L 185.155838 292.085182 
L 190.652247 291.381534 
L 191.339298 291.006255 
L 192.026349 290.912435 
L 192.7134 290.630975 
L 194.087503 290.396426 
L 194.774554 290.349516 
L 195.461605 290.114966 
L 198.209809 289.692777 
L 199.583911 289.317498 
L 201.645065 289.129859 
L 203.019167 288.989129 
L 203.706218 288.801489 
L 204.393269 288.754579 
L 206.454422 288.144751 
L 210.576729 287.534922 
L 211.26378 287.347282 
L 211.950831 286.409084 
L 214.011984 285.658526 
L 216.073138 285.095607 
L 216.760189 284.767238 
L 217.44724 284.720328 
L 220.882495 283.78213 
L 222.256598 283.68831 
L 222.943649 283.59449 
L 225.004802 282.984661 
L 227.753006 282.327923 
L 228.440057 282.046463 
L 229.127109 281.952643 
L 229.81416 281.624274 
L 236.684671 280.592256 
L 240.119926 279.607148 
L 240.806977 279.184959 
L 243.555182 278.434401 
L 244.929284 277.636932 
L 245.616335 277.167833 
L 246.303386 277.074013 
L 246.990437 276.839464 
L 249.05159 276.464185 
L 249.738641 276.135815 
L 251.112744 275.901266 
L 251.799795 275.525987 
L 253.173897 275.103797 
L 253.860948 275.009978 
L 255.23505 274.634698 
L 256.609152 274.306329 
L 257.296204 274.212509 
L 258.670306 273.64959 
L 259.357357 273.508861 
L 260.044408 273.227401 
L 260.731459 273.133582 
L 261.41851 272.805212 
L 262.105561 272.617573 
L 263.479663 272.523753 
L 264.853766 272.054654 
L 266.227868 271.960834 
L 266.914919 271.632465 
L 269.663123 271.163366 
L 272.411328 270.928816 
L 273.098379 270.788086 
L 274.472481 270.131348 
L 282.030043 266.988384 
L 282.717094 266.613105 
L 283.404145 265.862547 
L 284.091196 264.736709 
L 284.778247 263.845421 
L 285.465299 263.657781 
L 286.15235 263.657781 
L 287.526452 262.672673 
L 288.213503 262.485034 
L 288.900554 262.109754 
L 289.587605 261.969025 
L 290.274656 261.359196 
L 290.961707 261.171556 
L 293.022861 260.186448 
L 293.709912 259.34207 
L 294.396963 258.310052 
L 295.084014 257.887863 
L 295.771065 256.762025 
L 296.458116 256.058377 
L 297.145167 255.730007 
L 297.832218 255.542368 
L 299.206321 254.744899 
L 299.893372 254.41653 
L 302.641576 252.399404 
L 303.328627 251.414296 
L 304.015678 249.86627 
L 304.702729 248.881162 
L 305.38978 248.365153 
L 306.076832 248.083693 
L 308.825036 245.738198 
L 309.512087 245.269099 
L 310.886189 244.096351 
L 311.57324 243.158153 
L 312.947342 241.985406 
L 315.695547 240.249739 
L 316.382598 239.639911 
L 317.069649 239.499181 
L 319.130802 238.420253 
L 321.191956 237.388235 
L 322.566058 236.121668 
L 323.253109 235.3242 
L 324.627211 234.386001 
L 325.314262 234.198362 
L 326.001313 233.869993 
L 326.688364 233.353984 
L 328.062467 232.603425 
L 328.749518 232.509605 
L 330.12362 231.759047 
L 330.810671 231.383768 
L 331.497722 230.680119 
L 332.184773 230.25793 
L 332.871824 230.02338 
L 333.558875 229.554281 
L 336.30708 228.146984 
L 336.994131 227.537156 
L 339.742335 226.598958 
L 340.429386 226.129859 
L 341.116438 225.989129 
L 342.49054 225.52003 
L 344.551693 224.722561 
L 346.612846 223.972003 
L 347.986948 223.737453 
L 349.361051 222.564706 
L 350.735153 221.907967 
L 352.796306 220.73522 
L 354.170408 220.35994 
L 354.857459 219.937751 
L 355.544511 219.750112 
L 356.918613 218.858824 
L 357.605664 218.483544 
L 361.040919 217.686076 
L 363.102073 216.513328 
L 363.789124 216.419509 
L 364.476175 216.184959 
L 365.850277 215.9035 
L 367.91143 214.402383 
L 369.972584 213.933284 
L 370.659635 213.698734 
L 371.346686 213.182725 
L 375.468992 211.869248 
L 376.156044 211.822338 
L 380.965401 210.133582 
L 381.652452 209.805212 
L 383.713606 209.336113 
L 385.087708 209.007744 
L 385.774759 208.679375 
L 386.46181 208.538645 
L 388.522963 207.600447 
L 390.584117 206.615339 
L 391.271168 206.14624 
L 391.958219 205.9586 
L 394.019372 204.879672 
L 395.393474 204.551303 
L 396.767576 203.847655 
L 398.141679 203.472375 
L 398.82873 203.378555 
L 399.515781 202.909456 
L 400.202832 202.581087 
L 400.889883 202.440357 
L 402.263985 201.877439 
L 402.951036 201.736709 
L 403.638087 201.36143 
L 406.386292 200.939241 
L 407.760394 200.282502 
L 408.447445 199.719583 
L 409.134496 198.546835 
L 410.508598 198.265376 
L 411.195649 198.124646 
L 413.943854 196.717349 
L 414.630905 196.57662 
L 420.127314 193.949665 
L 422.188467 193.527476 
L 423.562569 192.870737 
L 424.24962 192.589278 
L 424.936671 192.495458 
L 427.684876 191.2758 
L 429.058978 190.337602 
L 429.746029 190.009233 
L 430.43308 189.915413 
L 431.120131 189.680864 
L 431.807182 189.633954 
L 435.242438 188.742666 
L 435.929489 188.226657 
L 437.303591 187.757558 
L 439.364745 187.100819 
L 440.051796 186.67863 
L 440.738847 186.49099 
L 441.425898 186.021891 
L 442.112949 185.740432 
L 442.8 185.318243 
L 444.174102 184.849144 
L 446.235255 184.192405 
L 446.922307 183.864036 
L 447.609358 183.348027 
L 448.296409 182.644378 
L 448.98346 182.222189 
L 449.670511 182.081459 
L 451.044613 181.049442 
L 451.731664 180.908712 
L 452.418715 179.876694 
L 453.105766 179.595235 
L 453.792818 179.079226 
L 454.479869 178.985406 
L 455.16692 178.516307 
L 455.853971 178.187937 
L 456.541022 178.047208 
L 457.228073 177.765748 
L 457.915124 177.249739 
L 458.602175 177.01519 
L 460.663329 175.654803 
L 463.411533 174.294415 
L 464.098584 174.200596 
L 465.472686 173.590767 
L 466.159737 173.215488 
L 466.846788 172.08965 
L 467.53384 171.479821 
L 468.220891 171.104542 
L 468.907942 170.963812 
L 470.282044 170.119434 
L 470.969095 169.978704 
L 472.343197 169.321966 
L 474.404351 168.477587 
L 475.778453 167.539389 
L 477.152555 166.132092 
L 478.526657 165.287714 
L 479.213708 164.865525 
L 479.900759 164.161876 
L 480.58781 163.692777 
L 481.961913 162.56694 
L 482.648964 162.28548 
L 483.336015 161.534922 
L 484.023066 161.018913 
L 485.397168 160.549814 
L 486.084219 159.986895 
L 487.458321 159.283246 
L 488.145372 159.095607 
L 488.832424 158.626508 
L 489.519475 158.485778 
L 491.580628 157.40685 
L 492.267679 156.890841 
L 493.641781 156.327923 
L 494.328832 156.187193 
L 495.015883 155.765004 
L 498.451139 154.686076 
L 499.13819 154.498436 
L 499.825241 154.170067 
L 500.512292 153.560238 
L 502.573446 152.80968 
L 503.947548 152.387491 
L 504.634599 151.871482 
L 506.695752 150.933284 
L 507.382803 150.417275 
L 508.069854 150.041996 
L 509.443956 147.368131 
L 510.818059 145.773194 
L 511.50511 145.304095 
L 513.566263 144.412807 
L 514.253314 144.178258 
L 514.940365 144.084438 
L 515.627416 143.709159 
L 517.68857 143.09933 
L 519.749723 142.301862 
L 521.123825 141.410573 
L 522.497927 140.941474 
L 526.620234 138.595979 
L 527.307285 137.892331 
L 528.681387 137.141772 
L 529.368438 136.766493 
L 530.055489 136.531943 
L 530.742541 136.062844 
L 532.116643 135.406106 
L 534.177796 134.327178 
L 534.864847 134.139538 
L 535.551898 133.623529 
L 536.238949 133.34207 
L 536.926 133.20134 
L 538.987154 132.450782 
L 539.674205 132.263142 
L 540.361256 131.934773 
L 541.048307 131.418764 
L 542.422409 131.043485 
L 543.796511 130.527476 
L 544.483562 129.964557 
L 545.857665 129.542368 
L 546.544716 129.213999 
L 547.231767 129.026359 
L 548.605869 128.088161 
L 549.979971 127.478332 
L 551.354073 126.446314 
L 552.728176 125.977215 
L 553.415227 125.414296 
L 554.102278 125.320477 
L 555.47638 124.335369 
L 556.850482 123.67863 
L 557.537533 123.397171 
L 558.224584 122.693522 
L 562.346891 121.192405 
L 564.408044 120.301117 
L 566.469198 119.691288 
L 567.8433 119.503649 
L 568.530351 119.222189 
L 569.217402 119.081459 
L 570.591504 118.518541 
L 571.278555 118.471631 
L 574.02676 117.486523 
L 576.087913 116.079226 
L 580.21022 114.0621 
L 582.271373 112.748622 
L 583.645475 112.420253 
L 585.019577 111.482055 
L 587.767782 110.637677 
L 588.454833 110.356217 
L 589.828935 110.027848 
L 593.26419 108.90201 
L 595.325344 108.526731 
L 596.012395 108.339092 
L 596.699446 108.010722 
L 597.386497 107.916902 
L 598.760599 107.353984 
L 599.44765 107.260164 
L 600.134701 106.931794 
L 601.508804 106.650335 
L 602.195855 106.321966 
L 604.257008 105.852867 
L 605.63111 105.571407 
L 609.753417 104.820849 
L 611.127519 104.539389 
L 611.81457 104.39866 
L 612.501621 104.1172 
L 613.188672 104.07029 
L 615.249826 103.507372 
L 615.936877 103.132092 
L 619.372132 102.287714 
L 620.059183 102.146984 
L 621.433285 101.677885 
L 624.868541 100.598958 
L 625.555592 100.458228 
L 626.242643 100.129859 
L 626.929694 100.129859 
L 628.303796 99.660759 
L 628.990848 99.004021 
L 629.677899 98.675652 
L 631.052001 98.253462 
L 633.800205 97.221445 
L 634.487256 97.080715 
L 635.174307 96.658526 
L 635.861359 96.517796 
L 636.54841 96.095607 
L 639.983665 95.063589 
L 640.670716 94.6414 
L 641.357767 94.45376 
L 642.044818 93.890841 
L 644.105972 93.515562 
L 645.480074 92.765004 
L 646.167125 92.014445 
L 647.541227 91.732986 
L 651.663534 90.794788 
L 653.037636 90.419509 
L 654.411738 90.372599 
L 655.098789 90.044229 
L 657.846994 89.57513 
L 658.534045 89.246761 
L 660.595198 88.965302 
L 663.343402 88.120923 
L 665.404556 87.651824 
L 667.465709 87.135815 
L 670.213913 86.291437 
L 670.900964 86.150707 
L 671.588016 85.822338 
L 672.275067 85.728518 
L 672.962118 85.493969 
L 673.649169 85.07178 
L 675.710322 84.321221 
L 676.397373 83.805212 
L 677.771475 83.429933 
L 678.458527 83.148474 
L 679.832629 82.773194 
L 682.580833 81.506627 
L 684.641986 81.365897 
L 687.390191 80.521519 
L 688.077242 80.09933 
L 689.451344 79.677141 
L 691.512497 78.645123 
L 692.199549 78.504393 
L 692.8866 78.176024 
L 693.573651 78.082204 
L 701.131213 75.549069 
L 703.879417 74.892331 
L 704.566468 74.704691 
L 705.94057 74.047952 
L 708.001724 73.531943 
L 708.688775 73.015934 
L 709.375826 72.687565 
L 710.062877 71.890097 
L 710.749928 71.374088 
L 712.12403 70.951899 
L 712.811081 70.38898 
L 720.368644 67.339836 
L 721.742746 67.011467 
L 723.116848 66.401638 
L 725.178001 65.181981 
L 725.865052 65.041251 
L 726.552103 64.525242 
L 727.926206 63.868503 
L 729.300308 63.024125 
L 731.361461 62.085927 
L 732.048512 61.616828 
L 733.422614 61.100819 
L 734.109666 60.63172 
L 735.483768 59.974981 
L 736.170819 59.505882 
L 737.544921 59.036783 
L 738.231972 58.896054 
L 740.980176 57.676396 
L 744.415432 56.503649 
L 745.102483 56.456739 
L 745.789534 56.269099 
L 746.476585 55.8 
L 747.163636 55.8 
L 747.163636 55.8 
" clip-path="url(#pc9d819b362)" style="fill: none; stroke: #1f77b4; stroke-width: 1.5; stroke-linecap: square"/>
   </g>
   <g id="line2d_44">
    <path d="M 139.123415 307.8 
L 141.184568 307.70618 
L 143.245721 307.65927 
L 147.368028 307.56545 
L 150.803283 307.424721 
L 153.551488 307.424721 
L 154.238539 307.237081 
L 156.986743 307.143261 
L 159.047897 306.908712 
L 161.10905 306.721072 
L 170.727765 306.158153 
L 176.224174 306.064334 
L 179.65943 305.923604 
L 187.904043 305.829784 
L 191.339298 305.689054 
L 195.461605 305.595235 
L 198.209809 305.501415 
L 204.393269 305.407595 
L 206.454422 305.360685 
L 208.515576 305.313775 
L 210.576729 305.079226 
L 214.699036 305.032316 
L 216.073138 304.938496 
L 220.882495 304.844676 
L 228.440057 304.422487 
L 233.249415 304.328667 
L 234.623517 304.234847 
L 236.684671 304.141028 
L 240.806977 303.953388 
L 243.555182 303.906478 
L 245.616335 303.718838 
L 256.609152 303.0621 
L 259.357357 302.96828 
L 264.166715 302.73373 
L 266.227868 302.639911 
L 273.098379 302.264631 
L 280.655941 302.170812 
L 283.404145 301.889352 
L 284.778247 301.795532 
L 293.709912 301.091884 
L 297.832218 300.575875 
L 300.580423 300.482055 
L 306.076832 299.778407 
L 309.512087 299.684587 
L 318.443751 298.980938 
L 322.566058 298.511839 
L 324.627211 298.464929 
L 326.001313 298.371109 
L 328.749518 298.27729 
L 330.12362 298.18347 
L 333.558875 297.855101 
L 334.245927 297.667461 
L 338.368233 297.479821 
L 341.803489 297.386001 
L 350.735153 296.869993 
L 352.796306 296.776173 
L 361.72797 296.260164 
L 366.537328 296.166344 
L 367.224379 296.025614 
L 372.720788 295.931794 
L 377.530146 295.697245 
L 385.087708 295.603425 
L 389.897065 295.368876 
L 395.393474 295.275056 
L 401.576934 294.946687 
L 405.699241 294.852867 
L 418.753212 294.055398 
L 424.24962 293.961579 
L 427.684876 293.633209 
L 429.058978 293.49248 
L 432.494234 293.44557 
L 435.242438 293.16411 
L 442.112949 292.788831 
L 446.235255 292.695011 
L 448.296409 292.648101 
L 450.357562 292.601191 
L 452.418715 292.413552 
L 457.915124 292.319732 
L 459.289226 292.085182 
L 460.663329 291.991363 
L 463.411533 291.897543 
L 465.472686 291.803723 
L 466.846788 291.709903 
L 473.030248 291.616083 
L 474.404351 291.475354 
L 477.152555 291.381534 
L 477.839606 291.240804 
L 479.213708 291.193894 
L 479.900759 291.053165 
L 481.961913 290.959345 
L 493.641781 290.255696 
L 495.702935 290.161876 
L 499.13819 290.021147 
L 508.756905 289.927327 
L 513.566263 289.692777 
L 519.062672 289.598958 
L 521.810876 289.505138 
L 524.559081 289.458228 
L 525.933183 289.317498 
L 528.681387 289.223678 
L 535.551898 288.848399 
L 539.674205 288.801489 
L 541.735358 288.61385 
L 543.796511 288.56694 
L 548.605869 288.47312 
L 551.354073 288.3793 
L 559.598687 288.28548 
L 563.033942 288.144751 
L 567.156249 288.050931 
L 569.217402 287.816381 
L 573.339709 287.769471 
L 574.02676 287.628742 
L 575.400862 287.534922 
L 578.149066 287.441102 
L 586.393679 287.347282 
L 589.828935 287.206552 
L 601.508804 287.159643 
L 602.882906 287.065823 
L 604.944059 287.018913 
L 613.875723 286.925093 
L 615.249826 286.831273 
L 622.807388 286.737453 
L 625.555592 286.643634 
L 633.800205 286.596724 
L 635.174307 286.502904 
L 645.480074 286.455994 
L 647.541227 286.268354 
L 659.221096 286.174535 
L 661.282249 286.127625 
L 679.145578 286.033805 
L 681.893782 285.939985 
L 694.260702 285.846165 
L 695.634804 285.705436 
L 701.818264 285.611616 
L 709.375826 285.189427 
L 713.498133 285.095607 
L 716.246337 285.001787 
L 719.681592 284.954877 
L 721.055695 284.861057 
L 726.552103 284.767238 
L 732.048512 284.485778 
L 734.109666 284.438868 
L 735.483768 284.298138 
L 737.544921 284.251229 
L 739.606074 284.063589 
L 743.728381 283.969769 
L 746.476585 283.875949 
L 747.163636 283.875949 
L 747.163636 283.875949 
" clip-path="url(#pc9d819b362)" style="fill: none; stroke: #ff7f0e; stroke-width: 1.5; stroke-linecap: square"/>
   </g>
   <g id="patch_3">
    <path d="M 108 320.4 
L 108 43.2 
" style="fill: none; stroke: #a9a9a9; stroke-width: 0.8; stroke-linejoin: miter; stroke-linecap: square"/>
   </g>
   <g id="patch_4">
    <path d="M 777.6 320.4 
L 777.6 43.2 
" style="fill: none"/>
   </g>
   <g id="patch_5">
    <path d="M 108 320.4 
L 777.6 320.4 
" style="fill: none; stroke: #a9a9a9; stroke-width: 0.8; stroke-linejoin: miter; stroke-linecap: square"/>
   </g>
   <g id="patch_6">
    <path d="M 108 43.2 
L 777.6 43.2 
" style="fill: none"/>
   </g>
   <g id="text_22">
    <!-- get_subscribe history -->
    <g style="fill: #a9a9a9" transform="translate(378.6075 37.2) scale(0.12 -0.12)">
     <defs>
      <path id="DejaVuSans-67" d="M 2906 1791 
Q 2906 2416 2648 2759 
Q 2391 3103 1925 3103 
Q 1463 3103 1205 2759 
Q 947 2416 947 1791 
Q 947 1169 1205 825 
Q 1463 481 1925 481 
Q 2391 481 2648 825 
Q 2906 1169 2906 1791 
z
M 3481 434 
Q 3481 -459 3084 -895 
Q 2688 -1331 1869 -1331 
Q 1566 -1331 1297 -1286 
Q 1028 -1241 775 -1147 
L 775 -588 
Q 1028 -725 1275 -790 
Q 1522 -856 1778 -856 
Q 2344 -856 2625 -561 
Q 2906 -266 2906 331 
L 2906 616 
Q 2728 306 2450 153 
Q 2172 0 1784 0 
Q 1141 0 747 490 
Q 353 981 353 1791 
Q 353 2603 747 3093 
Q 1141 3584 1784 3584 
Q 2172 3584 2450 3431 
Q 2728 3278 2906 2969 
L 2906 3500 
L 3481 3500 
L 3481 434 
z
" transform="scale(0.015625)"/>
      <path id="DejaVuSans-65" d="M 3597 1894 
L 3597 1613 
L 953 1613 
Q 991 1019 1311 708 
Q 1631 397 2203 397 
Q 2534 397 2845 478 
Q 3156 559 3463 722 
L 3463 178 
Q 3153 47 2828 -22 
Q 2503 -91 2169 -91 
Q 1331 -91 842 396 
Q 353 884 353 1716 
Q 353 2575 817 3079 
Q 1281 3584 2069 3584 
Q 2775 3584 3186 3129 
Q 3597 2675 3597 1894 
z
M 3022 2063 
Q 3016 2534 2758 2815 
Q 2500 3097 2075 3097 
Q 1594 3097 1305 2825 
Q 1016 2553 972 2059 
L 3022 2063 
z
" transform="scale(0.015625)"/>
      <path id="DejaVuSans-74" d="M 1172 4494 
L 1172 3500 
L 2356 3500 
L 2356 3053 
L 1172 3053 
L 1172 1153 
Q 1172 725 1289 603 
Q 1406 481 1766 481 
L 2356 481 
L 2356 0 
L 1766 0 
Q 1100 0 847 248 
Q 594 497 594 1153 
L 594 3053 
L 172 3053 
L 172 3500 
L 594 3500 
L 594 4494 
L 1172 4494 
z
" transform="scale(0.015625)"/>
      <path id="DejaVuSans-5f" d="M 3263 -1063 
L 3263 -1509 
L -63 -1509 
L -63 -1063 
L 3263 -1063 
z
" transform="scale(0.015625)"/>
      <path id="DejaVuSans-73" d="M 2834 3397 
L 2834 2853 
Q 2591 2978 2328 3040 
Q 2066 3103 1784 3103 
Q 1356 3103 1142 2972 
Q 928 2841 928 2578 
Q 928 2378 1081 2264 
Q 1234 2150 1697 2047 
L 1894 2003 
Q 2506 1872 2764 1633 
Q 3022 1394 3022 966 
Q 3022 478 2636 193 
Q 2250 -91 1575 -91 
Q 1294 -91 989 -36 
Q 684 19 347 128 
L 347 722 
Q 666 556 975 473 
Q 1284 391 1588 391 
Q 1994 391 2212 530 
Q 2431 669 2431 922 
Q 2431 1156 2273 1281 
Q 2116 1406 1581 1522 
L 1381 1569 
Q 847 1681 609 1914 
Q 372 2147 372 2553 
Q 372 3047 722 3315 
Q 1072 3584 1716 3584 
Q 2034 3584 2315 3537 
Q 2597 3491 2834 3397 
z
" transform="scale(0.015625)"/>
      <path id="DejaVuSans-75" d="M 544 1381 
L 544 3500 
L 1119 3500 
L 1119 1403 
Q 1119 906 1312 657 
Q 1506 409 1894 409 
Q 2359 409 2629 706 
Q 2900 1003 2900 1516 
L 2900 3500 
L 3475 3500 
L 3475 0 
L 2900 0 
L 2900 538 
Q 2691 219 2414 64 
Q 2138 -91 1772 -91 
Q 1169 -91 856 284 
Q 544 659 544 1381 
z
M 1991 3584 
L 1991 3584 
z
" transform="scale(0.015625)"/>
      <path id="DejaVuSans-62" d="M 3116 1747 
Q 3116 2381 2855 2742 
Q 2594 3103 2138 3103 
Q 1681 3103 1420 2742 
Q 1159 2381 1159 1747 
Q 1159 1113 1420 752 
Q 1681 391 2138 391 
Q 2594 391 2855 752 
Q 3116 1113 3116 1747 
z
M 1159 2969 
Q 1341 3281 1617 3432 
Q 1894 3584 2278 3584 
Q 2916 3584 3314 3078 
Q 3713 2572 3713 1747 
Q 3713 922 3314 415 
Q 2916 -91 2278 -91 
Q 1894 -91 1617 61 
Q 1341 213 1159 525 
L 1159 0 
L 581 0 
L 581 4863 
L 1159 4863 
L 1159 2969 
z
" transform="scale(0.015625)"/>
      <path id="DejaVuSans-63" d="M 3122 3366 
L 3122 2828 
Q 2878 2963 2633 3030 
Q 2388 3097 2138 3097 
Q 1578 3097 1268 2742 
Q 959 2388 959 1747 
Q 959 1106 1268 751 
Q 1578 397 2138 397 
Q 2388 397 2633 464 
Q 2878 531 3122 666 
L 3122 134 
Q 2881 22 2623 -34 
Q 2366 -91 2075 -91 
Q 1284 -91 818 406 
Q 353 903 353 1747 
Q 353 2603 823 3093 
Q 1294 3584 2113 3584 
Q 2378 3584 2631 3529 
Q 2884 3475 3122 3366 
z
" transform="scale(0.015625)"/>
      <path id="DejaVuSans-72" d="M 2631 2963 
Q 2534 3019 2420 3045 
Q 2306 3072 2169 3072 
Q 1681 3072 1420 2755 
Q 1159 2438 1159 1844 
L 1159 0 
L 581 0 
L 581 3500 
L 1159 3500 
L 1159 2956 
Q 1341 3275 1631 3429 
Q 1922 3584 2338 3584 
Q 2397 3584 2469 3576 
Q 2541 3569 2628 3553 
L 2631 2963 
z
" transform="scale(0.015625)"/>
      <path id="DejaVuSans-69" d="M 603 3500 
L 1178 3500 
L 1178 0 
L 603 0 
L 603 3500 
z
M 603 4863 
L 1178 4863 
L 1178 4134 
L 603 4134 
L 603 4863 
z
" transform="scale(0.015625)"/>
      <path id="DejaVuSans-20" transform="scale(0.015625)"/>
      <path id="DejaVuSans-68" d="M 3513 2113 
L 3513 0 
L 2938 0 
L 2938 2094 
Q 2938 2591 2744 2837 
Q 2550 3084 2163 3084 
Q 1697 3084 1428 2787 
Q 1159 2491 1159 1978 
L 1159 0 
L 581 0 
L 581 4863 
L 1159 4863 
L 1159 2956 
Q 1366 3272 1645 3428 
Q 1925 3584 2291 3584 
Q 2894 3584 3203 3211 
Q 3513 2838 3513 2113 
z
" transform="scale(0.015625)"/>
      <path id="DejaVuSans-6f" d="M 1959 3097 
Q 1497 3097 1228 2736 
Q 959 2375 959 1747 
Q 959 1119 1226 758 
Q 1494 397 1959 397 
Q 2419 397 2687 759 
Q 2956 1122 2956 1747 
Q 2956 2369 2687 2733 
Q 2419 3097 1959 3097 
z
M 1959 3584 
Q 2709 3584 3137 3096 
Q 3566 2609 3566 1747 
Q 3566 888 3137 398 
Q 2709 -91 1959 -91 
Q 1206 -91 779 398 
Q 353 888 353 1747 
Q 353 2609 779 3096 
Q 1206 3584 1959 3584 
z
" transform="scale(0.015625)"/>
      <path id="DejaVuSans-79" d="M 2059 -325 
Q 1816 -950 1584 -1140 
Q 1353 -1331 966 -1331 
L 506 -1331 
L 506 -850 
L 844 -850 
Q 1081 -850 1212 -737 
Q 1344 -625 1503 -206 
L 1606 56 
L 191 3500 
L 800 3500 
L 1894 763 
L 2988 3500 
L 3597 3500 
L 2059 -325 
z
" transform="scale(0.015625)"/>
     </defs>
     <use xlink:href="#DejaVuSans-67"/>
     <use xlink:href="#DejaVuSans-65" x="63.476562"/>
     <use xlink:href="#DejaVuSans-74" x="125"/>
     <use xlink:href="#DejaVuSans-5f" x="164.208984"/>
     <use xlink:href="#DejaVuSans-73" x="214.208984"/>
     <use xlink:href="#DejaVuSans-75" x="266.308594"/>
     <use xlink:href="#DejaVuSans-62" x="329.6875"/>
     <use xlink:href="#DejaVuSans-73" x="393.164062"/>
     <use xlink:href="#DejaVuSans-63" x="445.263672"/>
     <use xlink:href="#DejaVuSans-72" x="500.244141"/>
     <use xlink:href="#DejaVuSans-69" x="541.357422"/>
     <use xlink:href="#DejaVuSans-62" x="569.140625"/>
     <use xlink:href="#DejaVuSans-65" x="632.617188"/>
     <use xlink:href="#DejaVuSans-20" x="694.140625"/>
     <use xlink:href="#DejaVuSans-68" x="725.927734"/>
     <use xlink:href="#DejaVuSans-69" x="789.306641"/>
     <use xlink:href="#DejaVuSans-73" x="817.089844"/>
     <use xlink:href="#DejaVuSans-74" x="869.189453"/>
     <use xlink:href="#DejaVuSans-6f" x="908.398438"/>
     <use xlink:href="#DejaVuSans-72" x="969.580078"/>
     <use xlink:href="#DejaVuSans-79" x="1010.693359"/>
    </g>
   </g>
   <g id="legend_1">
    <g id="line2d_45">
     <path d="M 815.08 328.498438 
L 825.08 328.498438 
L 835.08 328.498438 
" style="fill: none; stroke: #1f77b4; stroke-width: 1.5; stroke-linecap: square"/>
    </g>
    <g id="text_23">
     <!-- star -->
     <g style="fill: #a9a9a9" transform="translate(843.08 331.998438) scale(0.1 -0.1)">
      <defs>
       <path id="DejaVuSans-61" d="M 2194 1759 
Q 1497 1759 1228 1600 
Q 959 1441 959 1056 
Q 959 750 1161 570 
Q 1363 391 1709 391 
Q 2188 391 2477 730 
Q 2766 1069 2766 1631 
L 2766 1759 
L 2194 1759 
z
M 3341 1997 
L 3341 0 
L 2766 0 
L 2766 531 
Q 2569 213 2275 61 
Q 1981 -91 1556 -91 
Q 1019 -91 701 211 
Q 384 513 384 1019 
Q 384 1609 779 1909 
Q 1175 2209 1959 2209 
L 2766 2209 
L 2766 2266 
Q 2766 2663 2505 2880 
Q 2244 3097 1772 3097 
Q 1472 3097 1187 3025 
Q 903 2953 641 2809 
L 641 3341 
Q 956 3463 1253 3523 
Q 1550 3584 1831 3584 
Q 2591 3584 2966 3190 
Q 3341 2797 3341 1997 
z
" transform="scale(0.015625)"/>
      </defs>
      <use xlink:href="#DejaVuSans-73"/>
      <use xlink:href="#DejaVuSans-74" x="52.099609"/>
      <use xlink:href="#DejaVuSans-61" x="91.308594"/>
      <use xlink:href="#DejaVuSans-72" x="152.587891"/>
     </g>
    </g>
    <g id="line2d_46">
     <path d="M 815.08 343.176562 
L 825.08 343.176562 
L 835.08 343.176562 
" style="fill: none; stroke: #ff7f0e; stroke-width: 1.5; stroke-linecap: square"/>
    </g>
    <g id="text_24">
     <!-- fork -->
     <g style="fill: #a9a9a9" transform="translate(843.08 346.676562) scale(0.1 -0.1)">
      <defs>
       <path id="DejaVuSans-66" d="M 2375 4863 
L 2375 4384 
L 1825 4384 
Q 1516 4384 1395 4259 
Q 1275 4134 1275 3809 
L 1275 3500 
L 2222 3500 
L 2222 3053 
L 1275 3053 
L 1275 0 
L 697 0 
L 697 3053 
L 147 3053 
L 147 3500 
L 697 3500 
L 697 3744 
Q 697 4328 969 4595 
Q 1241 4863 1831 4863 
L 2375 4863 
z
" transform="scale(0.015625)"/>
       <path id="DejaVuSans-6b" d="M 581 4863 
L 1159 4863 
L 1159 1991 
L 2875 3500 
L 3609 3500 
L 1753 1863 
L 3688 0 
L 2938 0 
L 1159 1709 
L 1159 0 
L 581 0 
L 581 4863 
z
" transform="scale(0.015625)"/>
      </defs>
      <use xlink:href="#DejaVuSans-66"/>
      <use xlink:href="#DejaVuSans-6f" x="35.205078"/>
      <use xlink:href="#DejaVuSans-72" x="96.386719"/>
      <use xlink:href="#DejaVuSans-6b" x="137.5"/>
     </g>
    </g>
   </g>
  </g>
 </g>
 <defs>
  <clipPath id="pc9d819b362">
   <rect x="108" y="43.2" width="669.6" height="277.2"/>
  </clipPath>
 </defs>
</svg>
